<mxfile host="app.diagrams.net" modified="2024-06-07T13:18:19.856Z" agent="Mozilla/5.0 (Macintosh; Intel Mac OS X 10.15; rv:126.0) Gecko/20100101 Firefox/126.0" etag="E8MwUM-WIsFotBQxQB82" version="24.5.1" type="device" pages="2">
  <diagram id="O8gma-VX5jVrx_9IIkio" name="mermaid-elk-flow">
    <mxGraphModel dx="298" dy="1399" grid="1" gridSize="10" guides="1" tooltips="1" connect="1" arrows="1" fold="1" page="0" pageScale="1" pageWidth="850" pageHeight="1100" math="0" shadow="0">
      <root>
        <mxCell id="0" />
        <mxCell id="1" parent="0" />
        <UserObject label="" mermaidData="{&#xa;  &quot;data&quot;: &quot;%%{init: {\&quot;flowchart\&quot;: {\&quot;defaultRenderer\&quot;: \&quot;elk\&quot;}} }%%\n\ngraph TD\n  A[\\Replenish Value Add stock/] ---&gt;C\n  B(Order product with Value Add) ---&gt;C\n  C{Frequent process?} ---&gt;|Yes|D \n  C ---&gt;|No|F\n  D{New template?} ---&gt;|Yes|E \n  D ---&gt;|No|G\n  E(Create work order template) ---&gt;G\n  F(Create work order) ---&gt;H\n  G(Copy template to work order) ---&gt;I\n  H(Add materials to work order processes) ---&gt;J\n  I(Adjust material quantities) ---&gt;J\n  J(Monitor work orders) ---&gt;K\n  K{Material quantities in stock?} ---&gt;|No|L \n  K ---&gt;|Yes|M\n  L(Procure materials) ---&gt;M\n  M(Change status to In Progress) ---&gt;N\n  N{External Vendor to perform step?} ---&gt;|Yes|O \n  N ---&gt;|No|P\n  O(Add vendor costs) ---&gt;Q\n  P[\\Perform work order step/] ---&gt;R\n  Q([Ship materials to Vendor]) ---&gt;S ---&gt;X\n  R{Additional processing required?} ---&gt;|Yes|N \n  R---&gt;|No|T\n  S[\\Perform work order step/] ---&gt;U\n  T(Receive final stock) ---&gt;V\n  U(Receive product from vendor) ---&gt;W\n  V(Ship product on order) ---&gt;Y\n  W{Partial quantity received?} ---&gt;|Yes|X \n  W ---&gt;|No|Z\n  X[Create work order backorder] ---&gt; J\n  Y(Change status to complete) ---&gt;AA\n  Z(Pay vendor invoice) ---&gt;R\n  AA([Finish])&quot;&#xa;}" id="UNHCSCo1QyRbI-rN0RQp-1">
          <mxCell style="shape=image;noLabel=1;verticalAlign=top;imageAspect=1;image=data:image/svg+xml,PHN2ZyBhcmlhLXJvbGVkZXNjcmlwdGlvbj0iZmxvd2NoYXJ0LWVsayIgcm9sZT0iZ3JhcGhpY3MtZG9jdW1lbnQgZG9jdW1lbnQiIHZpZXdCb3g9IjkyIDkyIDExMzguNDIyMjQxMjEwOTM3NSAyNTQ3LjIzMzM5ODQzNzUiIHN0eWxlPSJtYXgtd2lkdGg6IDExMzguNDIyMjQxMjEwOTM3NXB4OyIgeG1sbnM9Imh0dHA6Ly93d3cudzMub3JnLzIwMDAvc3ZnIiB3aWR0aD0iMTAwJSIgaWQ9ImdlTWVybWFpZE91dHB1dC0xNzE3NzY1NjQyODQwIj48c3R5bGU+I2dlTWVybWFpZE91dHB1dC0xNzE3NzY1NjQyODQwe2ZvbnQtZmFtaWx5OiJ0cmVidWNoZXQgbXMiLHZlcmRhbmEsYXJpYWwsc2Fucy1zZXJpZjtmb250LXNpemU6MTZweDtmaWxsOiMwMDAwMDA7fSNnZU1lcm1haWRPdXRwdXQtMTcxNzc2NTY0Mjg0MCAuZXJyb3ItaWNvbntmaWxsOiM1NTIyMjI7fSNnZU1lcm1haWRPdXRwdXQtMTcxNzc2NTY0Mjg0MCAuZXJyb3ItdGV4dHtmaWxsOiM1NTIyMjI7c3Ryb2tlOiM1NTIyMjI7fSNnZU1lcm1haWRPdXRwdXQtMTcxNzc2NTY0Mjg0MCAuZWRnZS10aGlja25lc3Mtbm9ybWFse3N0cm9rZS13aWR0aDoycHg7fSNnZU1lcm1haWRPdXRwdXQtMTcxNzc2NTY0Mjg0MCAuZWRnZS10aGlja25lc3MtdGhpY2t7c3Ryb2tlLXdpZHRoOjMuNXB4O30jZ2VNZXJtYWlkT3V0cHV0LTE3MTc3NjU2NDI4NDAgLmVkZ2UtcGF0dGVybi1zb2xpZHtzdHJva2UtZGFzaGFycmF5OjA7fSNnZU1lcm1haWRPdXRwdXQtMTcxNzc2NTY0Mjg0MCAuZWRnZS1wYXR0ZXJuLWRhc2hlZHtzdHJva2UtZGFzaGFycmF5OjM7fSNnZU1lcm1haWRPdXRwdXQtMTcxNzc2NTY0Mjg0MCAuZWRnZS1wYXR0ZXJuLWRvdHRlZHtzdHJva2UtZGFzaGFycmF5OjI7fSNnZU1lcm1haWRPdXRwdXQtMTcxNzc2NTY0Mjg0MCAubWFya2Vye2ZpbGw6IzY2NjtzdHJva2U6IzY2Njt9I2dlTWVybWFpZE91dHB1dC0xNzE3NzY1NjQyODQwIC5tYXJrZXIuY3Jvc3N7c3Ryb2tlOiM2NjY7fSNnZU1lcm1haWRPdXRwdXQtMTcxNzc2NTY0Mjg0MCBzdmd7Zm9udC1mYW1pbHk6InRyZWJ1Y2hldCBtcyIsdmVyZGFuYSxhcmlhbCxzYW5zLXNlcmlmO2ZvbnQtc2l6ZToxNnB4O30jZ2VNZXJtYWlkT3V0cHV0LTE3MTc3NjU2NDI4NDAgLmxhYmVse2ZvbnQtZmFtaWx5OiJ0cmVidWNoZXQgbXMiLHZlcmRhbmEsYXJpYWwsc2Fucy1zZXJpZjtjb2xvcjojMDAwMDAwO30jZ2VNZXJtYWlkT3V0cHV0LTE3MTc3NjU2NDI4NDAgLmNsdXN0ZXItbGFiZWwgdGV4dHtmaWxsOiMzMzM7fSNnZU1lcm1haWRPdXRwdXQtMTcxNzc2NTY0Mjg0MCAuY2x1c3Rlci1sYWJlbCBzcGFue2NvbG9yOiMzMzM7fSNnZU1lcm1haWRPdXRwdXQtMTcxNzc2NTY0Mjg0MCAubGFiZWwgdGV4dCwjZ2VNZXJtYWlkT3V0cHV0LTE3MTc3NjU2NDI4NDAgc3BhbntmaWxsOiMwMDAwMDA7Y29sb3I6IzAwMDAwMDt9I2dlTWVybWFpZE91dHB1dC0xNzE3NzY1NjQyODQwIC5ub2RlIHJlY3QsI2dlTWVybWFpZE91dHB1dC0xNzE3NzY1NjQyODQwIC5ub2RlIGNpcmNsZSwjZ2VNZXJtYWlkT3V0cHV0LTE3MTc3NjU2NDI4NDAgLm5vZGUgZWxsaXBzZSwjZ2VNZXJtYWlkT3V0cHV0LTE3MTc3NjU2NDI4NDAgLm5vZGUgcG9seWdvbiwjZ2VNZXJtYWlkT3V0cHV0LTE3MTc3NjU2NDI4NDAgLm5vZGUgcGF0aHtmaWxsOiNlZWU7c3Ryb2tlOiM5OTk7c3Ryb2tlLXdpZHRoOjFweDt9I2dlTWVybWFpZE91dHB1dC0xNzE3NzY1NjQyODQwIC5ub2RlIC5sYWJlbHt0ZXh0LWFsaWduOmNlbnRlcjt9I2dlTWVybWFpZE91dHB1dC0xNzE3NzY1NjQyODQwIC5ub2RlLmNsaWNrYWJsZXtjdXJzb3I6cG9pbnRlcjt9I2dlTWVybWFpZE91dHB1dC0xNzE3NzY1NjQyODQwIC5hcnJvd2hlYWRQYXRoe2ZpbGw6IzMzMzMzMzt9I2dlTWVybWFpZE91dHB1dC0xNzE3NzY1NjQyODQwIC5lZGdlUGF0aCAucGF0aHtzdHJva2U6IzY2NjtzdHJva2Utd2lkdGg6Mi4wcHg7fSNnZU1lcm1haWRPdXRwdXQtMTcxNzc2NTY0Mjg0MCAuZmxvd2NoYXJ0LWxpbmt7c3Ryb2tlOiM2NjY7ZmlsbDpub25lO30jZ2VNZXJtYWlkT3V0cHV0LTE3MTc3NjU2NDI4NDAgLmVkZ2VMYWJlbHtiYWNrZ3JvdW5kLWNvbG9yOndoaXRlO3RleHQtYWxpZ246Y2VudGVyO30jZ2VNZXJtYWlkT3V0cHV0LTE3MTc3NjU2NDI4NDAgLmVkZ2VMYWJlbCByZWN0e29wYWNpdHk6MC44NTtiYWNrZ3JvdW5kLWNvbG9yOndoaXRlO2ZpbGw6d2hpdGU7fSNnZU1lcm1haWRPdXRwdXQtMTcxNzc2NTY0Mjg0MCAuY2x1c3RlciByZWN0e2ZpbGw6aHNsKDAsIDAlLCA5OC45MjE1Njg2Mjc1JSk7c3Ryb2tlOiM3MDcwNzA7c3Ryb2tlLXdpZHRoOjFweDt9I2dlTWVybWFpZE91dHB1dC0xNzE3NzY1NjQyODQwIC5jbHVzdGVyIHRleHR7ZmlsbDojMzMzO30jZ2VNZXJtYWlkT3V0cHV0LTE3MTc3NjU2NDI4NDAgLmNsdXN0ZXIgc3Bhbntjb2xvcjojMzMzO30jZ2VNZXJtYWlkT3V0cHV0LTE3MTc3NjU2NDI4NDAgZGl2Lm1lcm1haWRUb29sdGlwe3Bvc2l0aW9uOmFic29sdXRlO3RleHQtYWxpZ246Y2VudGVyO21heC13aWR0aDoyMDBweDtwYWRkaW5nOjJweDtmb250LWZhbWlseToidHJlYnVjaGV0IG1zIix2ZXJkYW5hLGFyaWFsLHNhbnMtc2VyaWY7Zm9udC1zaXplOjEycHg7YmFja2dyb3VuZDpoc2woLTE2MCwgMCUsIDkzLjMzMzMzMzMzMzMlKTtib3JkZXI6MXB4IHNvbGlkICM3MDcwNzA7Ym9yZGVyLXJhZGl1czoycHg7cG9pbnRlci1ldmVudHM6bm9uZTt6LWluZGV4OjEwMDt9I2dlTWVybWFpZE91dHB1dC0xNzE3NzY1NjQyODQwIC5mbG93Y2hhcnRUaXRsZVRleHR7dGV4dC1hbmNob3I6bWlkZGxlO2ZvbnQtc2l6ZToxOHB4O2ZpbGw6IzAwMDAwMDt9I2dlTWVybWFpZE91dHB1dC0xNzE3NzY1NjQyODQwIC5zdWJncmFwaHtzdHJva2Utd2lkdGg6MjtyeDozO30jZ2VNZXJtYWlkT3V0cHV0LTE3MTc3NjU2NDI4NDAgLmZsb3djaGFydC1sYWJlbCB0ZXh0e3RleHQtYW5jaG9yOm1pZGRsZTt9I2dlTWVybWFpZE91dHB1dC0xNzE3NzY1NjQyODQwIC5zdWJncmFwaC1sdmwtMHtmaWxsOmhzbCgwLCAwJSwgODguMzMzMzMzMzMzMyUpO3N0cm9rZTpoc2woMCwgMCUsIDg1LjMzMzMzMzMzMzMlKTt9I2dlTWVybWFpZE91dHB1dC0xNzE3NzY1NjQyODQwIC5zdWJncmFwaC1sdmwtMXtmaWxsOmhzbCgwLCAwJSwgODMuMzMzMzMzMzMzMyUpO3N0cm9rZTpoc2woMCwgMCUsIDgwLjMzMzMzMzMzMzMlKTt9I2dlTWVybWFpZE91dHB1dC0xNzE3NzY1NjQyODQwIC5zdWJncmFwaC1sdmwtMntmaWxsOmhzbCgwLCAwJSwgNzguMzMzMzMzMzMzMyUpO3N0cm9rZTpoc2woMCwgMCUsIDc1LjMzMzMzMzMzMzMlKTt9I2dlTWVybWFpZE91dHB1dC0xNzE3NzY1NjQyODQwIC5zdWJncmFwaC1sdmwtM3tmaWxsOmhzbCgwLCAwJSwgNzMuMzMzMzMzMzMzMyUpO3N0cm9rZTpoc2woMCwgMCUsIDcwLjMzMzMzMzMzMzMlKTt9I2dlTWVybWFpZE91dHB1dC0xNzE3NzY1NjQyODQwIC5zdWJncmFwaC1sdmwtNHtmaWxsOmhzbCgwLCAwJSwgNjguMzMzMzMzMzMzMyUpO3N0cm9rZTpoc2woMCwgMCUsIDY1LjMzMzMzMzMzMzMlKTt9I2dlTWVybWFpZE91dHB1dC0xNzE3NzY1NjQyODQwIDpyb290ey0tbWVybWFpZC1mb250LWZhbWlseToidHJlYnVjaGV0IG1zIix2ZXJkYW5hLGFyaWFsLHNhbnMtc2VyaWY7fTwvc3R5bGU+PGc+PC9nPjxtYXJrZXIgb3JpZW50PSJhdXRvIiBtYXJrZXJIZWlnaHQ9IjEyIiBtYXJrZXJXaWR0aD0iMTIiIG1hcmtlclVuaXRzPSJ1c2VyU3BhY2VPblVzZSIgcmVmWT0iNSIgcmVmWD0iNiIgdmlld0JveD0iMCAwIDEwIDEwIiBjbGFzcz0ibWFya2VyIGZsb3djaGFydC1lbGsiIGlkPSJnZU1lcm1haWRPdXRwdXQtMTcxNzc2NTY0Mjg0MF9mbG93Y2hhcnQtZWxrLXBvaW50RW5kIj48cGF0aCBzdHlsZT0ic3Ryb2tlLXdpZHRoOiAxcHg7IHN0cm9rZS1kYXNoYXJyYXk6IDFweCwgMHB4OyIgY2xhc3M9ImFycm93TWFya2VyUGF0aCIgZD0iTSAwIDAgTCAxMCA1IEwgMCAxMCB6Ij48L3BhdGg+PC9tYXJrZXI+PG1hcmtlciBvcmllbnQ9ImF1dG8iIG1hcmtlckhlaWdodD0iMTIiIG1hcmtlcldpZHRoPSIxMiIgbWFya2VyVW5pdHM9InVzZXJTcGFjZU9uVXNlIiByZWZZPSI1IiByZWZYPSI0LjUiIHZpZXdCb3g9IjAgMCAxMCAxMCIgY2xhc3M9Im1hcmtlciBmbG93Y2hhcnQtZWxrIiBpZD0iZ2VNZXJtYWlkT3V0cHV0LTE3MTc3NjU2NDI4NDBfZmxvd2NoYXJ0LWVsay1wb2ludFN0YXJ0Ij48cGF0aCBzdHlsZT0ic3Ryb2tlLXdpZHRoOiAxcHg7IHN0cm9rZS1kYXNoYXJyYXk6IDFweCwgMHB4OyIgY2xhc3M9ImFycm93TWFya2VyUGF0aCIgZD0iTSAwIDUgTCAxMCAxMCBMIDEwIDAgeiI+PC9wYXRoPjwvbWFya2VyPjxtYXJrZXIgb3JpZW50PSJhdXRvIiBtYXJrZXJIZWlnaHQ9IjExIiBtYXJrZXJXaWR0aD0iMTEiIG1hcmtlclVuaXRzPSJ1c2VyU3BhY2VPblVzZSIgcmVmWT0iNSIgcmVmWD0iMTEiIHZpZXdCb3g9IjAgMCAxMCAxMCIgY2xhc3M9Im1hcmtlciBmbG93Y2hhcnQtZWxrIiBpZD0iZ2VNZXJtYWlkT3V0cHV0LTE3MTc3NjU2NDI4NDBfZmxvd2NoYXJ0LWVsay1jaXJjbGVFbmQiPjxjaXJjbGUgc3R5bGU9InN0cm9rZS13aWR0aDogMXB4OyBzdHJva2UtZGFzaGFycmF5OiAxcHgsIDBweDsiIGNsYXNzPSJhcnJvd01hcmtlclBhdGgiIHI9IjUiIGN5PSI1IiBjeD0iNSI+PC9jaXJjbGU+PC9tYXJrZXI+PG1hcmtlciBvcmllbnQ9ImF1dG8iIG1hcmtlckhlaWdodD0iMTEiIG1hcmtlcldpZHRoPSIxMSIgbWFya2VyVW5pdHM9InVzZXJTcGFjZU9uVXNlIiByZWZZPSI1IiByZWZYPSItMSIgdmlld0JveD0iMCAwIDEwIDEwIiBjbGFzcz0ibWFya2VyIGZsb3djaGFydC1lbGsiIGlkPSJnZU1lcm1haWRPdXRwdXQtMTcxNzc2NTY0Mjg0MF9mbG93Y2hhcnQtZWxrLWNpcmNsZVN0YXJ0Ij48Y2lyY2xlIHN0eWxlPSJzdHJva2Utd2lkdGg6IDFweDsgc3Ryb2tlLWRhc2hhcnJheTogMXB4LCAwcHg7IiBjbGFzcz0iYXJyb3dNYXJrZXJQYXRoIiByPSI1IiBjeT0iNSIgY3g9IjUiPjwvY2lyY2xlPjwvbWFya2VyPjxtYXJrZXIgb3JpZW50PSJhdXRvIiBtYXJrZXJIZWlnaHQ9IjExIiBtYXJrZXJXaWR0aD0iMTEiIG1hcmtlclVuaXRzPSJ1c2VyU3BhY2VPblVzZSIgcmVmWT0iNS4yIiByZWZYPSIxMiIgdmlld0JveD0iMCAwIDExIDExIiBjbGFzcz0ibWFya2VyIGNyb3NzIGZsb3djaGFydC1lbGsiIGlkPSJnZU1lcm1haWRPdXRwdXQtMTcxNzc2NTY0Mjg0MF9mbG93Y2hhcnQtZWxrLWNyb3NzRW5kIj48cGF0aCBzdHlsZT0ic3Ryb2tlLXdpZHRoOiAycHg7IHN0cm9rZS1kYXNoYXJyYXk6IDFweCwgMHB4OyIgY2xhc3M9ImFycm93TWFya2VyUGF0aCIgZD0iTSAxLDEgbCA5LDkgTSAxMCwxIGwgLTksOSI+PC9wYXRoPjwvbWFya2VyPjxtYXJrZXIgb3JpZW50PSJhdXRvIiBtYXJrZXJIZWlnaHQ9IjExIiBtYXJrZXJXaWR0aD0iMTEiIG1hcmtlclVuaXRzPSJ1c2VyU3BhY2VPblVzZSIgcmVmWT0iNS4yIiByZWZYPSItMSIgdmlld0JveD0iMCAwIDExIDExIiBjbGFzcz0ibWFya2VyIGNyb3NzIGZsb3djaGFydC1lbGsiIGlkPSJnZU1lcm1haWRPdXRwdXQtMTcxNzc2NTY0Mjg0MF9mbG93Y2hhcnQtZWxrLWNyb3NzU3RhcnQiPjxwYXRoIHN0eWxlPSJzdHJva2Utd2lkdGg6IDJweDsgc3Ryb2tlLWRhc2hhcnJheTogMXB4LCAwcHg7IiBjbGFzcz0iYXJyb3dNYXJrZXJQYXRoIiBkPSJNIDEsMSBsIDksOSBNIDEwLDEgbCAtOSw5Ij48L3BhdGg+PC9tYXJrZXI+PGcgY2xhc3M9InN1YmdyYXBocyI+PC9nPjxnIGNsYXNzPSJub2RlcyI+PGcgdHJhbnNmb3JtPSJ0cmFuc2xhdGUoMjg1LjMxNjY1ODAyMDAxOTUzLCA5NTguMTQ5OTkzODk2NDg0NCkiIGRhdGEtaWQ9IkEiIGRhdGEtbm9kZT0idHJ1ZSIgaWQ9ImZsb3djaGFydC1BLTk4NSIgY2xhc3M9Im5vZGUgZGVmYXVsdCBkZWZhdWx0IGZsb3djaGFydC1sYWJlbCI+PHBvbHlnb24gc3R5bGU9IiIgdHJhbnNmb3JtPSJ0cmFuc2xhdGUoLTEwMS41OTk5OTg0NzQxMjExLDE3LjI1KSIgY2xhc3M9ImxhYmVsLWNvbnRhaW5lciIgcG9pbnRzPSI1Ljc1LDAgMTk3LjQ0OTk5Njk0ODI0MjIsMCAyMTQuNjk5OTk2OTQ4MjQyMiwtMzQuNSAtMTEuNSwtMzQuNSI+PC9wb2x5Z29uPjxnIHRyYW5zZm9ybT0idHJhbnNsYXRlKDAsIC05Ljc1KSIgc3R5bGU9IiIgY2xhc3M9ImxhYmVsIj48cmVjdD48L3JlY3Q+PHRleHQgc3R5bGU9IiI+PHRzcGFuIGNsYXNzPSJyb3ciIHg9IjAiIGR5PSIxZW0iIHhtbDpzcGFjZT0icHJlc2VydmUiPlJlcGxlbmlzaCBWYWx1ZSBBZGQgc3RvY2s8L3RzcGFuPjwvdGV4dD48L2c+PC9nPjxnIHRyYW5zZm9ybT0idHJhbnNsYXRlKDUzMy41OTk5OTA4NDQ3MjY0LCAxMTI1LjU5MTY1OTU0NTg5ODQpIiBkYXRhLWlkPSJDIiBkYXRhLW5vZGU9InRydWUiIGlkPSJmbG93Y2hhcnQtQy05ODYiIGNsYXNzPSJub2RlIGRlZmF1bHQgZGVmYXVsdCBmbG93Y2hhcnQtbGFiZWwiPjxwb2x5Z29uIHN0eWxlPSIiIHRyYW5zZm9ybT0idHJhbnNsYXRlKC05MC4xOTE2NjU2NDk0MTQwNiw5MC4xOTE2NjU2NDk0MTQwNikiIGNsYXNzPSJsYWJlbC1jb250YWluZXIiIHBvaW50cz0iOTAuMTkxNjY1NjQ5NDE0MDYsMCAxODAuMzgzMzMxMjk4ODI4MTIsLTkwLjE5MTY2NTY0OTQxNDA2IDkwLjE5MTY2NTY0OTQxNDA2LC0xODAuMzgzMzMxMjk4ODI4MTIgMCwtOTAuMTkxNjY1NjQ5NDE0MDYiPjwvcG9seWdvbj48ZyB0cmFuc2Zvcm09InRyYW5zbGF0ZSgwLCAtOS43NSkiIHN0eWxlPSIiIGNsYXNzPSJsYWJlbCI+PHJlY3Q+PC9yZWN0Pjx0ZXh0IHN0eWxlPSIiPjx0c3BhbiBjbGFzcz0icm93IiB4PSIwIiBkeT0iMWVtIiB4bWw6c3BhY2U9InByZXNlcnZlIj5GcmVxdWVudCBwcm9jZXNzPzwvdHNwYW4+PC90ZXh0PjwvZz48L2c+PGcgdHJhbnNmb3JtPSJ0cmFuc2xhdGUoNTMzLjU5OTk5MDg0NDcyNjQsIDk1OC4xNDk5OTM4OTY0ODQ0KSIgZGF0YS1pZD0iQiIgZGF0YS1ub2RlPSJ0cnVlIiBpZD0iZmxvd2NoYXJ0LUItOTg3IiBjbGFzcz0ibm9kZSBkZWZhdWx0IGRlZmF1bHQgZmxvd2NoYXJ0LWxhYmVsIj48cmVjdCBoZWlnaHQ9IjM0LjUiIHdpZHRoPSIyMzAuMzY2NjY4NzAxMTcxODgiIHk9Ii0xNy4yNSIgeD0iLTExNS4xODMzMzQzNTA1ODU5NCIgcnk9IjUiIHJ4PSI1IiBzdHlsZT0iIiBjbGFzcz0iYmFzaWMgbGFiZWwtY29udGFpbmVyIj48L3JlY3Q+PGcgdHJhbnNmb3JtPSJ0cmFuc2xhdGUoMCwgLTkuNzUpIiBzdHlsZT0iIiBjbGFzcz0ibGFiZWwiPjxyZWN0PjwvcmVjdD48dGV4dCBzdHlsZT0iIj48dHNwYW4gY2xhc3M9InJvdyIgeD0iMCIgZHk9IjFlbSIgeG1sOnNwYWNlPSJwcmVzZXJ2ZSI+T3JkZXIgcHJvZHVjdCB3aXRoIFZhbHVlIEFkZDwvdHNwYW4+PC90ZXh0PjwvZz48L2c+PGcgdHJhbnNmb3JtPSJ0cmFuc2xhdGUoNTMzLjU5OTk5MDg0NDcyNjQsIDEzNjkuNTQ5OTg3NzkyOTY4OCkiIGRhdGEtaWQ9IkQiIGRhdGEtbm9kZT0idHJ1ZSIgaWQ9ImZsb3djaGFydC1ELTk5MCIgY2xhc3M9Im5vZGUgZGVmYXVsdCBkZWZhdWx0IGZsb3djaGFydC1sYWJlbCI+PHBvbHlnb24gc3R5bGU9IiIgdHJhbnNmb3JtPSJ0cmFuc2xhdGUoLTc5LjI2NjY2NjQxMjM1MzUyLDc5LjI2NjY2NjQxMjM1MzUyKSIgY2xhc3M9ImxhYmVsLWNvbnRhaW5lciIgcG9pbnRzPSI3OS4yNjY2NjY0MTIzNTM1MiwwIDE1OC41MzMzMzI4MjQ3MDcwMywtNzkuMjY2NjY2NDEyMzUzNTIgNzkuMjY2NjY2NDEyMzUzNTIsLTE1OC41MzMzMzI4MjQ3MDcwMyAwLC03OS4yNjY2NjY0MTIzNTM1MiI+PC9wb2x5Z29uPjxnIHRyYW5zZm9ybT0idHJhbnNsYXRlKDAsIC05Ljc1KSIgc3R5bGU9IiIgY2xhc3M9ImxhYmVsIj48cmVjdD48L3JlY3Q+PHRleHQgc3R5bGU9IiI+PHRzcGFuIGNsYXNzPSJyb3ciIHg9IjAiIGR5PSIxZW0iIHhtbDpzcGFjZT0icHJlc2VydmUiPk5ldyB0ZW1wbGF0ZT88L3RzcGFuPjwvdGV4dD48L2c+PC9nPjxnIHRyYW5zZm9ybT0idHJhbnNsYXRlKDI1Ny4yMDgzMjgyNDcwNzAzLCAxMzY5LjU0OTk4Nzc5Mjk2ODgpIiBkYXRhLWlkPSJGIiBkYXRhLW5vZGU9InRydWUiIGlkPSJmbG93Y2hhcnQtRi05OTIiIGNsYXNzPSJub2RlIGRlZmF1bHQgZGVmYXVsdCBmbG93Y2hhcnQtbGFiZWwiPjxyZWN0IGhlaWdodD0iMzQuNSIgd2lkdGg9IjE0OC4xMDAwMDYxMDM1MTU2MiIgeT0iLTE3LjI1IiB4PSItNzQuMDUwMDAzMDUxNzU3ODEiIHJ5PSI1IiByeD0iNSIgc3R5bGU9IiIgY2xhc3M9ImJhc2ljIGxhYmVsLWNvbnRhaW5lciI+PC9yZWN0PjxnIHRyYW5zZm9ybT0idHJhbnNsYXRlKDAsIC05Ljc1KSIgc3R5bGU9IiIgY2xhc3M9ImxhYmVsIj48cmVjdD48L3JlY3Q+PHRleHQgc3R5bGU9IiI+PHRzcGFuIGNsYXNzPSJyb3ciIHg9IjAiIGR5PSIxZW0iIHhtbDpzcGFjZT0icHJlc2VydmUiPkNyZWF0ZSB3b3JrIG9yZGVyPC90c3Bhbj48L3RleHQ+PC9nPjwvZz48ZyB0cmFuc2Zvcm09InRyYW5zbGF0ZSg1MzMuNTk5OTkwODQ0NzI2NCwgMTY4MS4wNDk5ODAxNjM1NzQyKSIgZGF0YS1pZD0iRSIgZGF0YS1ub2RlPSJ0cnVlIiBpZD0iZmxvd2NoYXJ0LUUtOTk0IiBjbGFzcz0ibm9kZSBkZWZhdWx0IGRlZmF1bHQgZmxvd2NoYXJ0LWxhYmVsIj48cmVjdCBoZWlnaHQ9IjM0LjUiIHdpZHRoPSIyMTguMzY2NjY4NzAxMTcxODgiIHk9Ii0xNy4yNSIgeD0iLTEwOS4xODMzMzQzNTA1ODU5NCIgcnk9IjUiIHJ4PSI1IiBzdHlsZT0iIiBjbGFzcz0iYmFzaWMgbGFiZWwtY29udGFpbmVyIj48L3JlY3Q+PGcgdHJhbnNmb3JtPSJ0cmFuc2xhdGUoMCwgLTkuNzUpIiBzdHlsZT0iIiBjbGFzcz0ibGFiZWwiPjxyZWN0PjwvcmVjdD48dGV4dCBzdHlsZT0iIj48dHNwYW4gY2xhc3M9InJvdyIgeD0iMCIgZHk9IjFlbSIgeG1sOnNwYWNlPSJwcmVzZXJ2ZSI+Q3JlYXRlIHdvcmsgb3JkZXIgdGVtcGxhdGU8L3RzcGFuPjwvdGV4dD48L2c+PC9nPjxnIHRyYW5zZm9ybT0idHJhbnNsYXRlKDQ5Ni4wODMzMjMxNjA4MDcxNCwgMTg3Ni4wMzMzMDk5MzY1MjM0KSIgZGF0YS1pZD0iRyIgZGF0YS1ub2RlPSJ0cnVlIiBpZD0iZmxvd2NoYXJ0LUctOTk2IiBjbGFzcz0ibm9kZSBkZWZhdWx0IGRlZmF1bHQgZmxvd2NoYXJ0LWxhYmVsIj48cmVjdCBoZWlnaHQ9IjM0LjUiIHdpZHRoPSIyMjUuMTAwMDA2MTAzNTE1NjIiIHk9Ii0xNy4yNSIgeD0iLTExMi41NTAwMDMwNTE3NTc4MSIgcnk9IjUiIHJ4PSI1IiBzdHlsZT0iIiBjbGFzcz0iYmFzaWMgbGFiZWwtY29udGFpbmVyIj48L3JlY3Q+PGcgdHJhbnNmb3JtPSJ0cmFuc2xhdGUoMCwgLTkuNzUpIiBzdHlsZT0iIiBjbGFzcz0ibGFiZWwiPjxyZWN0PjwvcmVjdD48dGV4dCBzdHlsZT0iIj48dHNwYW4gY2xhc3M9InJvdyIgeD0iMCIgZHk9IjFlbSIgeG1sOnNwYWNlPSJwcmVzZXJ2ZSI+Q29weSB0ZW1wbGF0ZSB0byB3b3JrIG9yZGVyPC90c3Bhbj48L3RleHQ+PC9nPjwvZz48ZyB0cmFuc2Zvcm09InRyYW5zbGF0ZSgyNTcuMjA4MzI4MjQ3MDcwMywgMTY4MS4wNDk5ODAxNjM1NzQyKSIgZGF0YS1pZD0iSCIgZGF0YS1ub2RlPSJ0cnVlIiBpZD0iZmxvd2NoYXJ0LUgtMTAwMCIgY2xhc3M9Im5vZGUgZGVmYXVsdCBkZWZhdWx0IGZsb3djaGFydC1sYWJlbCI+PHJlY3QgaGVpZ2h0PSIzNC41IiB3aWR0aD0iMjkyLjQxNjY1NjQ5NDE0MDYiIHk9Ii0xNy4yNSIgeD0iLTE0Ni4yMDgzMjgyNDcwNzAzIiByeT0iNSIgcng9IjUiIHN0eWxlPSIiIGNsYXNzPSJiYXNpYyBsYWJlbC1jb250YWluZXIiPjwvcmVjdD48ZyB0cmFuc2Zvcm09InRyYW5zbGF0ZSgwLCAtOS43NSkiIHN0eWxlPSIiIGNsYXNzPSJsYWJlbCI+PHJlY3Q+PC9yZWN0Pjx0ZXh0IHN0eWxlPSIiPjx0c3BhbiBjbGFzcz0icm93IiB4PSIwIiBkeT0iMWVtIiB4bWw6c3BhY2U9InByZXNlcnZlIj5BZGQgbWF0ZXJpYWxzIHRvIHdvcmsgb3JkZXIgcHJvY2Vzc2VzPC90c3Bhbj48L3RleHQ+PC9nPjwvZz48ZyB0cmFuc2Zvcm09InRyYW5zbGF0ZSg0OTYuMDgzMzIzMTYwODA3MTQsIDE5NzAuNTMzMzA5OTM2NTIzNCkiIGRhdGEtaWQ9IkkiIGRhdGEtbm9kZT0idHJ1ZSIgaWQ9ImZsb3djaGFydC1JLTEwMDIiIGNsYXNzPSJub2RlIGRlZmF1bHQgZGVmYXVsdCBmbG93Y2hhcnQtbGFiZWwiPjxyZWN0IGhlaWdodD0iMzQuNSIgd2lkdGg9IjIwNC45NjY2NTk1NDU4OTg0NCIgeT0iLTE3LjI1IiB4PSItMTAyLjQ4MzMyOTc3Mjk0OTIyIiByeT0iNSIgcng9IjUiIHN0eWxlPSIiIGNsYXNzPSJiYXNpYyBsYWJlbC1jb250YWluZXIiPjwvcmVjdD48ZyB0cmFuc2Zvcm09InRyYW5zbGF0ZSgwLCAtOS43NSkiIHN0eWxlPSIiIGNsYXNzPSJsYWJlbCI+PHJlY3Q+PC9yZWN0Pjx0ZXh0IHN0eWxlPSIiPjx0c3BhbiBjbGFzcz0icm93IiB4PSIwIiBkeT0iMWVtIiB4bWw6c3BhY2U9InByZXNlcnZlIj5BZGp1c3QgbWF0ZXJpYWwgcXVhbnRpdGllczwvdHNwYW4+PC90ZXh0PjwvZz48L2c+PGcgdHJhbnNmb3JtPSJ0cmFuc2xhdGUoNDc5Ljk4ODMyMzQ2NTk4Mjk0LCAyMDc1LjAzMzMwOTkzNjUyMzQpIiBkYXRhLWlkPSJKIiBkYXRhLW5vZGU9InRydWUiIGlkPSJmbG93Y2hhcnQtSi0xMDA0IiBjbGFzcz0ibm9kZSBkZWZhdWx0IGRlZmF1bHQgZmxvd2NoYXJ0LWxhYmVsIj48cmVjdCBoZWlnaHQ9IjM0LjUiIHdpZHRoPSIxNjAuOTQ5OTk2OTQ4MjQyMiIgeT0iLTE3LjI1IiB4PSItODAuNDc0OTk4NDc0MTIxMSIgcnk9IjUiIHJ4PSI1IiBzdHlsZT0iIiBjbGFzcz0iYmFzaWMgbGFiZWwtY29udGFpbmVyIj48L3JlY3Q+PGcgdHJhbnNmb3JtPSJ0cmFuc2xhdGUoMCwgLTkuNzUpIiBzdHlsZT0iIiBjbGFzcz0ibGFiZWwiPjxyZWN0PjwvcmVjdD48dGV4dCBzdHlsZT0iIj48dHNwYW4gY2xhc3M9InJvdyIgeD0iMCIgZHk9IjFlbSIgeG1sOnNwYWNlPSJwcmVzZXJ2ZSI+TW9uaXRvciB3b3JrIG9yZGVyczwvdHNwYW4+PC90ZXh0PjwvZz48L2c+PGcgdHJhbnNmb3JtPSJ0cmFuc2xhdGUoMTA4NC4wMjIyMDY2MjQzNDg3LCAyNTYuNTc0OTk2OTQ4MjQyMikiIGRhdGEtaWQ9IksiIGRhdGEtbm9kZT0idHJ1ZSIgaWQ9ImZsb3djaGFydC1LLTEwMDgiIGNsYXNzPSJub2RlIGRlZmF1bHQgZGVmYXVsdCBmbG93Y2hhcnQtbGFiZWwiPjxwb2x5Z29uIHN0eWxlPSIiIHRyYW5zZm9ybT0idHJhbnNsYXRlKC0xMjYuNTc0OTk2OTQ4MjQyMTksMTI2LjU3NDk5Njk0ODI0MjE5KSIgY2xhc3M9ImxhYmVsLWNvbnRhaW5lciIgcG9pbnRzPSIxMjYuNTc0OTk2OTQ4MjQyMTksMCAyNTMuMTQ5OTkzODk2NDg0MzgsLTEyNi41NzQ5OTY5NDgyNDIxOSAxMjYuNTc0OTk2OTQ4MjQyMTksLTI1My4xNDk5OTM4OTY0ODQzOCAwLC0xMjYuNTc0OTk2OTQ4MjQyMTkiPjwvcG9seWdvbj48ZyB0cmFuc2Zvcm09InRyYW5zbGF0ZSgwLCAtOS43NSkiIHN0eWxlPSIiIGNsYXNzPSJsYWJlbCI+PHJlY3Q+PC9yZWN0Pjx0ZXh0IHN0eWxlPSIiPjx0c3BhbiBjbGFzcz0icm93IiB4PSIwIiBkeT0iMWVtIiB4bWw6c3BhY2U9InByZXNlcnZlIj5NYXRlcmlhbCBxdWFudGl0aWVzIGluIHN0b2NrPzwvdHNwYW4+PC90ZXh0PjwvZz48L2c+PGcgdHJhbnNmb3JtPSJ0cmFuc2xhdGUoMTA4NC4wMjIyMDY2MjQzNDg3LCA0NTkuODk5OTkzODk2NDg0NCkiIGRhdGEtaWQ9IkwiIGRhdGEtbm9kZT0idHJ1ZSIgaWQ9ImZsb3djaGFydC1MLTEwMTAiIGNsYXNzPSJub2RlIGRlZmF1bHQgZGVmYXVsdCBmbG93Y2hhcnQtbGFiZWwiPjxyZWN0IGhlaWdodD0iMzQuNSIgd2lkdGg9IjE0My41NjY2NjU2NDk0MTQwNiIgeT0iLTE3LjI1IiB4PSItNzEuNzgzMzMyODI0NzA3MDMiIHJ5PSI1IiByeD0iNSIgc3R5bGU9IiIgY2xhc3M9ImJhc2ljIGxhYmVsLWNvbnRhaW5lciI+PC9yZWN0PjxnIHRyYW5zZm9ybT0idHJhbnNsYXRlKDAsIC05Ljc1KSIgc3R5bGU9IiIgY2xhc3M9ImxhYmVsIj48cmVjdD48L3JlY3Q+PHRleHQgc3R5bGU9IiI+PHRzcGFuIGNsYXNzPSJyb3ciIHg9IjAiIGR5PSIxZW0iIHhtbDpzcGFjZT0icHJlc2VydmUiPlByb2N1cmUgbWF0ZXJpYWxzPC90c3Bhbj48L3RleHQ+PC9nPjwvZz48ZyB0cmFuc2Zvcm09InRyYW5zbGF0ZSgxMDQ3LjYyNDk4NDc0MTIxMDcsIDU1NC4zOTk5OTM4OTY0ODQ0KSIgZGF0YS1pZD0iTSIgZGF0YS1ub2RlPSJ0cnVlIiBpZD0iZmxvd2NoYXJ0LU0tMTAxMiIgY2xhc3M9Im5vZGUgZGVmYXVsdCBkZWZhdWx0IGZsb3djaGFydC1sYWJlbCI+PHJlY3QgaGVpZ2h0PSIzNC41IiB3aWR0aD0iMjE4LjM4MzMzMTI5ODgyODEyIiB5PSItMTcuMjUiIHg9Ii0xMDkuMTkxNjY1NjQ5NDE0MDYiIHJ5PSI1IiByeD0iNSIgc3R5bGU9IiIgY2xhc3M9ImJhc2ljIGxhYmVsLWNvbnRhaW5lciI+PC9yZWN0PjxnIHRyYW5zZm9ybT0idHJhbnNsYXRlKDAsIC05Ljc1KSIgc3R5bGU9IiIgY2xhc3M9ImxhYmVsIj48cmVjdD48L3JlY3Q+PHRleHQgc3R5bGU9IiI+PHRzcGFuIGNsYXNzPSJyb3ciIHg9IjAiIGR5PSIxZW0iIHhtbDpzcGFjZT0icHJlc2VydmUiPkNoYW5nZSBzdGF0dXMgdG8gSW4gUHJvZ3Jlc3M8L3RzcGFuPjwvdGV4dD48L2c+PC9nPjxnIHRyYW5zZm9ybT0idHJhbnNsYXRlKDEwNDcuNjI0OTg0NzQxMjEwNywgNzc2LjI3NDk5Mzg5NjQ4NDQpIiBkYXRhLWlkPSJOIiBkYXRhLW5vZGU9InRydWUiIGlkPSJmbG93Y2hhcnQtTi0xMDE2IiBjbGFzcz0ibm9kZSBkZWZhdWx0IGRlZmF1bHQgZmxvd2NoYXJ0LWxhYmVsIj48cG9seWdvbiBzdHlsZT0iIiB0cmFuc2Zvcm09InRyYW5zbGF0ZSgtMTQ0LjYyNSwxNDQuNjI1KSIgY2xhc3M9ImxhYmVsLWNvbnRhaW5lciIgcG9pbnRzPSIxNDQuNjI1LDAgMjg5LjI1LC0xNDQuNjI1IDE0NC42MjUsLTI4OS4yNSAwLC0xNDQuNjI1Ij48L3BvbHlnb24+PGcgdHJhbnNmb3JtPSJ0cmFuc2xhdGUoMCwgLTkuNzUpIiBzdHlsZT0iIiBjbGFzcz0ibGFiZWwiPjxyZWN0PjwvcmVjdD48dGV4dCBzdHlsZT0iIj48dHNwYW4gY2xhc3M9InJvdyIgeD0iMCIgZHk9IjFlbSIgeG1sOnNwYWNlPSJwcmVzZXJ2ZSI+RXh0ZXJuYWwgVmVuZG9yIHRvIHBlcmZvcm0gc3RlcD88L3RzcGFuPjwvdGV4dD48L2c+PC9nPjxnIHRyYW5zZm9ybT0idHJhbnNsYXRlKDEwNDcuNjI0OTg0NzQxMjEwNywgMTEyNS41OTE2NTk1NDU4OTg0KSIgZGF0YS1pZD0iTyIgZGF0YS1ub2RlPSJ0cnVlIiBpZD0iZmxvd2NoYXJ0LU8tMTAxOCIgY2xhc3M9Im5vZGUgZGVmYXVsdCBkZWZhdWx0IGZsb3djaGFydC1sYWJlbCI+PHJlY3QgaGVpZ2h0PSIzNC41IiB3aWR0aD0iMTM4Ljc1IiB5PSItMTcuMjUiIHg9Ii02OS4zNzUiIHJ5PSI1IiByeD0iNSIgc3R5bGU9IiIgY2xhc3M9ImJhc2ljIGxhYmVsLWNvbnRhaW5lciI+PC9yZWN0PjxnIHRyYW5zZm9ybT0idHJhbnNsYXRlKDAsIC05Ljc1KSIgc3R5bGU9IiIgY2xhc3M9ImxhYmVsIj48cmVjdD48L3JlY3Q+PHRleHQgc3R5bGU9IiI+PHRzcGFuIGNsYXNzPSJyb3ciIHg9IjAiIGR5PSIxZW0iIHhtbDpzcGFjZT0icHJlc2VydmUiPkFkZCB2ZW5kb3IgY29zdHM8L3RzcGFuPjwvdGV4dD48L2c+PC9nPjxnIHRyYW5zZm9ybT0idHJhbnNsYXRlKDc1MS41MzMzMjUxOTUzMTI0LCAxMTI1LjU5MTY1OTU0NTg5ODQpIiBkYXRhLWlkPSJQIiBkYXRhLW5vZGU9InRydWUiIGlkPSJmbG93Y2hhcnQtUC0xMDIwIiBjbGFzcz0ibm9kZSBkZWZhdWx0IGRlZmF1bHQgZmxvd2NoYXJ0LWxhYmVsIj48cG9seWdvbiBzdHlsZT0iIiB0cmFuc2Zvcm09InRyYW5zbGF0ZSgtOTYuMjQxNjY4NzAxMTcxODgsMTcuMjUpIiBjbGFzcz0ibGFiZWwtY29udGFpbmVyIiBwb2ludHM9IjUuNzUsMCAxODYuNzMzMzM3NDAyMzQzNzUsMCAyMDMuOTgzMzM3NDAyMzQzNzUsLTM0LjUgLTExLjUsLTM0LjUiPjwvcG9seWdvbj48ZyB0cmFuc2Zvcm09InRyYW5zbGF0ZSgwLCAtOS43NSkiIHN0eWxlPSIiIGNsYXNzPSJsYWJlbCI+PHJlY3Q+PC9yZWN0Pjx0ZXh0IHN0eWxlPSIiPjx0c3BhbiBjbGFzcz0icm93IiB4PSIwIiBkeT0iMWVtIiB4bWw6c3BhY2U9InByZXNlcnZlIj5QZXJmb3JtIHdvcmsgb3JkZXIgc3RlcDwvdHNwYW4+PC90ZXh0PjwvZz48L2c+PGcgdHJhbnNmb3JtPSJ0cmFuc2xhdGUoMTA0Ny42MjQ5ODQ3NDEyMTA3LCAxMjUzLjAzMzMyNTE5NTMxMjUpIiBkYXRhLWlkPSJRIiBkYXRhLW5vZGU9InRydWUiIGlkPSJmbG93Y2hhcnQtUS0xMDIyIiBjbGFzcz0ibm9kZSBkZWZhdWx0IGRlZmF1bHQgZmxvd2NoYXJ0LWxhYmVsIj48cmVjdCBoZWlnaHQ9IjM0LjUiIHdpZHRoPSIyMDEuNjkxNjY1NjQ5NDE0MDYiIHk9Ii0xNy4yNSIgeD0iLTEwMC44NDU4MzI4MjQ3MDcwMyIgcnk9IjE3LjI1IiByeD0iMTcuMjUiIHN0eWxlPSIiPjwvcmVjdD48ZyB0cmFuc2Zvcm09InRyYW5zbGF0ZSgwLCAtOS43NSkiIHN0eWxlPSIiIGNsYXNzPSJsYWJlbCI+PHJlY3Q+PC9yZWN0Pjx0ZXh0IHN0eWxlPSIiPjx0c3BhbiBjbGFzcz0icm93IiB4PSIwIiBkeT0iMWVtIiB4bWw6c3BhY2U9InByZXNlcnZlIj5TaGlwIG1hdGVyaWFscyB0byBWZW5kb3I8L3RzcGFuPjwvdGV4dD48L2c+PC9nPjxnIHRyYW5zZm9ybT0idHJhbnNsYXRlKDgzOC4wNzQ5ODkzMTg4NDc1LCAyMTk1Ljc1ODMxNjA0MDAzOSkiIGRhdGEtaWQ9IlIiIGRhdGEtbm9kZT0idHJ1ZSIgaWQ9ImZsb3djaGFydC1SLTEwMjQiIGNsYXNzPSJub2RlIGRlZmF1bHQgZGVmYXVsdCBmbG93Y2hhcnQtbGFiZWwiPjxwb2x5Z29uIHN0eWxlPSIiIHRyYW5zZm9ybT0idHJhbnNsYXRlKC0xMzcuOTc0OTk4NDc0MTIxMSwxMzcuOTc0OTk4NDc0MTIxMSkiIGNsYXNzPSJsYWJlbC1jb250YWluZXIiIHBvaW50cz0iMTM3Ljk3NDk5ODQ3NDEyMTEsMCAyNzUuOTQ5OTk2OTQ4MjQyMiwtMTM3Ljk3NDk5ODQ3NDEyMTEgMTM3Ljk3NDk5ODQ3NDEyMTEsLTI3NS45NDk5OTY5NDgyNDIyIDAsLTEzNy45NzQ5OTg0NzQxMjExIj48L3BvbHlnb24+PGcgdHJhbnNmb3JtPSJ0cmFuc2xhdGUoMCwgLTkuNzUpIiBzdHlsZT0iIiBjbGFzcz0ibGFiZWwiPjxyZWN0PjwvcmVjdD48dGV4dCBzdHlsZT0iIj48dHNwYW4gY2xhc3M9InJvdyIgeD0iMCIgZHk9IjFlbSIgeG1sOnNwYWNlPSJwcmVzZXJ2ZSI+QWRkaXRpb25hbCBwcm9jZXNzaW5nIHJlcXVpcmVkPzwvdHNwYW4+PC90ZXh0PjwvZz48L2c+PGcgdHJhbnNmb3JtPSJ0cmFuc2xhdGUoMTA0Ny42MjQ5ODQ3NDEyMTA3LCAxMzkwLjIyMjIwODY1ODg1NDIpIiBkYXRhLWlkPSJTIiBkYXRhLW5vZGU9InRydWUiIGlkPSJmbG93Y2hhcnQtUy0xMDI2IiBjbGFzcz0ibm9kZSBkZWZhdWx0IGRlZmF1bHQgZmxvd2NoYXJ0LWxhYmVsIj48cG9seWdvbiBzdHlsZT0iIiB0cmFuc2Zvcm09InRyYW5zbGF0ZSgtOTYuMjQxNjY4NzAxMTcxODgsMTcuMjUpIiBjbGFzcz0ibGFiZWwtY29udGFpbmVyIiBwb2ludHM9IjUuNzUsMCAxODYuNzMzMzM3NDAyMzQzNzUsMCAyMDMuOTgzMzM3NDAyMzQzNzUsLTM0LjUgLTExLjUsLTM0LjUiPjwvcG9seWdvbj48ZyB0cmFuc2Zvcm09InRyYW5zbGF0ZSgwLCAtOS43NSkiIHN0eWxlPSIiIGNsYXNzPSJsYWJlbCI+PHJlY3Q+PC9yZWN0Pjx0ZXh0IHN0eWxlPSIiPjx0c3BhbiBjbGFzcz0icm93IiB4PSIwIiBkeT0iMWVtIiB4bWw6c3BhY2U9InByZXNlcnZlIj5QZXJmb3JtIHdvcmsgb3JkZXIgc3RlcDwvdHNwYW4+PC90ZXh0PjwvZz48L2c+PGcgdHJhbnNmb3JtPSJ0cmFuc2xhdGUoMTA0Ni4wNTgzMTkwOTE3OTY5LCAxOTcwLjUzMzMwOTkzNjUyMzQpIiBkYXRhLWlkPSJYIiBkYXRhLW5vZGU9InRydWUiIGlkPSJmbG93Y2hhcnQtWC0xMDI3IiBjbGFzcz0ibm9kZSBkZWZhdWx0IGRlZmF1bHQgZmxvd2NoYXJ0LWxhYmVsIj48cmVjdCBoZWlnaHQ9IjM0LjUiIHdpZHRoPSIyMjQuODgzMzMxMjk4ODI4MTIiIHk9Ii0xNy4yNSIgeD0iLTExMi40NDE2NjU2NDk0MTQwNiIgcnk9IjAiIHJ4PSIwIiBzdHlsZT0iIiBjbGFzcz0iYmFzaWMgbGFiZWwtY29udGFpbmVyIj48L3JlY3Q+PGcgdHJhbnNmb3JtPSJ0cmFuc2xhdGUoMCwgLTkuNzUpIiBzdHlsZT0iIiBjbGFzcz0ibGFiZWwiPjxyZWN0PjwvcmVjdD48dGV4dCBzdHlsZT0iIj48dHNwYW4gY2xhc3M9InJvdyIgeD0iMCIgZHk9IjFlbSIgeG1sOnNwYWNlPSJwcmVzZXJ2ZSI+Q3JlYXRlIHdvcmsgb3JkZXIgYmFja29yZGVyPC90c3Bhbj48L3RleHQ+PC9nPjwvZz48ZyB0cmFuc2Zvcm09InRyYW5zbGF0ZSg2OTAuMDk5OTgzMjE1MzMxOSwgMjQ1MC40ODMzMjIxNDM1NTQ3KSIgZGF0YS1pZD0iVCIgZGF0YS1ub2RlPSJ0cnVlIiBpZD0iZmxvd2NoYXJ0LVQtMTAzMSIgY2xhc3M9Im5vZGUgZGVmYXVsdCBkZWZhdWx0IGZsb3djaGFydC1sYWJlbCI+PHJlY3QgaGVpZ2h0PSIzNC41IiB3aWR0aD0iMTUxLjU4MzMyODI0NzA3MDMiIHk9Ii0xNy4yNSIgeD0iLTc1Ljc5MTY2NDEyMzUzNTE2IiByeT0iNSIgcng9IjUiIHN0eWxlPSIiIGNsYXNzPSJiYXNpYyBsYWJlbC1jb250YWluZXIiPjwvcmVjdD48ZyB0cmFuc2Zvcm09InRyYW5zbGF0ZSgwLCAtOS43NSkiIHN0eWxlPSIiIGNsYXNzPSJsYWJlbCI+PHJlY3Q+PC9yZWN0Pjx0ZXh0IHN0eWxlPSIiPjx0c3BhbiBjbGFzcz0icm93IiB4PSIwIiBkeT0iMWVtIiB4bWw6c3BhY2U9InByZXNlcnZlIj5SZWNlaXZlIGZpbmFsIHN0b2NrPC90c3Bhbj48L3RleHQ+PC9nPjwvZz48ZyB0cmFuc2Zvcm09InRyYW5zbGF0ZSgxMDgzLjUzODg3NDMwODI2OCwgMTUyNi4wNjY2NTAzOTA2MjUpIiBkYXRhLWlkPSJVIiBkYXRhLW5vZGU9InRydWUiIGlkPSJmbG93Y2hhcnQtVS0xMDMzIiBjbGFzcz0ibm9kZSBkZWZhdWx0IGRlZmF1bHQgZmxvd2NoYXJ0LWxhYmVsIj48cmVjdCBoZWlnaHQ9IjM0LjUiIHdpZHRoPSIyMjUuMzMzMzI4MjQ3MDcwMyIgeT0iLTE3LjI1IiB4PSItMTEyLjY2NjY2NDEyMzUzNTE2IiByeT0iNSIgcng9IjUiIHN0eWxlPSIiIGNsYXNzPSJiYXNpYyBsYWJlbC1jb250YWluZXIiPjwvcmVjdD48ZyB0cmFuc2Zvcm09InRyYW5zbGF0ZSgwLCAtOS43NSkiIHN0eWxlPSIiIGNsYXNzPSJsYWJlbCI+PHJlY3Q+PC9yZWN0Pjx0ZXh0IHN0eWxlPSIiPjx0c3BhbiBjbGFzcz0icm93IiB4PSIwIiBkeT0iMWVtIiB4bWw6c3BhY2U9InByZXNlcnZlIj5SZWNlaXZlIHByb2R1Y3QgZnJvbSB2ZW5kb3I8L3RzcGFuPjwvdGV4dD48L2c+PC9nPjxnIHRyYW5zZm9ybT0idHJhbnNsYXRlKDY5MC4wOTk5ODMyMTUzMzE5LCAyNTA0Ljk4MzMyMjE0MzU1NDcpIiBkYXRhLWlkPSJWIiBkYXRhLW5vZGU9InRydWUiIGlkPSJmbG93Y2hhcnQtVi0xMDM1IiBjbGFzcz0ibm9kZSBkZWZhdWx0IGRlZmF1bHQgZmxvd2NoYXJ0LWxhYmVsIj48cmVjdCBoZWlnaHQ9IjM0LjUiIHdpZHRoPSIxNzMuMDY2NjY1NjQ5NDE0MDYiIHk9Ii0xNy4yNSIgeD0iLTg2LjUzMzMzMjgyNDcwNzAzIiByeT0iNSIgcng9IjUiIHN0eWxlPSIiIGNsYXNzPSJiYXNpYyBsYWJlbC1jb250YWluZXIiPjwvcmVjdD48ZyB0cmFuc2Zvcm09InRyYW5zbGF0ZSgwLCAtOS43NSkiIHN0eWxlPSIiIGNsYXNzPSJsYWJlbCI+PHJlY3Q+PC9yZWN0Pjx0ZXh0IHN0eWxlPSIiPjx0c3BhbiBjbGFzcz0icm93IiB4PSIwIiBkeT0iMWVtIiB4bWw6c3BhY2U9InByZXNlcnZlIj5TaGlwIHByb2R1Y3Qgb24gb3JkZXI8L3RzcGFuPjwvdGV4dD48L2c+PC9nPjxnIHRyYW5zZm9ybT0idHJhbnNsYXRlKDEwODMuNTM4ODc0MzA4MjY4LCAxNjgxLjA0OTk4MDE2MzU3NDIpIiBkYXRhLWlkPSJXIiBkYXRhLW5vZGU9InRydWUiIGlkPSJmbG93Y2hhcnQtVy0xMDM3IiBjbGFzcz0ibm9kZSBkZWZhdWx0IGRlZmF1bHQgZmxvd2NoYXJ0LWxhYmVsIj48cG9seWdvbiBzdHlsZT0iIiB0cmFuc2Zvcm09InRyYW5zbGF0ZSgtMTE3LjczMzMyOTc3Mjk0OTIyLDExNy43MzMzMjk3NzI5NDkyMikiIGNsYXNzPSJsYWJlbC1jb250YWluZXIiIHBvaW50cz0iMTE3LjczMzMyOTc3Mjk0OTIyLDAgMjM1LjQ2NjY1OTU0NTg5ODQ0LC0xMTcuNzMzMzI5NzcyOTQ5MjIgMTE3LjczMzMyOTc3Mjk0OTIyLC0yMzUuNDY2NjU5NTQ1ODk4NDQgMCwtMTE3LjczMzMyOTc3Mjk0OTIyIj48L3BvbHlnb24+PGcgdHJhbnNmb3JtPSJ0cmFuc2xhdGUoMCwgLTkuNzUpIiBzdHlsZT0iIiBjbGFzcz0ibGFiZWwiPjxyZWN0PjwvcmVjdD48dGV4dCBzdHlsZT0iIj48dHNwYW4gY2xhc3M9InJvdyIgeD0iMCIgZHk9IjFlbSIgeG1sOnNwYWNlPSJwcmVzZXJ2ZSI+UGFydGlhbCBxdWFudGl0eSByZWNlaXZlZD88L3RzcGFuPjwvdGV4dD48L2c+PC9nPjxnIHRyYW5zZm9ybT0idHJhbnNsYXRlKDY5MC4wOTk5ODMyMTUzMzE5LCAyNTU5LjQ4MzMyMjE0MzU1NDcpIiBkYXRhLWlkPSJZIiBkYXRhLW5vZGU9InRydWUiIGlkPSJmbG93Y2hhcnQtWS0xMDM5IiBjbGFzcz0ibm9kZSBkZWZhdWx0IGRlZmF1bHQgZmxvd2NoYXJ0LWxhYmVsIj48cmVjdCBoZWlnaHQ9IjM0LjUiIHdpZHRoPSIyMDguNjY2NjcxNzUyOTI5NyIgeT0iLTE3LjI1IiB4PSItMTA0LjMzMzMzNTg3NjQ2NDg0IiByeT0iNSIgcng9IjUiIHN0eWxlPSIiIGNsYXNzPSJiYXNpYyBsYWJlbC1jb250YWluZXIiPjwvcmVjdD48ZyB0cmFuc2Zvcm09InRyYW5zbGF0ZSgwLCAtOS43NSkiIHN0eWxlPSIiIGNsYXNzPSJsYWJlbCI+PHJlY3Q+PC9yZWN0Pjx0ZXh0IHN0eWxlPSIiPjx0c3BhbiBjbGFzcz0icm93IiB4PSIwIiBkeT0iMWVtIiB4bWw6c3BhY2U9InByZXNlcnZlIj5DaGFuZ2Ugc3RhdHVzIHRvIGNvbXBsZXRlPC90c3Bhbj48L3RleHQ+PC9nPjwvZz48ZyB0cmFuc2Zvcm09InRyYW5zbGF0ZSg4MzguMDc0OTg5MzE4ODQ3NSwgMTk3MC41MzMzMDk5MzY1MjM0KSIgZGF0YS1pZD0iWiIgZGF0YS1ub2RlPSJ0cnVlIiBpZD0iZmxvd2NoYXJ0LVotMTA0MyIgY2xhc3M9Im5vZGUgZGVmYXVsdCBkZWZhdWx0IGZsb3djaGFydC1sYWJlbCI+PHJlY3QgaGVpZ2h0PSIzNC41IiB3aWR0aD0iMTUxLjA4MzMyODI0NzA3MDMiIHk9Ii0xNy4yNSIgeD0iLTc1LjU0MTY2NDEyMzUzNTE2IiByeT0iNSIgcng9IjUiIHN0eWxlPSIiIGNsYXNzPSJiYXNpYyBsYWJlbC1jb250YWluZXIiPjwvcmVjdD48ZyB0cmFuc2Zvcm09InRyYW5zbGF0ZSgwLCAtOS43NSkiIHN0eWxlPSIiIGNsYXNzPSJsYWJlbCI+PHJlY3Q+PC9yZWN0Pjx0ZXh0IHN0eWxlPSIiPjx0c3BhbiBjbGFzcz0icm93IiB4PSIwIiBkeT0iMWVtIiB4bWw6c3BhY2U9InByZXNlcnZlIj5QYXkgdmVuZG9yIGludm9pY2U8L3RzcGFuPjwvdGV4dD48L2c+PC9nPjxnIHRyYW5zZm9ybT0idHJhbnNsYXRlKDY5MC4wOTk5ODMyMTUzMzE5LCAyNjEzLjk4MzMyMjE0MzU1NDcpIiBkYXRhLWlkPSJBQSIgZGF0YS1ub2RlPSJ0cnVlIiBpZD0iZmxvd2NoYXJ0LUFBLTEwNDciIGNsYXNzPSJub2RlIGRlZmF1bHQgZGVmYXVsdCBmbG93Y2hhcnQtbGFiZWwiPjxyZWN0IGhlaWdodD0iMzQuNSIgd2lkdGg9IjY3LjE0MTY2NjQxMjM1MzUyIiB5PSItMTcuMjUiIHg9Ii0zMy41NzA4MzMyMDYxNzY3NiIgcnk9IjE3LjI1IiByeD0iMTcuMjUiIHN0eWxlPSIiPjwvcmVjdD48ZyB0cmFuc2Zvcm09InRyYW5zbGF0ZSgwLCAtOS43NSkiIHN0eWxlPSIiIGNsYXNzPSJsYWJlbCI+PHJlY3Q+PC9yZWN0Pjx0ZXh0IHN0eWxlPSIiPjx0c3BhbiBjbGFzcz0icm93IiB4PSIwIiBkeT0iMWVtIiB4bWw6c3BhY2U9InByZXNlcnZlIj5GaW5pc2g8L3RzcGFuPjwvdGV4dD48L2c+PC9nPjwvZz48ZyBjbGFzcz0iZWRnZXMgZWRnZVBhdGgiPjxwYXRoIG1hcmtlci1lbmQ9InVybCgjZ2VNZXJtYWlkT3V0cHV0LTE3MTc3NjU2NDI4NDBfZmxvd2NoYXJ0LWVsay1wb2ludEVuZCkiIGZpbGw9Im5vbmUiIGNsYXNzPSJwYXRoIGZsb3djaGFydC1saW5rIExTLUEgTEUtQyIgZD0iTTI4NS4zMTcsOTc1LjRMMjg1LjMxNywxMDA1LjRMNTMzLjYsMTAwNS40TDUzMy42LDEwMzAuMSI+PC9wYXRoPjxnIHRyYW5zZm9ybT0idHJhbnNsYXRlKDAsIDApIiBjbGFzcz0iZWRnZUxhYmVsIj48dGV4dCBoZWlnaHQ9IjAiIHdpZHRoPSIwIiBzdHlsZT0iIj48dHNwYW4gY2xhc3M9InJvdyIgeD0iMCIgZHk9IjFlbSIgeG1sOnNwYWNlPSJwcmVzZXJ2ZSI+PC90c3Bhbj48L3RleHQ+PC9nPjxwYXRoIG1hcmtlci1lbmQ9InVybCgjZ2VNZXJtYWlkT3V0cHV0LTE3MTc3NjU2NDI4NDBfZmxvd2NoYXJ0LWVsay1wb2ludEVuZCkiIGZpbGw9Im5vbmUiIGNsYXNzPSJwYXRoIGZsb3djaGFydC1saW5rIExTLUIgTEUtQyIgZD0iTTUzMy42LDk3NS40TDUzMy42LDEwMzAuMSI+PC9wYXRoPjxnIHRyYW5zZm9ybT0idHJhbnNsYXRlKDAsIDApIiBjbGFzcz0iZWRnZUxhYmVsIj48dGV4dCBoZWlnaHQ9IjAiIHdpZHRoPSIwIiBzdHlsZT0iIj48dHNwYW4gY2xhc3M9InJvdyIgeD0iMCIgZHk9IjFlbSIgeG1sOnNwYWNlPSJwcmVzZXJ2ZSI+PC90c3Bhbj48L3RleHQ+PC9nPjxwYXRoIG1hcmtlci1lbmQ9InVybCgjZ2VNZXJtYWlkT3V0cHV0LTE3MTc3NjU2NDI4NDBfZmxvd2NoYXJ0LWVsay1wb2ludEVuZCkiIGZpbGw9Im5vbmUiIGNsYXNzPSJwYXRoIGZsb3djaGFydC1saW5rIExTLUMgTEUtRCIgZD0iTTUzMy42LDEyMTUuNzgzTDUzMy42LDEyODQuOTgzIj48L3BhdGg+PGcgdHJhbnNmb3JtPSJ0cmFuc2xhdGUoNTIxLjA5OTk5MDg0NDcyNjQsIDEyNDMuMjgzMzI1MTk1MzEyNSkiIGNsYXNzPSJlZGdlTGFiZWwiPjx0ZXh0IGhlaWdodD0iMTkuNSIgd2lkdGg9IjIyLjY0OTk5Mzg5NjQ4NDM3NSIgc3R5bGU9IiI+PHRzcGFuIGNsYXNzPSJyb3ciIHg9IjAiIGR5PSIxZW0iIHhtbDpzcGFjZT0icHJlc2VydmUiPlllczwvdHNwYW4+PC90ZXh0PjwvZz48cGF0aCBtYXJrZXItZW5kPSJ1cmwoI2dlTWVybWFpZE91dHB1dC0xNzE3NzY1NjQyODQwX2Zsb3djaGFydC1lbGstcG9pbnRFbmQpIiBmaWxsPSJub25lIiBjbGFzcz0icGF0aCBmbG93Y2hhcnQtbGluayBMUy1DIExFLUYiIGQ9Ik00NDMuNDA4LDExMjUuNTkyTDI1Ny4yMDgsMTEyNS41OTJMMjU3LjIwOCwxMzQ3Ij48L3BhdGg+PGcgdHJhbnNmb3JtPSJ0cmFuc2xhdGUoMjQ2LjcwODMyODI0NzA3MDMsIDEyNDMuMjgzMzI1MTk1MzEyNSkiIGNsYXNzPSJlZGdlTGFiZWwiPjx0ZXh0IGhlaWdodD0iMTkuNSIgd2lkdGg9IjE4LjgwMDAwMzA1MTc1NzgxMiIgc3R5bGU9IiI+PHRzcGFuIGNsYXNzPSJyb3ciIHg9IjAiIGR5PSIxZW0iIHhtbDpzcGFjZT0icHJlc2VydmUiPk5vPC90c3Bhbj48L3RleHQ+PC9nPjxwYXRoIG1hcmtlci1lbmQ9InVybCgjZ2VNZXJtYWlkT3V0cHV0LTE3MTc3NjU2NDI4NDBfZmxvd2NoYXJ0LWVsay1wb2ludEVuZCkiIGZpbGw9Im5vbmUiIGNsYXNzPSJwYXRoIGZsb3djaGFydC1saW5rIExTLUQgTEUtRSIgZD0iTTUzMy42LDE0NDguODE3TDUzMy42LDE2NTguNSI+PC9wYXRoPjxnIHRyYW5zZm9ybT0idHJhbnNsYXRlKDUyMS4wOTk5OTA4NDQ3MjY0LCAxNTE2LjMxNjY1MDM5MDYyNSkiIGNsYXNzPSJlZGdlTGFiZWwiPjx0ZXh0IGhlaWdodD0iMTkuNSIgd2lkdGg9IjIyLjY0OTk5Mzg5NjQ4NDM3NSIgc3R5bGU9IiI+PHRzcGFuIGNsYXNzPSJyb3ciIHg9IjAiIGR5PSIxZW0iIHhtbDpzcGFjZT0icHJlc2VydmUiPlllczwvdHNwYW4+PC90ZXh0PjwvZz48cGF0aCBtYXJrZXItZW5kPSJ1cmwoI2dlTWVybWFpZE91dHB1dC0xNzE3NzY1NjQyODQwX2Zsb3djaGFydC1lbGstcG9pbnRFbmQpIiBmaWxsPSJub25lIiBjbGFzcz0icGF0aCBmbG93Y2hhcnQtbGluayBMUy1EIExFLUciIGQ9Ik00NTQuMzMzLDEzNjkuNTVMNDEzLjQxNywxMzY5LjU1TDQxMy40MTcsMTgyOC43ODNMNDU4LjU2NywxODI4Ljc4M0w0NTguNTY3LDE4NTMuNDgzIj48L3BhdGg+PGcgdHJhbnNmb3JtPSJ0cmFuc2xhdGUoNDAyLjkxNjY1NjQ5NDE0MDUsIDE1MTYuMzE2NjUwMzkwNjI1KSIgY2xhc3M9ImVkZ2VMYWJlbCI+PHRleHQgaGVpZ2h0PSIxOS41IiB3aWR0aD0iMTguODAwMDAzMDUxNzU3ODEyIiBzdHlsZT0iIj48dHNwYW4gY2xhc3M9InJvdyIgeD0iMCIgZHk9IjFlbSIgeG1sOnNwYWNlPSJwcmVzZXJ2ZSI+Tm88L3RzcGFuPjwvdGV4dD48L2c+PHBhdGggbWFya2VyLWVuZD0idXJsKCNnZU1lcm1haWRPdXRwdXQtMTcxNzc2NTY0Mjg0MF9mbG93Y2hhcnQtZWxrLXBvaW50RW5kKSIgZmlsbD0ibm9uZSIgY2xhc3M9InBhdGggZmxvd2NoYXJ0LWxpbmsgTFMtRSBMRS1HIiBkPSJNNTMzLjYsMTY5OC4zTDUzMy42LDE4NTMuNDgzIj48L3BhdGg+PGcgdHJhbnNmb3JtPSJ0cmFuc2xhdGUoMCwgMCkiIGNsYXNzPSJlZGdlTGFiZWwiPjx0ZXh0IGhlaWdodD0iMCIgd2lkdGg9IjAiIHN0eWxlPSIiPjx0c3BhbiBjbGFzcz0icm93IiB4PSIwIiBkeT0iMWVtIiB4bWw6c3BhY2U9InByZXNlcnZlIj48L3RzcGFuPjwvdGV4dD48L2c+PHBhdGggbWFya2VyLWVuZD0idXJsKCNnZU1lcm1haWRPdXRwdXQtMTcxNzc2NTY0Mjg0MF9mbG93Y2hhcnQtZWxrLXBvaW50RW5kKSIgZmlsbD0ibm9uZSIgY2xhc3M9InBhdGggZmxvd2NoYXJ0LWxpbmsgTFMtRiBMRS1IIiBkPSJNMjU3LjIwOCwxMzg2LjhMMjU3LjIwOCwxNjU4LjUiPjwvcGF0aD48ZyB0cmFuc2Zvcm09InRyYW5zbGF0ZSgwLCAwKSIgY2xhc3M9ImVkZ2VMYWJlbCI+PHRleHQgaGVpZ2h0PSIwIiB3aWR0aD0iMCIgc3R5bGU9IiI+PHRzcGFuIGNsYXNzPSJyb3ciIHg9IjAiIGR5PSIxZW0iIHhtbDpzcGFjZT0icHJlc2VydmUiPjwvdHNwYW4+PC90ZXh0PjwvZz48cGF0aCBtYXJrZXItZW5kPSJ1cmwoI2dlTWVybWFpZE91dHB1dC0xNzE3NzY1NjQyODQwX2Zsb3djaGFydC1lbGstcG9pbnRFbmQpIiBmaWxsPSJub25lIiBjbGFzcz0icGF0aCBmbG93Y2hhcnQtbGluayBMUy1HIExFLUkiIGQ9Ik00OTYuMDgzLDE4OTMuMjgzTDQ5Ni4wODMsMTk0Ny45ODMiPjwvcGF0aD48ZyB0cmFuc2Zvcm09InRyYW5zbGF0ZSgwLCAwKSIgY2xhc3M9ImVkZ2VMYWJlbCI+PHRleHQgaGVpZ2h0PSIwIiB3aWR0aD0iMCIgc3R5bGU9IiI+PHRzcGFuIGNsYXNzPSJyb3ciIHg9IjAiIGR5PSIxZW0iIHhtbDpzcGFjZT0icHJlc2VydmUiPjwvdHNwYW4+PC90ZXh0PjwvZz48cGF0aCBtYXJrZXItZW5kPSJ1cmwoI2dlTWVybWFpZE91dHB1dC0xNzE3NzY1NjQyODQwX2Zsb3djaGFydC1lbGstcG9pbnRFbmQpIiBmaWxsPSJub25lIiBjbGFzcz0icGF0aCBmbG93Y2hhcnQtbGluayBMUy1IIExFLUoiIGQ9Ik0yNTcuMjA4LDE2OTguM0wyNTcuMjA4LDIwMTcuNzgzTDQ2My44OTMsMjAxNy43ODNMNDYzLjg5MywyMDUyLjQ4MyI+PC9wYXRoPjxnIHRyYW5zZm9ybT0idHJhbnNsYXRlKDAsIDApIiBjbGFzcz0iZWRnZUxhYmVsIj48dGV4dCBoZWlnaHQ9IjAiIHdpZHRoPSIwIiBzdHlsZT0iIj48dHNwYW4gY2xhc3M9InJvdyIgeD0iMCIgZHk9IjFlbSIgeG1sOnNwYWNlPSJwcmVzZXJ2ZSI+PC90c3Bhbj48L3RleHQ+PC9nPjxwYXRoIG1hcmtlci1lbmQ9InVybCgjZ2VNZXJtYWlkT3V0cHV0LTE3MTc3NjU2NDI4NDBfZmxvd2NoYXJ0LWVsay1wb2ludEVuZCkiIGZpbGw9Im5vbmUiIGNsYXNzPSJwYXRoIGZsb3djaGFydC1saW5rIExTLUkgTEUtSiIgZD0iTTQ5Ni4wODMsMTk4Ny43ODNMNDk2LjA4MywyMDUyLjQ4MyI+PC9wYXRoPjxnIHRyYW5zZm9ybT0idHJhbnNsYXRlKDAsIDApIiBjbGFzcz0iZWRnZUxhYmVsIj48dGV4dCBoZWlnaHQ9IjAiIHdpZHRoPSIwIiBzdHlsZT0iIj48dHNwYW4gY2xhc3M9InJvdyIgeD0iMCIgZHk9IjFlbSIgeG1sOnNwYWNlPSJwcmVzZXJ2ZSI+PC90c3Bhbj48L3RleHQ+PC9nPjxwYXRoIG1hcmtlci1lbmQ9InVybCgjZ2VNZXJtYWlkT3V0cHV0LTE3MTc3NjU2NDI4NDBfZmxvd2NoYXJ0LWVsay1wb2ludEVuZCkiIGZpbGw9Im5vbmUiIGNsYXNzPSJwYXRoIGZsb3djaGFydC1saW5rIExTLUogTEUtSyIgZD0iTTQzMS43MDMsMjA1Ny43ODNMNDMxLjcwMywyMDI3Ljc4M0wxMDAsMjAyNy43ODNMMTAwLDEwMEwxMDg0LjAyMiwxMDBMMTA4NC4wMjIsMTI0LjciPjwvcGF0aD48ZyB0cmFuc2Zvcm09InRyYW5zbGF0ZSgwLCAwKSIgY2xhc3M9ImVkZ2VMYWJlbCI+PHRleHQgaGVpZ2h0PSIwIiB3aWR0aD0iMCIgc3R5bGU9IiI+PHRzcGFuIGNsYXNzPSJyb3ciIHg9IjAiIGR5PSIxZW0iIHhtbDpzcGFjZT0icHJlc2VydmUiPjwvdHNwYW4+PC90ZXh0PjwvZz48cGF0aCBtYXJrZXItZW5kPSJ1cmwoI2dlTWVybWFpZE91dHB1dC0xNzE3NzY1NjQyODQwX2Zsb3djaGFydC1lbGstcG9pbnRFbmQpIiBmaWxsPSJub25lIiBjbGFzcz0icGF0aCBmbG93Y2hhcnQtbGluayBMUy1LIExFLUwiIGQ9Ik0xMDg0LjAyMiwzODMuMTVMMTA4NC4wMjIsNDM3LjM1Ij48L3BhdGg+PGcgdHJhbnNmb3JtPSJ0cmFuc2xhdGUoMTA3My41MjIyMDY2MjQzNDg3LCA0MDMuMTQ5OTkzODk2NDg0NCkiIGNsYXNzPSJlZGdlTGFiZWwiPjx0ZXh0IGhlaWdodD0iMTkuNSIgd2lkdGg9IjE4LjgwMDAwMzA1MTc1NzgxMiIgc3R5bGU9IiI+PHRzcGFuIGNsYXNzPSJyb3ciIHg9IjAiIGR5PSIxZW0iIHhtbDpzcGFjZT0icHJlc2VydmUiPk5vPC90c3Bhbj48L3RleHQ+PC9nPjxwYXRoIG1hcmtlci1lbmQ9InVybCgjZ2VNZXJtYWlkT3V0cHV0LTE3MTc3NjU2NDI4NDBfZmxvd2NoYXJ0LWVsay1wb2ludEVuZCkiIGZpbGw9Im5vbmUiIGNsYXNzPSJwYXRoIGZsb3djaGFydC1saW5rIExTLUsgTEUtTSIgZD0iTTk1Ny40NDcsMjU2LjU3NUw5NDcuNDQ3LDI1Ni41NzVMOTQ3LjQ0Nyw1MDcuMTVMMTAxMS4yMjgsNTA3LjE1TDEwMTEuMjI4LDUzMS44NSI+PC9wYXRoPjxnIHRyYW5zZm9ybT0idHJhbnNsYXRlKDkzNC45NDcyMDk2NzYxMDY2LCA0MDMuMTQ5OTkzODk2NDg0NCkiIGNsYXNzPSJlZGdlTGFiZWwiPjx0ZXh0IGhlaWdodD0iMTkuNSIgd2lkdGg9IjIyLjY0OTk5Mzg5NjQ4NDM3NSIgc3R5bGU9IiI+PHRzcGFuIGNsYXNzPSJyb3ciIHg9IjAiIGR5PSIxZW0iIHhtbDpzcGFjZT0icHJlc2VydmUiPlllczwvdHNwYW4+PC90ZXh0PjwvZz48cGF0aCBtYXJrZXItZW5kPSJ1cmwoI2dlTWVybWFpZE91dHB1dC0xNzE3NzY1NjQyODQwX2Zsb3djaGFydC1lbGstcG9pbnRFbmQpIiBmaWxsPSJub25lIiBjbGFzcz0icGF0aCBmbG93Y2hhcnQtbGluayBMUy1MIExFLU0iIGQ9Ik0xMDg0LjAyMiw0NzcuMTVMMTA4NC4wMjIsNTMxLjg1Ij48L3BhdGg+PGcgdHJhbnNmb3JtPSJ0cmFuc2xhdGUoMCwgMCkiIGNsYXNzPSJlZGdlTGFiZWwiPjx0ZXh0IGhlaWdodD0iMCIgd2lkdGg9IjAiIHN0eWxlPSIiPjx0c3BhbiBjbGFzcz0icm93IiB4PSIwIiBkeT0iMWVtIiB4bWw6c3BhY2U9InByZXNlcnZlIj48L3RzcGFuPjwvdGV4dD48L2c+PHBhdGggbWFya2VyLWVuZD0idXJsKCNnZU1lcm1haWRPdXRwdXQtMTcxNzc2NTY0Mjg0MF9mbG93Y2hhcnQtZWxrLXBvaW50RW5kKSIgZmlsbD0ibm9uZSIgY2xhc3M9InBhdGggZmxvd2NoYXJ0LWxpbmsgTFMtTSBMRS1OIiBkPSJNMTA0Ny42MjUsNTcxLjY1TDEwNDcuNjI1LDYyNi4zNSI+PC9wYXRoPjxnIHRyYW5zZm9ybT0idHJhbnNsYXRlKDAsIDApIiBjbGFzcz0iZWRnZUxhYmVsIj48dGV4dCBoZWlnaHQ9IjAiIHdpZHRoPSIwIiBzdHlsZT0iIj48dHNwYW4gY2xhc3M9InJvdyIgeD0iMCIgZHk9IjFlbSIgeG1sOnNwYWNlPSJwcmVzZXJ2ZSI+PC90c3Bhbj48L3RleHQ+PC9nPjxwYXRoIG1hcmtlci1lbmQ9InVybCgjZ2VNZXJtYWlkT3V0cHV0LTE3MTc3NjU2NDI4NDBfZmxvd2NoYXJ0LWVsay1wb2ludEVuZCkiIGZpbGw9Im5vbmUiIGNsYXNzPSJwYXRoIGZsb3djaGFydC1saW5rIExTLU4gTEUtTyIgZD0iTTEwNDcuNjI1LDkyMC45TDEwNDcuNjI1LDExMDMuMDQyIj48L3BhdGg+PGcgdHJhbnNmb3JtPSJ0cmFuc2xhdGUoMTAzNS4xMjQ5ODQ3NDEyMTA3LCA5NDguMzk5OTkzODk2NDg0NCkiIGNsYXNzPSJlZGdlTGFiZWwiPjx0ZXh0IGhlaWdodD0iMTkuNSIgd2lkdGg9IjIyLjY0OTk5Mzg5NjQ4NDM3NSIgc3R5bGU9IiI+PHRzcGFuIGNsYXNzPSJyb3ciIHg9IjAiIGR5PSIxZW0iIHhtbDpzcGFjZT0icHJlc2VydmUiPlllczwvdHNwYW4+PC90ZXh0PjwvZz48cGF0aCBtYXJrZXItZW5kPSJ1cmwoI2dlTWVybWFpZE91dHB1dC0xNzE3NzY1NjQyODQwX2Zsb3djaGFydC1lbGstcG9pbnRFbmQpIiBmaWxsPSJub25lIiBjbGFzcz0icGF0aCBmbG93Y2hhcnQtbGluayBMUy1OIExFLVAiIGQ9Ik05MDMsNzc2LjI3NUw3NTEuNTMzLDc3Ni4yNzVMNzUxLjUzMywxMTAzLjA0MiI+PC9wYXRoPjxnIHRyYW5zZm9ybT0idHJhbnNsYXRlKDc0MS4wMzMzMjUxOTUzMTI0LCA5NDguMzk5OTkzODk2NDg0NCkiIGNsYXNzPSJlZGdlTGFiZWwiPjx0ZXh0IGhlaWdodD0iMTkuNSIgd2lkdGg9IjE4LjgwMDAwMzA1MTc1NzgxMiIgc3R5bGU9IiI+PHRzcGFuIGNsYXNzPSJyb3ciIHg9IjAiIGR5PSIxZW0iIHhtbDpzcGFjZT0icHJlc2VydmUiPk5vPC90c3Bhbj48L3RleHQ+PC9nPjxwYXRoIG1hcmtlci1lbmQ9InVybCgjZ2VNZXJtYWlkT3V0cHV0LTE3MTc3NjU2NDI4NDBfZmxvd2NoYXJ0LWVsay1wb2ludEVuZCkiIGZpbGw9Im5vbmUiIGNsYXNzPSJwYXRoIGZsb3djaGFydC1saW5rIExTLU8gTEUtUSIgZD0iTTEwNDcuNjI1LDExNDIuODQyTDEwNDcuNjI1LDEyMzAuNDgzIj48L3BhdGg+PGcgdHJhbnNmb3JtPSJ0cmFuc2xhdGUoMCwgMCkiIGNsYXNzPSJlZGdlTGFiZWwiPjx0ZXh0IGhlaWdodD0iMCIgd2lkdGg9IjAiIHN0eWxlPSIiPjx0c3BhbiBjbGFzcz0icm93IiB4PSIwIiBkeT0iMWVtIiB4bWw6c3BhY2U9InByZXNlcnZlIj48L3RzcGFuPjwvdGV4dD48L2c+PHBhdGggbWFya2VyLWVuZD0idXJsKCNnZU1lcm1haWRPdXRwdXQtMTcxNzc2NTY0Mjg0MF9mbG93Y2hhcnQtZWxrLXBvaW50RW5kKSIgZmlsbD0ibm9uZSIgY2xhc3M9InBhdGggZmxvd2NoYXJ0LWxpbmsgTFMtUCBMRS1SIiBkPSJNNzUxLjUzMywxMTQyLjg0Mkw3NTEuNTMzLDIwMTcuNzgzTDgzOC4wNzUsMjAxNy43ODNMODM4LjA3NSwyMDUyLjQ4MyI+PC9wYXRoPjxnIHRyYW5zZm9ybT0idHJhbnNsYXRlKDAsIDApIiBjbGFzcz0iZWRnZUxhYmVsIj48dGV4dCBoZWlnaHQ9IjAiIHdpZHRoPSIwIiBzdHlsZT0iIj48dHNwYW4gY2xhc3M9InJvdyIgeD0iMCIgZHk9IjFlbSIgeG1sOnNwYWNlPSJwcmVzZXJ2ZSI+PC90c3Bhbj48L3RleHQ+PC9nPjxwYXRoIG1hcmtlci1lbmQ9InVybCgjZ2VNZXJtYWlkT3V0cHV0LTE3MTc3NjU2NDI4NDBfZmxvd2NoYXJ0LWVsay1wb2ludEVuZCkiIGZpbGw9Im5vbmUiIGNsYXNzPSJwYXRoIGZsb3djaGFydC1saW5rIExTLVEgTEUtUyIgZD0iTTEwNDcuNjI1LDEyNzAuMjgzTDEwNDcuNjI1LDEzNjcuNjcyIj48L3BhdGg+PGcgdHJhbnNmb3JtPSJ0cmFuc2xhdGUoMCwgMCkiIGNsYXNzPSJlZGdlTGFiZWwiPjx0ZXh0IGhlaWdodD0iMCIgd2lkdGg9IjAiIHN0eWxlPSIiPjx0c3BhbiBjbGFzcz0icm93IiB4PSIwIiBkeT0iMWVtIiB4bWw6c3BhY2U9InByZXNlcnZlIj48L3RzcGFuPjwvdGV4dD48L2c+PHBhdGggbWFya2VyLWVuZD0idXJsKCNnZU1lcm1haWRPdXRwdXQtMTcxNzc2NTY0Mjg0MF9mbG93Y2hhcnQtZWxrLXBvaW50RW5kKSIgZmlsbD0ibm9uZSIgY2xhc3M9InBhdGggZmxvd2NoYXJ0LWxpbmsgTFMtUyBMRS1YIiBkPSJNMTAxMS43MTEsMTQwNy40NzJMMTAxMS43MTEsMTQ3OC44MTdMOTU0LjgwNiwxNDc4LjgxN0w5NTQuODA2LDE5MjMuMjgzTDEwMDguNTc4LDE5MjMuMjgzTDEwMDguNTc4LDE5NDcuOTgzIj48L3BhdGg+PGcgdHJhbnNmb3JtPSJ0cmFuc2xhdGUoMCwgMCkiIGNsYXNzPSJlZGdlTGFiZWwiPjx0ZXh0IGhlaWdodD0iMCIgd2lkdGg9IjAiIHN0eWxlPSIiPjx0c3BhbiBjbGFzcz0icm93IiB4PSIwIiBkeT0iMWVtIiB4bWw6c3BhY2U9InByZXNlcnZlIj48L3RzcGFuPjwvdGV4dD48L2c+PHBhdGggbWFya2VyLWVuZD0idXJsKCNnZU1lcm1haWRPdXRwdXQtMTcxNzc2NTY0Mjg0MF9mbG93Y2hhcnQtZWxrLXBvaW50RW5kKSIgZmlsbD0ibm9uZSIgY2xhc3M9InBhdGggZmxvd2NoYXJ0LWxpbmsgTFMtUiBMRS1OIiBkPSJNODM4LjA3NSwyMzMzLjczM0w4MzguMDc1LDIzNjMuNzMzTDEyMTEuMjcyLDIzNjMuNzMzTDEyMTEuMjcyLDYwMS42NUwxMDQ3LjYyNSw2MDEuNjVMMTA0Ny42MjUsNjI2LjM1Ij48L3BhdGg+PGcgdHJhbnNmb3JtPSJ0cmFuc2xhdGUoMTE5OC43NzIyMDQwODEyMTczLCAxMzU5Ljc5OTk4Nzc5Mjk2ODgpIiBjbGFzcz0iZWRnZUxhYmVsIj48dGV4dCBoZWlnaHQ9IjE5LjUiIHdpZHRoPSIyMi42NDk5OTM4OTY0ODQzNzUiIHN0eWxlPSIiPjx0c3BhbiBjbGFzcz0icm93IiB4PSIwIiBkeT0iMWVtIiB4bWw6c3BhY2U9InByZXNlcnZlIj5ZZXM8L3RzcGFuPjwvdGV4dD48L2c+PHBhdGggbWFya2VyLWVuZD0idXJsKCNnZU1lcm1haWRPdXRwdXQtMTcxNzc2NTY0Mjg0MF9mbG93Y2hhcnQtZWxrLXBvaW50RW5kKSIgZmlsbD0ibm9uZSIgY2xhc3M9InBhdGggZmxvd2NoYXJ0LWxpbmsgTFMtUiBMRS1UIiBkPSJNNzAwLjEsMjE5NS43NThMNjkwLjEsMjE5NS43NThMNjkwLjEsMjQyNy45MzMiPjwvcGF0aD48ZyB0cmFuc2Zvcm09InRyYW5zbGF0ZSg2NzkuNTk5OTgzMjE1MzMxOSwgMjM5My43MzMzMjIxNDM1NTQ3KSIgY2xhc3M9ImVkZ2VMYWJlbCI+PHRleHQgaGVpZ2h0PSIxOS41IiB3aWR0aD0iMTguODAwMDAzMDUxNzU3ODEyIiBzdHlsZT0iIj48dHNwYW4gY2xhc3M9InJvdyIgeD0iMCIgZHk9IjFlbSIgeG1sOnNwYWNlPSJwcmVzZXJ2ZSI+Tm88L3RzcGFuPjwvdGV4dD48L2c+PHBhdGggbWFya2VyLWVuZD0idXJsKCNnZU1lcm1haWRPdXRwdXQtMTcxNzc2NTY0Mjg0MF9mbG93Y2hhcnQtZWxrLXBvaW50RW5kKSIgZmlsbD0ibm9uZSIgY2xhc3M9InBhdGggZmxvd2NoYXJ0LWxpbmsgTFMtUyBMRS1VIiBkPSJNMTA4My41MzksMTQwNy40NzJMMTA4My41MzksMTUwMy41MTciPjwvcGF0aD48ZyB0cmFuc2Zvcm09InRyYW5zbGF0ZSgwLCAwKSIgY2xhc3M9ImVkZ2VMYWJlbCI+PHRleHQgaGVpZ2h0PSIwIiB3aWR0aD0iMCIgc3R5bGU9IiI+PHRzcGFuIGNsYXNzPSJyb3ciIHg9IjAiIGR5PSIxZW0iIHhtbDpzcGFjZT0icHJlc2VydmUiPjwvdHNwYW4+PC90ZXh0PjwvZz48cGF0aCBtYXJrZXItZW5kPSJ1cmwoI2dlTWVybWFpZE91dHB1dC0xNzE3NzY1NjQyODQwX2Zsb3djaGFydC1lbGstcG9pbnRFbmQpIiBmaWxsPSJub25lIiBjbGFzcz0icGF0aCBmbG93Y2hhcnQtbGluayBMUy1UIExFLVYiIGQ9Ik02OTAuMSwyNDY3LjczM0w2OTAuMSwyNDgyLjQzMyI+PC9wYXRoPjxnIHRyYW5zZm9ybT0idHJhbnNsYXRlKDAsIDApIiBjbGFzcz0iZWRnZUxhYmVsIj48dGV4dCBoZWlnaHQ9IjAiIHdpZHRoPSIwIiBzdHlsZT0iIj48dHNwYW4gY2xhc3M9InJvdyIgeD0iMCIgZHk9IjFlbSIgeG1sOnNwYWNlPSJwcmVzZXJ2ZSI+PC90c3Bhbj48L3RleHQ+PC9nPjxwYXRoIG1hcmtlci1lbmQ9InVybCgjZ2VNZXJtYWlkT3V0cHV0LTE3MTc3NjU2NDI4NDBfZmxvd2NoYXJ0LWVsay1wb2ludEVuZCkiIGZpbGw9Im5vbmUiIGNsYXNzPSJwYXRoIGZsb3djaGFydC1saW5rIExTLVUgTEUtVyIgZD0iTTEwODMuNTM5LDE1NDMuMzE3TDEwODMuNTM5LDE1NTguMDE3Ij48L3BhdGg+PGcgdHJhbnNmb3JtPSJ0cmFuc2xhdGUoMCwgMCkiIGNsYXNzPSJlZGdlTGFiZWwiPjx0ZXh0IGhlaWdodD0iMCIgd2lkdGg9IjAiIHN0eWxlPSIiPjx0c3BhbiBjbGFzcz0icm93IiB4PSIwIiBkeT0iMWVtIiB4bWw6c3BhY2U9InByZXNlcnZlIj48L3RzcGFuPjwvdGV4dD48L2c+PHBhdGggbWFya2VyLWVuZD0idXJsKCNnZU1lcm1haWRPdXRwdXQtMTcxNzc2NTY0Mjg0MF9mbG93Y2hhcnQtZWxrLXBvaW50RW5kKSIgZmlsbD0ibm9uZSIgY2xhc3M9InBhdGggZmxvd2NoYXJ0LWxpbmsgTFMtViBMRS1ZIiBkPSJNNjkwLjEsMjUyMi4yMzNMNjkwLjEsMjUzNi45MzMiPjwvcGF0aD48ZyB0cmFuc2Zvcm09InRyYW5zbGF0ZSgwLCAwKSIgY2xhc3M9ImVkZ2VMYWJlbCI+PHRleHQgaGVpZ2h0PSIwIiB3aWR0aD0iMCIgc3R5bGU9IiI+PHRzcGFuIGNsYXNzPSJyb3ciIHg9IjAiIGR5PSIxZW0iIHhtbDpzcGFjZT0icHJlc2VydmUiPjwvdHNwYW4+PC90ZXh0PjwvZz48cGF0aCBtYXJrZXItZW5kPSJ1cmwoI2dlTWVybWFpZE91dHB1dC0xNzE3NzY1NjQyODQwX2Zsb3djaGFydC1lbGstcG9pbnRFbmQpIiBmaWxsPSJub25lIiBjbGFzcz0icGF0aCBmbG93Y2hhcnQtbGluayBMUy1XIExFLVgiIGQ9Ik0xMDgzLjUzOSwxNzk4Ljc4M0wxMDgzLjUzOSwxOTQ3Ljk4MyI+PC9wYXRoPjxnIHRyYW5zZm9ybT0idHJhbnNsYXRlKDEwNzEuMDM4ODc0MzA4MjY4LCAxODY2LjI4MzMwOTkzNjUyMzQpIiBjbGFzcz0iZWRnZUxhYmVsIj48dGV4dCBoZWlnaHQ9IjE5LjUiIHdpZHRoPSIyMi42NDk5OTM4OTY0ODQzNzUiIHN0eWxlPSIiPjx0c3BhbiBjbGFzcz0icm93IiB4PSIwIiBkeT0iMWVtIiB4bWw6c3BhY2U9InByZXNlcnZlIj5ZZXM8L3RzcGFuPjwvdGV4dD48L2c+PHBhdGggbWFya2VyLWVuZD0idXJsKCNnZU1lcm1haWRPdXRwdXQtMTcxNzc2NTY0Mjg0MF9mbG93Y2hhcnQtZWxrLXBvaW50RW5kKSIgZmlsbD0ibm9uZSIgY2xhc3M9InBhdGggZmxvd2NoYXJ0LWxpbmsgTFMtVyBMRS1aIiBkPSJNOTY1LjgwNiwxNjgxLjA1TDgzOC4wNzUsMTY4MS4wNUw4MzguMDc1LDE5NDcuOTgzIj48L3BhdGg+PGcgdHJhbnNmb3JtPSJ0cmFuc2xhdGUoODI3LjU3NDk4OTMxODg0NzUsIDE4NjYuMjgzMzA5OTM2NTIzNCkiIGNsYXNzPSJlZGdlTGFiZWwiPjx0ZXh0IGhlaWdodD0iMTkuNSIgd2lkdGg9IjE4LjgwMDAwMzA1MTc1NzgxMiIgc3R5bGU9IiI+PHRzcGFuIGNsYXNzPSJyb3ciIHg9IjAiIGR5PSIxZW0iIHhtbDpzcGFjZT0icHJlc2VydmUiPk5vPC90c3Bhbj48L3RleHQ+PC9nPjxwYXRoIG1hcmtlci1lbmQ9InVybCgjZ2VNZXJtYWlkT3V0cHV0LTE3MTc3NjU2NDI4NDBfZmxvd2NoYXJ0LWVsay1wb2ludEVuZCkiIGZpbGw9Im5vbmUiIGNsYXNzPSJwYXRoIGZsb3djaGFydC1saW5rIExTLVggTEUtSiIgZD0iTTEwNDYuMDU4LDE5ODcuNzgzTDEwNDYuMDU4LDIwMjcuNzgzTDUyOC4yNzMsMjAyNy43ODNMNTI4LjI3MywyMDUyLjQ4MyI+PC9wYXRoPjxnIHRyYW5zZm9ybT0idHJhbnNsYXRlKDAsIDApIiBjbGFzcz0iZWRnZUxhYmVsIj48dGV4dCBoZWlnaHQ9IjAiIHdpZHRoPSIwIiBzdHlsZT0iIj48dHNwYW4gY2xhc3M9InJvdyIgeD0iMCIgZHk9IjFlbSIgeG1sOnNwYWNlPSJwcmVzZXJ2ZSI+PC90c3Bhbj48L3RleHQ+PC9nPjxwYXRoIG1hcmtlci1lbmQ9InVybCgjZ2VNZXJtYWlkT3V0cHV0LTE3MTc3NjU2NDI4NDBfZmxvd2NoYXJ0LWVsay1wb2ludEVuZCkiIGZpbGw9Im5vbmUiIGNsYXNzPSJwYXRoIGZsb3djaGFydC1saW5rIExTLVkgTEUtQUEiIGQ9Ik02OTAuMSwyNTc2LjczM0w2OTAuMSwyNTkxLjQzMyI+PC9wYXRoPjxnIHRyYW5zZm9ybT0idHJhbnNsYXRlKDAsIDApIiBjbGFzcz0iZWRnZUxhYmVsIj48dGV4dCBoZWlnaHQ9IjAiIHdpZHRoPSIwIiBzdHlsZT0iIj48dHNwYW4gY2xhc3M9InJvdyIgeD0iMCIgZHk9IjFlbSIgeG1sOnNwYWNlPSJwcmVzZXJ2ZSI+PC90c3Bhbj48L3RleHQ+PC9nPjxwYXRoIG1hcmtlci1lbmQ9InVybCgjZ2VNZXJtYWlkT3V0cHV0LTE3MTc3NjU2NDI4NDBfZmxvd2NoYXJ0LWVsay1wb2ludEVuZCkiIGZpbGw9Im5vbmUiIGNsYXNzPSJwYXRoIGZsb3djaGFydC1saW5rIExTLVogTEUtUiIgZD0iTTgzOC4wNzUsMTk4Ny43ODNMODM4LjA3NSwyMDUyLjQ4MyI+PC9wYXRoPjxnIHRyYW5zZm9ybT0idHJhbnNsYXRlKDAsIDApIiBjbGFzcz0iZWRnZUxhYmVsIj48dGV4dCBoZWlnaHQ9IjAiIHdpZHRoPSIwIiBzdHlsZT0iIj48dHNwYW4gY2xhc3M9InJvdyIgeD0iMCIgZHk9IjFlbSIgeG1sOnNwYWNlPSJwcmVzZXJ2ZSI+PC90c3Bhbj48L3RleHQ+PC9nPjwvZz48ZyBjbGFzcz0iZWRnZUxhYmVscyI+PGcgY2xhc3M9ImVkZ2VMYWJlbCI+PGcgdHJhbnNmb3JtPSJ0cmFuc2xhdGUoMCwgMCkiIGNsYXNzPSJsYWJlbCI+PC9nPjwvZz48ZyBjbGFzcz0iZWRnZUxhYmVsIj48ZyB0cmFuc2Zvcm09InRyYW5zbGF0ZSgwLCAwKSIgY2xhc3M9ImxhYmVsIj48L2c+PC9nPjxnIGNsYXNzPSJlZGdlTGFiZWwiPjxnIHRyYW5zZm9ybT0idHJhbnNsYXRlKC0xMi4zMjQ5OTk4MDkyNjUxMzcsIC05Ljc1KSIgY2xhc3M9ImxhYmVsIj48L2c+PC9nPjxnIGNsYXNzPSJlZGdlTGFiZWwiPjxnIHRyYW5zZm9ybT0idHJhbnNsYXRlKC0xMC4zOTk5OTk2MTg1MzAyNzMsIC05Ljc1KSIgY2xhc3M9ImxhYmVsIj48L2c+PC9nPjxnIGNsYXNzPSJlZGdlTGFiZWwiPjxnIHRyYW5zZm9ybT0idHJhbnNsYXRlKC0xMi4zMjQ5OTk4MDkyNjUxMzcsIC05Ljc1KSIgY2xhc3M9ImxhYmVsIj48L2c+PC9nPjxnIGNsYXNzPSJlZGdlTGFiZWwiPjxnIHRyYW5zZm9ybT0idHJhbnNsYXRlKC0xMC4zOTk5OTk2MTg1MzAyNzMsIC05Ljc1KSIgY2xhc3M9ImxhYmVsIj48L2c+PC9nPjxnIGNsYXNzPSJlZGdlTGFiZWwiPjxnIHRyYW5zZm9ybT0idHJhbnNsYXRlKDAsIDApIiBjbGFzcz0ibGFiZWwiPjwvZz48L2c+PGcgY2xhc3M9ImVkZ2VMYWJlbCI+PGcgdHJhbnNmb3JtPSJ0cmFuc2xhdGUoMCwgMCkiIGNsYXNzPSJsYWJlbCI+PC9nPjwvZz48ZyBjbGFzcz0iZWRnZUxhYmVsIj48ZyB0cmFuc2Zvcm09InRyYW5zbGF0ZSgwLCAwKSIgY2xhc3M9ImxhYmVsIj48L2c+PC9nPjxnIGNsYXNzPSJlZGdlTGFiZWwiPjxnIHRyYW5zZm9ybT0idHJhbnNsYXRlKDAsIDApIiBjbGFzcz0ibGFiZWwiPjwvZz48L2c+PGcgY2xhc3M9ImVkZ2VMYWJlbCI+PGcgdHJhbnNmb3JtPSJ0cmFuc2xhdGUoMCwgMCkiIGNsYXNzPSJsYWJlbCI+PC9nPjwvZz48ZyBjbGFzcz0iZWRnZUxhYmVsIj48ZyB0cmFuc2Zvcm09InRyYW5zbGF0ZSgwLCAwKSIgY2xhc3M9ImxhYmVsIj48L2c+PC9nPjxnIGNsYXNzPSJlZGdlTGFiZWwiPjxnIHRyYW5zZm9ybT0idHJhbnNsYXRlKC0xMC4zOTk5OTk2MTg1MzAyNzMsIC05Ljc1KSIgY2xhc3M9ImxhYmVsIj48L2c+PC9nPjxnIGNsYXNzPSJlZGdlTGFiZWwiPjxnIHRyYW5zZm9ybT0idHJhbnNsYXRlKC0xMi4zMjQ5OTk4MDkyNjUxMzcsIC05Ljc1KSIgY2xhc3M9ImxhYmVsIj48L2c+PC9nPjxnIGNsYXNzPSJlZGdlTGFiZWwiPjxnIHRyYW5zZm9ybT0idHJhbnNsYXRlKDAsIDApIiBjbGFzcz0ibGFiZWwiPjwvZz48L2c+PGcgY2xhc3M9ImVkZ2VMYWJlbCI+PGcgdHJhbnNmb3JtPSJ0cmFuc2xhdGUoMCwgMCkiIGNsYXNzPSJsYWJlbCI+PC9nPjwvZz48ZyBjbGFzcz0iZWRnZUxhYmVsIj48ZyB0cmFuc2Zvcm09InRyYW5zbGF0ZSgtMTIuMzI0OTk5ODA5MjY1MTM3LCAtOS43NSkiIGNsYXNzPSJsYWJlbCI+PC9nPjwvZz48ZyBjbGFzcz0iZWRnZUxhYmVsIj48ZyB0cmFuc2Zvcm09InRyYW5zbGF0ZSgtMTAuMzk5OTk5NjE4NTMwMjczLCAtOS43NSkiIGNsYXNzPSJsYWJlbCI+PC9nPjwvZz48ZyBjbGFzcz0iZWRnZUxhYmVsIj48ZyB0cmFuc2Zvcm09InRyYW5zbGF0ZSgwLCAwKSIgY2xhc3M9ImxhYmVsIj48L2c+PC9nPjxnIGNsYXNzPSJlZGdlTGFiZWwiPjxnIHRyYW5zZm9ybT0idHJhbnNsYXRlKDAsIDApIiBjbGFzcz0ibGFiZWwiPjwvZz48L2c+PGcgY2xhc3M9ImVkZ2VMYWJlbCI+PGcgdHJhbnNmb3JtPSJ0cmFuc2xhdGUoMCwgMCkiIGNsYXNzPSJsYWJlbCI+PC9nPjwvZz48ZyBjbGFzcz0iZWRnZUxhYmVsIj48ZyB0cmFuc2Zvcm09InRyYW5zbGF0ZSgwLCAwKSIgY2xhc3M9ImxhYmVsIj48L2c+PC9nPjxnIGNsYXNzPSJlZGdlTGFiZWwiPjxnIHRyYW5zZm9ybT0idHJhbnNsYXRlKC0xMi4zMjQ5OTk4MDkyNjUxMzcsIC05Ljc1KSIgY2xhc3M9ImxhYmVsIj48L2c+PC9nPjxnIGNsYXNzPSJlZGdlTGFiZWwiPjxnIHRyYW5zZm9ybT0idHJhbnNsYXRlKC0xMC4zOTk5OTk2MTg1MzAyNzMsIC05Ljc1KSIgY2xhc3M9ImxhYmVsIj48L2c+PC9nPjxnIGNsYXNzPSJlZGdlTGFiZWwiPjxnIHRyYW5zZm9ybT0idHJhbnNsYXRlKDAsIDApIiBjbGFzcz0ibGFiZWwiPjwvZz48L2c+PGcgY2xhc3M9ImVkZ2VMYWJlbCI+PGcgdHJhbnNmb3JtPSJ0cmFuc2xhdGUoMCwgMCkiIGNsYXNzPSJsYWJlbCI+PC9nPjwvZz48ZyBjbGFzcz0iZWRnZUxhYmVsIj48ZyB0cmFuc2Zvcm09InRyYW5zbGF0ZSgwLCAwKSIgY2xhc3M9ImxhYmVsIj48L2c+PC9nPjxnIGNsYXNzPSJlZGdlTGFiZWwiPjxnIHRyYW5zZm9ybT0idHJhbnNsYXRlKDAsIDApIiBjbGFzcz0ibGFiZWwiPjwvZz48L2c+PGcgY2xhc3M9ImVkZ2VMYWJlbCI+PGcgdHJhbnNmb3JtPSJ0cmFuc2xhdGUoLTEyLjMyNDk5OTgwOTI2NTEzNywgLTkuNzUpIiBjbGFzcz0ibGFiZWwiPjwvZz48L2c+PGcgY2xhc3M9ImVkZ2VMYWJlbCI+PGcgdHJhbnNmb3JtPSJ0cmFuc2xhdGUoLTEwLjM5OTk5OTYxODUzMDI3MywgLTkuNzUpIiBjbGFzcz0ibGFiZWwiPjwvZz48L2c+PGcgY2xhc3M9ImVkZ2VMYWJlbCI+PGcgdHJhbnNmb3JtPSJ0cmFuc2xhdGUoMCwgMCkiIGNsYXNzPSJsYWJlbCI+PC9nPjwvZz48ZyBjbGFzcz0iZWRnZUxhYmVsIj48ZyB0cmFuc2Zvcm09InRyYW5zbGF0ZSgwLCAwKSIgY2xhc3M9ImxhYmVsIj48L2c+PC9nPjxnIGNsYXNzPSJlZGdlTGFiZWwiPjxnIHRyYW5zZm9ybT0idHJhbnNsYXRlKDAsIDApIiBjbGFzcz0ibGFiZWwiPjwvZz48L2c+PC9nPjwvc3ZnPg==;" vertex="1" parent="1">
            <mxGeometry x="890" y="-130" width="1509.02" height="2977.73" as="geometry" />
          </mxCell>
        </UserObject>
        <mxCell id="p9kckb_51DY-2ua_rgum-1" value="&lt;div&gt;&lt;div&gt;&lt;b&gt;Mermaid syntax for this diagram&lt;/b&gt;&lt;/div&gt;&lt;/div&gt;&lt;div&gt;&lt;br&gt;&lt;/div&gt;&lt;div&gt;%%{init: {&quot;flowchart&quot;: {&quot;defaultRenderer&quot;: &quot;elk&quot;}} }%%&lt;/div&gt;&lt;br&gt;graph TD&lt;br&gt;&amp;nbsp; A[\Replenish Value Add stock/] ---&amp;gt;C&lt;br&gt;&amp;nbsp; B(Order product with Value Add) ---&amp;gt;C&lt;br&gt;&amp;nbsp; C{Frequent process?} ---&amp;gt;|Yes|D &lt;br&gt;&amp;nbsp; C ---&amp;gt;|No|F&lt;br&gt;&amp;nbsp; D{New template?} ---&amp;gt;|Yes|E &lt;br&gt;&amp;nbsp; D ---&amp;gt;|No|G&lt;br&gt;&amp;nbsp; E(Create work order template) ---&amp;gt;G&lt;br&gt;&amp;nbsp; F(Create work order) ---&amp;gt;H&lt;br&gt;&amp;nbsp; G(Copy template to work order) ---&amp;gt;I&lt;br&gt;&amp;nbsp; H(Add materials to work order processes) ---&amp;gt;J&lt;br&gt;&amp;nbsp; I(Adjust material quantities) ---&amp;gt;J&lt;br&gt;&amp;nbsp; J(Monitor work orders) ---&amp;gt;K&lt;br&gt;&amp;nbsp; K{Material quantities in stock?} ---&amp;gt;|No|L &lt;br&gt;&amp;nbsp; K ---&amp;gt;|Yes|M&lt;br&gt;&amp;nbsp; L(Procure materials) ---&amp;gt;M&lt;br&gt;&amp;nbsp; M(Change status to In Progress) ---&amp;gt;N&lt;br&gt;&amp;nbsp; N{External Vendor to perform step?} ---&amp;gt;|Yes|O &lt;br&gt;&amp;nbsp; N ---&amp;gt;|No|P&lt;br&gt;&amp;nbsp; O(Add vendor costs) ---&amp;gt;Q&lt;br&gt;&amp;nbsp; P[\Perform work order step/] ---&amp;gt;R&lt;br&gt;&amp;nbsp; Q([Ship materials to Vendor]) ---&amp;gt;S ---&amp;gt;X&lt;br&gt;&amp;nbsp; R{Additional processing required?} ---&amp;gt;|Yes|N &lt;br&gt;&amp;nbsp; R---&amp;gt;|No|T&lt;br&gt;&amp;nbsp; S[\Perform work order step/] ---&amp;gt;U&lt;br&gt;&amp;nbsp; T(Receive final stock) ---&amp;gt;V&lt;br&gt;&amp;nbsp; U(Receive product from vendor) ---&amp;gt;W&lt;br&gt;&amp;nbsp; V(Ship product on order) ---&amp;gt;Y&lt;br&gt;&lt;div&gt;&amp;nbsp; W{Partial quantity received?} ---&amp;gt;|Yes|X &lt;/div&gt;&amp;nbsp; W ---&amp;gt;|No|Z&lt;br&gt;&amp;nbsp; X[Create work order backorder] ---&amp;gt; J&lt;br&gt;&amp;nbsp; Y(Change status to complete) ---&amp;gt;AA&lt;br&gt;&amp;nbsp; Z(Pay vendor invoice) ---&amp;gt;R&lt;br&gt;&amp;nbsp; AA([Finish])" style="text;html=1;align=left;verticalAlign=middle;whiteSpace=wrap;rounded=0;fontSize=16;" vertex="1" parent="1">
          <mxGeometry x="2380" y="410" width="630" height="800" as="geometry" />
        </mxCell>
      </root>
    </mxGraphModel>
  </diagram>
  <diagram id="7Aq5yognYTswJZ5nZ0vh" name="mermaid-flow">
    <mxGraphModel dx="2298" dy="3799" grid="1" gridSize="10" guides="1" tooltips="1" connect="1" arrows="1" fold="1" page="0" pageScale="1" pageWidth="850" pageHeight="1100" math="0" shadow="0">
      <root>
        <mxCell id="0" />
        <mxCell id="1" parent="0" />
        <UserObject label="" mermaidData="{&#xa;  &quot;data&quot;: &quot;graph TD\n  A[\\Replenish Value Add stock/] ---&gt;C\n  B(Order product with Value Add) ---&gt;C\n  C{Frequent process?} ---&gt;|Yes|D \n  C ---&gt;|No|F\n  D{New template?} ---&gt;|Yes|E \n  D ---&gt;|No|G\n  E(Create work order template) ---&gt;G\n  F(Create work order) ---&gt;H\n  G(Copy template to work order) ---&gt;I\n  H(Add materials to work order processes) ---&gt;J\n  I(Adjust material quantities) ---&gt;J\n  J(Monitor work orders) ---&gt;K\n  K{Material quantities in stock?} ---&gt;|No|L \n  K ---&gt;|Yes|M\n  L(Procure materials) ---&gt;M\n  M(Change status to In Progress) ---&gt;N\n  N{External Vendor to perform step?} ---&gt;|Yes|O \n  N ---&gt;|No|P\n  O(Add vendor costs) ---&gt;Q\n  P[\\Perform work order step/] ---&gt;R\n  Q([Ship materials to Vendor]) ---&gt;S ---&gt;X\n  R{Additional processing required?} ---&gt;|Yes|N \n  R---&gt;|No|T\n  S[\\Perform work order step/] ---&gt;U\n  T(Receive final stock) ---&gt;V\n  U(Receive product from vendor) ---&gt;W\n  V(Ship product on order) ---&gt;Y\n  W{Partial quantity received?} ---&gt;|Yes|X \n  W ---&gt;|No|Z\n  X[Create work order backorder] ---&gt; J\n  Y(Change status to complete) ---&gt;AA\n  Z(Pay vendor invoice) ---&gt;R\n  AA([Finish])&quot;&#xa;}" id="CKn8X13BXY82JOxM3DHZ-1">
          <mxCell style="shape=image;noLabel=1;verticalAlign=top;imageAspect=1;image=data:image/svg+xml,PHN2ZyBhcmlhLXJvbGVkZXNjcmlwdGlvbj0iZmxvd2NoYXJ0LXYyIiByb2xlPSJncmFwaGljcy1kb2N1bWVudCBkb2N1bWVudCIgdmlld0JveD0iLTggLTggNzg3LjcyOTEyNTk3NjU2MjUgNDE5Ny4yMzMzOTg0Mzc1IiBzdHlsZT0ibWF4LXdpZHRoOiA3ODcuNzI5MTI1OTc2NTYyNXB4OyIgeG1sbnM9Imh0dHA6Ly93d3cudzMub3JnLzIwMDAvc3ZnIiB3aWR0aD0iMTAwJSIgaWQ9ImdlTWVybWFpZE91dHB1dC0xNzE3NzY1Njg4MjczIj48c3R5bGU+I2dlTWVybWFpZE91dHB1dC0xNzE3NzY1Njg4Mjcze2ZvbnQtZmFtaWx5OiJ0cmVidWNoZXQgbXMiLHZlcmRhbmEsYXJpYWwsc2Fucy1zZXJpZjtmb250LXNpemU6MTZweDtmaWxsOiMwMDAwMDA7fSNnZU1lcm1haWRPdXRwdXQtMTcxNzc2NTY4ODI3MyAuZXJyb3ItaWNvbntmaWxsOiM1NTIyMjI7fSNnZU1lcm1haWRPdXRwdXQtMTcxNzc2NTY4ODI3MyAuZXJyb3ItdGV4dHtmaWxsOiM1NTIyMjI7c3Ryb2tlOiM1NTIyMjI7fSNnZU1lcm1haWRPdXRwdXQtMTcxNzc2NTY4ODI3MyAuZWRnZS10aGlja25lc3Mtbm9ybWFse3N0cm9rZS13aWR0aDoycHg7fSNnZU1lcm1haWRPdXRwdXQtMTcxNzc2NTY4ODI3MyAuZWRnZS10aGlja25lc3MtdGhpY2t7c3Ryb2tlLXdpZHRoOjMuNXB4O30jZ2VNZXJtYWlkT3V0cHV0LTE3MTc3NjU2ODgyNzMgLmVkZ2UtcGF0dGVybi1zb2xpZHtzdHJva2UtZGFzaGFycmF5OjA7fSNnZU1lcm1haWRPdXRwdXQtMTcxNzc2NTY4ODI3MyAuZWRnZS1wYXR0ZXJuLWRhc2hlZHtzdHJva2UtZGFzaGFycmF5OjM7fSNnZU1lcm1haWRPdXRwdXQtMTcxNzc2NTY4ODI3MyAuZWRnZS1wYXR0ZXJuLWRvdHRlZHtzdHJva2UtZGFzaGFycmF5OjI7fSNnZU1lcm1haWRPdXRwdXQtMTcxNzc2NTY4ODI3MyAubWFya2Vye2ZpbGw6IzY2NjtzdHJva2U6IzY2Njt9I2dlTWVybWFpZE91dHB1dC0xNzE3NzY1Njg4MjczIC5tYXJrZXIuY3Jvc3N7c3Ryb2tlOiM2NjY7fSNnZU1lcm1haWRPdXRwdXQtMTcxNzc2NTY4ODI3MyBzdmd7Zm9udC1mYW1pbHk6InRyZWJ1Y2hldCBtcyIsdmVyZGFuYSxhcmlhbCxzYW5zLXNlcmlmO2ZvbnQtc2l6ZToxNnB4O30jZ2VNZXJtYWlkT3V0cHV0LTE3MTc3NjU2ODgyNzMgLmxhYmVse2ZvbnQtZmFtaWx5OiJ0cmVidWNoZXQgbXMiLHZlcmRhbmEsYXJpYWwsc2Fucy1zZXJpZjtjb2xvcjojMDAwMDAwO30jZ2VNZXJtYWlkT3V0cHV0LTE3MTc3NjU2ODgyNzMgLmNsdXN0ZXItbGFiZWwgdGV4dHtmaWxsOiMzMzM7fSNnZU1lcm1haWRPdXRwdXQtMTcxNzc2NTY4ODI3MyAuY2x1c3Rlci1sYWJlbCBzcGFuLCNnZU1lcm1haWRPdXRwdXQtMTcxNzc2NTY4ODI3MyBwe2NvbG9yOiMzMzM7fSNnZU1lcm1haWRPdXRwdXQtMTcxNzc2NTY4ODI3MyAubGFiZWwgdGV4dCwjZ2VNZXJtYWlkT3V0cHV0LTE3MTc3NjU2ODgyNzMgc3BhbiwjZ2VNZXJtYWlkT3V0cHV0LTE3MTc3NjU2ODgyNzMgcHtmaWxsOiMwMDAwMDA7Y29sb3I6IzAwMDAwMDt9I2dlTWVybWFpZE91dHB1dC0xNzE3NzY1Njg4MjczIC5ub2RlIHJlY3QsI2dlTWVybWFpZE91dHB1dC0xNzE3NzY1Njg4MjczIC5ub2RlIGNpcmNsZSwjZ2VNZXJtYWlkT3V0cHV0LTE3MTc3NjU2ODgyNzMgLm5vZGUgZWxsaXBzZSwjZ2VNZXJtYWlkT3V0cHV0LTE3MTc3NjU2ODgyNzMgLm5vZGUgcG9seWdvbiwjZ2VNZXJtYWlkT3V0cHV0LTE3MTc3NjU2ODgyNzMgLm5vZGUgcGF0aHtmaWxsOiNlZWU7c3Ryb2tlOiM5OTk7c3Ryb2tlLXdpZHRoOjFweDt9I2dlTWVybWFpZE91dHB1dC0xNzE3NzY1Njg4MjczIC5mbG93Y2hhcnQtbGFiZWwgdGV4dHt0ZXh0LWFuY2hvcjptaWRkbGU7fSNnZU1lcm1haWRPdXRwdXQtMTcxNzc2NTY4ODI3MyAubm9kZSAua2F0ZXggcGF0aHtmaWxsOiMwMDA7c3Ryb2tlOiMwMDA7c3Ryb2tlLXdpZHRoOjFweDt9I2dlTWVybWFpZE91dHB1dC0xNzE3NzY1Njg4MjczIC5ub2RlIC5sYWJlbHt0ZXh0LWFsaWduOmNlbnRlcjt9I2dlTWVybWFpZE91dHB1dC0xNzE3NzY1Njg4MjczIC5ub2RlLmNsaWNrYWJsZXtjdXJzb3I6cG9pbnRlcjt9I2dlTWVybWFpZE91dHB1dC0xNzE3NzY1Njg4MjczIC5hcnJvd2hlYWRQYXRoe2ZpbGw6IzMzMzMzMzt9I2dlTWVybWFpZE91dHB1dC0xNzE3NzY1Njg4MjczIC5lZGdlUGF0aCAucGF0aHtzdHJva2U6IzY2NjtzdHJva2Utd2lkdGg6Mi4wcHg7fSNnZU1lcm1haWRPdXRwdXQtMTcxNzc2NTY4ODI3MyAuZmxvd2NoYXJ0LWxpbmt7c3Ryb2tlOiM2NjY7ZmlsbDpub25lO30jZ2VNZXJtYWlkT3V0cHV0LTE3MTc3NjU2ODgyNzMgLmVkZ2VMYWJlbHtiYWNrZ3JvdW5kLWNvbG9yOndoaXRlO3RleHQtYWxpZ246Y2VudGVyO30jZ2VNZXJtYWlkT3V0cHV0LTE3MTc3NjU2ODgyNzMgLmVkZ2VMYWJlbCByZWN0e29wYWNpdHk6MC41O2JhY2tncm91bmQtY29sb3I6d2hpdGU7ZmlsbDp3aGl0ZTt9I2dlTWVybWFpZE91dHB1dC0xNzE3NzY1Njg4MjczIC5sYWJlbEJrZ3tiYWNrZ3JvdW5kLWNvbG9yOnJnYmEoMjU1LCAyNTUsIDI1NSwgMC41KTt9I2dlTWVybWFpZE91dHB1dC0xNzE3NzY1Njg4MjczIC5jbHVzdGVyIHJlY3R7ZmlsbDpoc2woMCwgMCUsIDk4LjkyMTU2ODYyNzUlKTtzdHJva2U6IzcwNzA3MDtzdHJva2Utd2lkdGg6MXB4O30jZ2VNZXJtYWlkT3V0cHV0LTE3MTc3NjU2ODgyNzMgLmNsdXN0ZXIgdGV4dHtmaWxsOiMzMzM7fSNnZU1lcm1haWRPdXRwdXQtMTcxNzc2NTY4ODI3MyAuY2x1c3RlciBzcGFuLCNnZU1lcm1haWRPdXRwdXQtMTcxNzc2NTY4ODI3MyBwe2NvbG9yOiMzMzM7fSNnZU1lcm1haWRPdXRwdXQtMTcxNzc2NTY4ODI3MyBkaXYubWVybWFpZFRvb2x0aXB7cG9zaXRpb246YWJzb2x1dGU7dGV4dC1hbGlnbjpjZW50ZXI7bWF4LXdpZHRoOjIwMHB4O3BhZGRpbmc6MnB4O2ZvbnQtZmFtaWx5OiJ0cmVidWNoZXQgbXMiLHZlcmRhbmEsYXJpYWwsc2Fucy1zZXJpZjtmb250LXNpemU6MTJweDtiYWNrZ3JvdW5kOmhzbCgtMTYwLCAwJSwgOTMuMzMzMzMzMzMzMyUpO2JvcmRlcjoxcHggc29saWQgIzcwNzA3MDtib3JkZXItcmFkaXVzOjJweDtwb2ludGVyLWV2ZW50czpub25lO3otaW5kZXg6MTAwO30jZ2VNZXJtYWlkT3V0cHV0LTE3MTc3NjU2ODgyNzMgLmZsb3djaGFydFRpdGxlVGV4dHt0ZXh0LWFuY2hvcjptaWRkbGU7Zm9udC1zaXplOjE4cHg7ZmlsbDojMDAwMDAwO30jZ2VNZXJtYWlkT3V0cHV0LTE3MTc3NjU2ODgyNzMgOnJvb3R7LS1tZXJtYWlkLWZvbnQtZmFtaWx5OiJ0cmVidWNoZXQgbXMiLHZlcmRhbmEsYXJpYWwsc2Fucy1zZXJpZjt9PC9zdHlsZT48Zz48bWFya2VyIG9yaWVudD0iYXV0byIgbWFya2VySGVpZ2h0PSIxMiIgbWFya2VyV2lkdGg9IjEyIiBtYXJrZXJVbml0cz0idXNlclNwYWNlT25Vc2UiIHJlZlk9IjUiIHJlZlg9IjYiIHZpZXdCb3g9IjAgMCAxMCAxMCIgY2xhc3M9Im1hcmtlciBmbG93Y2hhcnQiIGlkPSJnZU1lcm1haWRPdXRwdXQtMTcxNzc2NTY4ODI3M19mbG93Y2hhcnQtcG9pbnRFbmQiPjxwYXRoIHN0eWxlPSJzdHJva2Utd2lkdGg6IDFweDsgc3Ryb2tlLWRhc2hhcnJheTogMXB4LCAwcHg7IiBjbGFzcz0iYXJyb3dNYXJrZXJQYXRoIiBkPSJNIDAgMCBMIDEwIDUgTCAwIDEwIHoiPjwvcGF0aD48L21hcmtlcj48bWFya2VyIG9yaWVudD0iYXV0byIgbWFya2VySGVpZ2h0PSIxMiIgbWFya2VyV2lkdGg9IjEyIiBtYXJrZXJVbml0cz0idXNlclNwYWNlT25Vc2UiIHJlZlk9IjUiIHJlZlg9IjQuNSIgdmlld0JveD0iMCAwIDEwIDEwIiBjbGFzcz0ibWFya2VyIGZsb3djaGFydCIgaWQ9ImdlTWVybWFpZE91dHB1dC0xNzE3NzY1Njg4MjczX2Zsb3djaGFydC1wb2ludFN0YXJ0Ij48cGF0aCBzdHlsZT0ic3Ryb2tlLXdpZHRoOiAxcHg7IHN0cm9rZS1kYXNoYXJyYXk6IDFweCwgMHB4OyIgY2xhc3M9ImFycm93TWFya2VyUGF0aCIgZD0iTSAwIDUgTCAxMCAxMCBMIDEwIDAgeiI+PC9wYXRoPjwvbWFya2VyPjxtYXJrZXIgb3JpZW50PSJhdXRvIiBtYXJrZXJIZWlnaHQ9IjExIiBtYXJrZXJXaWR0aD0iMTEiIG1hcmtlclVuaXRzPSJ1c2VyU3BhY2VPblVzZSIgcmVmWT0iNSIgcmVmWD0iMTEiIHZpZXdCb3g9IjAgMCAxMCAxMCIgY2xhc3M9Im1hcmtlciBmbG93Y2hhcnQiIGlkPSJnZU1lcm1haWRPdXRwdXQtMTcxNzc2NTY4ODI3M19mbG93Y2hhcnQtY2lyY2xlRW5kIj48Y2lyY2xlIHN0eWxlPSJzdHJva2Utd2lkdGg6IDFweDsgc3Ryb2tlLWRhc2hhcnJheTogMXB4LCAwcHg7IiBjbGFzcz0iYXJyb3dNYXJrZXJQYXRoIiByPSI1IiBjeT0iNSIgY3g9IjUiPjwvY2lyY2xlPjwvbWFya2VyPjxtYXJrZXIgb3JpZW50PSJhdXRvIiBtYXJrZXJIZWlnaHQ9IjExIiBtYXJrZXJXaWR0aD0iMTEiIG1hcmtlclVuaXRzPSJ1c2VyU3BhY2VPblVzZSIgcmVmWT0iNSIgcmVmWD0iLTEiIHZpZXdCb3g9IjAgMCAxMCAxMCIgY2xhc3M9Im1hcmtlciBmbG93Y2hhcnQiIGlkPSJnZU1lcm1haWRPdXRwdXQtMTcxNzc2NTY4ODI3M19mbG93Y2hhcnQtY2lyY2xlU3RhcnQiPjxjaXJjbGUgc3R5bGU9InN0cm9rZS13aWR0aDogMXB4OyBzdHJva2UtZGFzaGFycmF5OiAxcHgsIDBweDsiIGNsYXNzPSJhcnJvd01hcmtlclBhdGgiIHI9IjUiIGN5PSI1IiBjeD0iNSI+PC9jaXJjbGU+PC9tYXJrZXI+PG1hcmtlciBvcmllbnQ9ImF1dG8iIG1hcmtlckhlaWdodD0iMTEiIG1hcmtlcldpZHRoPSIxMSIgbWFya2VyVW5pdHM9InVzZXJTcGFjZU9uVXNlIiByZWZZPSI1LjIiIHJlZlg9IjEyIiB2aWV3Qm94PSIwIDAgMTEgMTEiIGNsYXNzPSJtYXJrZXIgY3Jvc3MgZmxvd2NoYXJ0IiBpZD0iZ2VNZXJtYWlkT3V0cHV0LTE3MTc3NjU2ODgyNzNfZmxvd2NoYXJ0LWNyb3NzRW5kIj48cGF0aCBzdHlsZT0ic3Ryb2tlLXdpZHRoOiAycHg7IHN0cm9rZS1kYXNoYXJyYXk6IDFweCwgMHB4OyIgY2xhc3M9ImFycm93TWFya2VyUGF0aCIgZD0iTSAxLDEgbCA5LDkgTSAxMCwxIGwgLTksOSI+PC9wYXRoPjwvbWFya2VyPjxtYXJrZXIgb3JpZW50PSJhdXRvIiBtYXJrZXJIZWlnaHQ9IjExIiBtYXJrZXJXaWR0aD0iMTEiIG1hcmtlclVuaXRzPSJ1c2VyU3BhY2VPblVzZSIgcmVmWT0iNS4yIiByZWZYPSItMSIgdmlld0JveD0iMCAwIDExIDExIiBjbGFzcz0ibWFya2VyIGNyb3NzIGZsb3djaGFydCIgaWQ9ImdlTWVybWFpZE91dHB1dC0xNzE3NzY1Njg4MjczX2Zsb3djaGFydC1jcm9zc1N0YXJ0Ij48cGF0aCBzdHlsZT0ic3Ryb2tlLXdpZHRoOiAycHg7IHN0cm9rZS1kYXNoYXJyYXk6IDFweCwgMHB4OyIgY2xhc3M9ImFycm93TWFya2VyUGF0aCIgZD0iTSAxLDEgbCA5LDkgTSAxMCwxIGwgLTksOSI+PC9wYXRoPjwvbWFya2VyPjxnIGNsYXNzPSJyb290Ij48ZyBjbGFzcz0iY2x1c3RlcnMiPjwvZz48ZyBjbGFzcz0iZWRnZVBhdGhzIj48cGF0aCBtYXJrZXItZW5kPSJ1cmwoI2dlTWVybWFpZE91dHB1dC0xNzE3NzY1Njg4MjczX2Zsb3djaGFydC1wb2ludEVuZCkiIHN0eWxlPSJmaWxsOm5vbmU7IiBjbGFzcz0iZWRnZS10aGlja25lc3Mtbm9ybWFsIGVkZ2UtcGF0dGVybi1zb2xpZCBmbG93Y2hhcnQtbGluayBMUy1BIExFLUMiIGlkPSJMLUEtQy0wIiBkPSJNMjA3Ljk4MywzNUwyMDcuOSwzOS4wODNDMjA3LjgxNyw0My4xNjcsMjA3LjY1LDUxLjMzMywyMDcuNTY3LDU5LjU4M0MyMDcuNDgzLDY3LjgzMywyMDcuNDgzLDc2LjE2NywyMDcuNDgzLDg0LjVDMjA3LjQ4Myw5Mi44MzMsMjA3LjQ4MywxMDEuMTY3LDIyNi4yNzIsMTE4LjA1OEMyNDUuMDYyLDEzNC45NDksMjgyLjY0LDE2MC4zOTgsMzAxLjQyOSwxNzMuMTIyTDMyMC4yMTgsMTg1Ljg0NyI+PC9wYXRoPjxwYXRoIG1hcmtlci1lbmQ9InVybCgjZ2VNZXJtYWlkT3V0cHV0LTE3MTc3NjU2ODgyNzNfZmxvd2NoYXJ0LXBvaW50RW5kKSIgc3R5bGU9ImZpbGw6bm9uZTsiIGNsYXNzPSJlZGdlLXRoaWNrbmVzcy1ub3JtYWwgZWRnZS1wYXR0ZXJuLXNvbGlkIGZsb3djaGFydC1saW5rIExTLUIgTEUtQyIgaWQ9IkwtQi1DLTAiIGQ9Ik00ODUuNzY3LDM0LjVMNDg1Ljc2NywzOC42NjdDNDg1Ljc2Nyw0Mi44MzMsNDg1Ljc2Nyw1MS4xNjcsNDg1Ljc2Nyw1OS41QzQ4NS43NjcsNjcuODMzLDQ4NS43NjcsNzYuMTY3LDQ4NS43NjcsODQuNUM0ODUuNzY3LDkyLjgzMyw0ODUuNzY3LDEwMS4xNjcsNDc1Ljc0NCwxMTYuMjAyQzQ2NS43MiwxMzEuMjM4LDQ0NS42NzQsMTUyLjk3Niw0MzUuNjUxLDE2My44NDVMNDI1LjYyOCwxNzQuNzE0Ij48L3BhdGg+PHBhdGggbWFya2VyLWVuZD0idXJsKCNnZU1lcm1haWRPdXRwdXQtMTcxNzc2NTY4ODI3M19mbG93Y2hhcnQtcG9pbnRFbmQpIiBzdHlsZT0iZmlsbDpub25lOyIgY2xhc3M9ImVkZ2UtdGhpY2tuZXNzLW5vcm1hbCBlZGdlLXBhdHRlcm4tc29saWQgZmxvd2NoYXJ0LWxpbmsgTFMtQyBMRS1EIiBpZD0iTC1DLUQtMCIgZD0iTTQyNC4wNzMsMjY5LjczNkw0MzYuMDU2LDI4MS40MjdDNDQ4LjAzOSwyOTMuMTE4LDQ3Mi4wMDUsMzE2LjUwMSw0ODMuOTg4LDMzMy45ODRDNDk1Ljk3MSwzNTEuNDY3LDQ5NS45NzEsMzYzLjA1LDQ5NS45NzEsMzc0LjYzM0M0OTUuOTcxLDM4Ni4yMTcsNDk1Ljk3MSwzOTcuOCw0OTYuMDM3LDQwNi45NTlDNDk2LjEwMyw0MTYuMTE3LDQ5Ni4yMzUsNDIyLjg1MSw0OTYuMzAxLDQyNi4yMThMNDk2LjM2Nyw0MjkuNTg0Ij48L3BhdGg+PHBhdGggbWFya2VyLWVuZD0idXJsKCNnZU1lcm1haWRPdXRwdXQtMTcxNzc2NTY4ODI3M19mbG93Y2hhcnQtcG9pbnRFbmQpIiBzdHlsZT0iZmlsbDpub25lOyIgY2xhc3M9ImVkZ2UtdGhpY2tuZXNzLW5vcm1hbCBlZGdlLXBhdHRlcm4tc29saWQgZmxvd2NoYXJ0LWxpbmsgTFMtQyBMRS1GIiBpZD0iTC1DLUYtMCIgZD0iTTMyMy4zNTIsMjYwLjMxTDMwMi4zNCwyNzMuNTcyQzI4MS4zMjgsMjg2LjgzNCwyMzkuMzAzLDMxMy4zNTksMjE4LjI5MSwzMzIuNDEzQzE5Ny4yNzksMzUxLjQ2NywxOTcuMjc5LDM2My4wNSwxOTcuMjc5LDM3NC42MzNDMTk3LjI3OSwzODYuMjE3LDE5Ny4yNzksMzk3LjgsMTk3LjI3OSw0MjAuOTY5QzE5Ny4yNzksNDQ0LjEzOSwxOTcuMjc5LDQ3OC44OTQsMTk3LjI3OSw1MTMuNjVDMTk3LjI3OSw1NDguNDA2LDE5Ny4yNzksNTgzLjE2MSwxOTcuMjc5LDYwNi4zMzFDMTk3LjI3OSw2MjkuNSwxOTcuMjc5LDY0MS4wODMsMTk3LjI3OSw2NTIuNjY3QzE5Ny4yNzksNjY0LjI1LDE5Ny4yNzksNjc1LjgzMywxOTcuMjc5LDY4OC42NjdDMTk3LjI3OSw3MDEuNSwxOTcuMjc5LDcxNS41ODMsMTk3LjI3OSw3MjkuNjY3QzE5Ny4yNzksNzQzLjc1LDE5Ny4yNzksNzU3LjgzMywxOTcuMjc5LDc2OS4wNDJDMTk3LjI3OSw3ODAuMjUsMTk3LjI3OSw3ODguNTgzLDE5Ny4yNzksNzk2LjkxN0MxOTcuMjc5LDgwNS4yNSwxOTcuMjc5LDgxMy41ODMsMTk3LjI3OSw4MjEuMDMzQzE5Ny4yNzksODI4LjQ4MywxOTcuMjc5LDgzNS4wNSwxOTcuMjc5LDgzOC4zMzNMMTk3LjI3OSw4NDEuNjE3Ij48L3BhdGg+PHBhdGggbWFya2VyLWVuZD0idXJsKCNnZU1lcm1haWRPdXRwdXQtMTcxNzc2NTY4ODI3M19mbG93Y2hhcnQtcG9pbnRFbmQpIiBzdHlsZT0iZmlsbDpub25lOyIgY2xhc3M9ImVkZ2UtdGhpY2tuZXNzLW5vcm1hbCBlZGdlLXBhdHRlcm4tc29saWQgZmxvd2NoYXJ0LWxpbmsgTFMtRCBMRS1FIiBpZD0iTC1ELUUtMCIgZD0iTTUzMC4yMTYsNTU5LjY3Mkw1MzcuMzksNTY5LjM3OUM1NDQuNTY1LDU3OS4wODcsNTU4LjkxNCw1OTguNTAyLDU2Ni4wODgsNjE0LjAwMUM1NzMuMjYyLDYyOS41LDU3My4yNjIsNjQxLjA4Myw1NzMuMjYyLDY1Mi42NjdDNTczLjI2Miw2NjQuMjUsNTczLjI2Miw2NzUuODMzLDU3My4yNjIsNjg0LjkwOEM1NzMuMjYyLDY5My45ODMsNTczLjI2Miw3MDAuNTUsNTczLjI2Miw3MDMuODMzTDU3My4yNjIsNzA3LjExNyI+PC9wYXRoPjxwYXRoIG1hcmtlci1lbmQ9InVybCgjZ2VNZXJtYWlkT3V0cHV0LTE3MTc3NjU2ODgyNzNfZmxvd2NoYXJ0LXBvaW50RW5kKSIgc3R5bGU9ImZpbGw6bm9uZTsiIGNsYXNzPSJlZGdlLXRoaWNrbmVzcy1ub3JtYWwgZWRnZS1wYXR0ZXJuLXNvbGlkIGZsb3djaGFydC1saW5rIExTLUQgTEUtRyIgaWQ9IkwtRC1HLTAiIGQ9Ik00NTEuODcsNTQ4LjgxNkw0MzYuODYzLDU2MC4zMzNDNDIxLjg1NSw1NzEuODUsMzkxLjg0LDU5NC44ODMsMzc2LjgzMyw2MTIuMTkyQzM2MS44MjUsNjI5LjUsMzYxLjgyNSw2NDEuMDgzLDM2MS44MjUsNjUyLjY2N0MzNjEuODI1LDY2NC4yNSwzNjEuODI1LDY3NS44MzMsMzYxLjgyNSw2ODguNjY3QzM2MS44MjUsNzAxLjUsMzYxLjgyNSw3MTUuNTgzLDM2MS44MjUsNzI5LjY2N0MzNjEuODI1LDc0My43NSwzNjEuODI1LDc1Ny44MzMsMzYxLjgyNSw3NjkuMDQyQzM2MS44MjUsNzgwLjI1LDM2MS44MjUsNzg4LjU4MywzNjEuODI1LDc5Ni45MTdDMzYxLjgyNSw4MDUuMjUsMzYxLjgyNSw4MTMuNTgzLDM3NC4yMTIsODIxLjY1MUMzODYuNTk5LDgyOS43MTksNDExLjM3Miw4MzcuNTIyLDQyMy43NTksODQxLjQyM0w0MzYuMTQ2LDg0NS4zMjQiPjwvcGF0aD48cGF0aCBtYXJrZXItZW5kPSJ1cmwoI2dlTWVybWFpZE91dHB1dC0xNzE3NzY1Njg4MjczX2Zsb3djaGFydC1wb2ludEVuZCkiIHN0eWxlPSJmaWxsOm5vbmU7IiBjbGFzcz0iZWRnZS10aGlja25lc3Mtbm9ybWFsIGVkZ2UtcGF0dGVybi1zb2xpZCBmbG93Y2hhcnQtbGluayBMUy1FIExFLUciIGlkPSJMLUUtRy0wIiBkPSJNNTczLjI2Miw3NDYuOTE3TDU3My4yNjIsNzUxLjA4M0M1NzMuMjYyLDc1NS4yNSw1NzMuMjYyLDc2My41ODMsNTczLjI2Miw3NzEuOTE3QzU3My4yNjIsNzgwLjI1LDU3My4yNjIsNzg4LjU4Myw1NzMuMjYyLDc5Ni45MTdDNTczLjI2Miw4MDUuMjUsNTczLjI2Miw4MTMuNTgzLDU2Ni40MTUsODIxLjQ5M0M1NTkuNTY4LDgyOS40MDMsNTQ1Ljg3Myw4MzYuODg5LDUzOS4wMjYsODQwLjYzMkw1MzIuMTc4LDg0NC4zNzUiPjwvcGF0aD48cGF0aCBtYXJrZXItZW5kPSJ1cmwoI2dlTWVybWFpZE91dHB1dC0xNzE3NzY1Njg4MjczX2Zsb3djaGFydC1wb2ludEVuZCkiIHN0eWxlPSJmaWxsOm5vbmU7IiBjbGFzcz0iZWRnZS10aGlja25lc3Mtbm9ybWFsIGVkZ2UtcGF0dGVybi1zb2xpZCBmbG93Y2hhcnQtbGluayBMUy1GIExFLUgiIGlkPSJMLUYtSC0wIiBkPSJNMTk3LjI3OSw4ODEuNDE3TDE5Ny4yNzksODg1LjU4M0MxOTcuMjc5LDg4OS43NSwxOTcuMjc5LDg5OC4wODMsMTk3LjI3OSw5MDYuNDE3QzE5Ny4yNzksOTE0Ljc1LDE5Ny4yNzksOTIzLjA4MywxOTcuMjc5LDkzMS40MTdDMTk3LjI3OSw5MzkuNzUsMTk3LjI3OSw5NDguMDgzLDE5Ny4yNzksOTU1LjUzM0MxOTcuMjc5LDk2Mi45ODMsMTk3LjI3OSw5NjkuNTUsMTk3LjI3OSw5NzIuODMzTDE5Ny4yNzksOTc2LjExNyI+PC9wYXRoPjxwYXRoIG1hcmtlci1lbmQ9InVybCgjZ2VNZXJtYWlkT3V0cHV0LTE3MTc3NjU2ODgyNzNfZmxvd2NoYXJ0LXBvaW50RW5kKSIgc3R5bGU9ImZpbGw6bm9uZTsiIGNsYXNzPSJlZGdlLXRoaWNrbmVzcy1ub3JtYWwgZWRnZS1wYXR0ZXJuLXNvbGlkIGZsb3djaGFydC1saW5rIExTLUcgTEUtSSIgaWQ9IkwtRy1JLTAiIGQ9Ik00OTUuOTcxLDg4MS40MTdMNDk1Ljk3MSw4ODUuNTgzQzQ5NS45NzEsODg5Ljc1LDQ5NS45NzEsODk4LjA4Myw0OTUuOTcxLDkwNi40MTdDNDk1Ljk3MSw5MTQuNzUsNDk1Ljk3MSw5MjMuMDgzLDQ5NS45NzEsOTMxLjQxN0M0OTUuOTcxLDkzOS43NSw0OTUuOTcxLDk0OC4wODMsNDk1Ljk3MSw5NTUuNTMzQzQ5NS45NzEsOTYyLjk4Myw0OTUuOTcxLDk2OS41NSw0OTUuOTcxLDk3Mi44MzNMNDk1Ljk3MSw5NzYuMTE3Ij48L3BhdGg+PHBhdGggbWFya2VyLWVuZD0idXJsKCNnZU1lcm1haWRPdXRwdXQtMTcxNzc2NTY4ODI3M19mbG93Y2hhcnQtcG9pbnRFbmQpIiBzdHlsZT0iZmlsbDpub25lOyIgY2xhc3M9ImVkZ2UtdGhpY2tuZXNzLW5vcm1hbCBlZGdlLXBhdHRlcm4tc29saWQgZmxvd2NoYXJ0LWxpbmsgTFMtSCBMRS1KIiBpZD0iTC1ILUotMCIgZD0iTTE5Ny4yNzksMTAxNS45MTdMMTk3LjI3OSwxMDIwLjA4M0MxOTcuMjc5LDEwMjQuMjUsMTk3LjI3OSwxMDMyLjU4MywxOTcuMjc5LDEwNDAuOTE3QzE5Ny4yNzksMTA0OS4yNSwxOTcuMjc5LDEwNTcuNTgzLDE5Ny4yNzksMTA2NS45MTdDMTk3LjI3OSwxMDc0LjI1LDE5Ny4yNzksMTA4Mi41ODMsMjE0LjIzNCwxMDkwLjcxNUMyMzEuMTg5LDEwOTguODQ4LDI2NS4wOTksMTEwNi43NzksMjgyLjA1NCwxMTEwLjc0NEwyOTkuMDA5LDExMTQuNzEiPjwvcGF0aD48cGF0aCBtYXJrZXItZW5kPSJ1cmwoI2dlTWVybWFpZE91dHB1dC0xNzE3NzY1Njg4MjczX2Zsb3djaGFydC1wb2ludEVuZCkiIHN0eWxlPSJmaWxsOm5vbmU7IiBjbGFzcz0iZWRnZS10aGlja25lc3Mtbm9ybWFsIGVkZ2UtcGF0dGVybi1zb2xpZCBmbG93Y2hhcnQtbGluayBMUy1JIExFLUoiIGlkPSJMLUktSi0wIiBkPSJNNDk1Ljk3MSwxMDE1LjkxN0w0OTUuOTcxLDEwMjAuMDgzQzQ5NS45NzEsMTAyNC4yNSw0OTUuOTcxLDEwMzIuNTgzLDQ5NS45NzEsMTA0MC45MTdDNDk1Ljk3MSwxMDQ5LjI1LDQ5NS45NzEsMTA1Ny41ODMsNDk1Ljk3MSwxMDY1LjkxN0M0OTUuOTcxLDEwNzQuMjUsNDk1Ljk3MSwxMDgyLjU4Myw0ODUuMTYxLDEwOTAuNjE5QzQ3NC4zNTEsMTA5OC42NTUsNDUyLjczMSwxMTA2LjM5Myw0NDEuOTIxLDExMTAuMjYyTDQzMS4xMTEsMTExNC4xMzEiPjwvcGF0aD48cGF0aCBtYXJrZXItZW5kPSJ1cmwoI2dlTWVybWFpZE91dHB1dC0xNzE3NzY1Njg4MjczX2Zsb3djaGFydC1wb2ludEVuZCkiIHN0eWxlPSJmaWxsOm5vbmU7IiBjbGFzcz0iZWRnZS10aGlja25lc3Mtbm9ybWFsIGVkZ2UtcGF0dGVybi1zb2xpZCBmbG93Y2hhcnQtbGluayBMUy1KIExFLUsiIGlkPSJMLUotSy0wIiBkPSJNMzQxLjI1NiwxMTUwLjQxN0wzMzIuMzk5LDExNTQuNTgzQzMyMy41NDEsMTE1OC43NSwzMDUuODI3LDExNjcuMDgzLDI5Ni45NywxMTc1LjQxN0MyODguMTEzLDExODMuNzUsMjg4LjExMywxMTkyLjA4MywyODguMTEzLDEyMDAuNDE3QzI4OC4xMTMsMTIwOC43NSwyODguMTEzLDEyMTcuMDgzLDI4OC4xNzksMTIyNC42MTdDMjg4LjI0NSwxMjMyLjE1LDI4OC4zNzcsMTIzOC44ODQsMjg4LjQ0MywxMjQyLjI1MUwyODguNTA5LDEyNDUuNjE4Ij48L3BhdGg+PHBhdGggbWFya2VyLWVuZD0idXJsKCNnZU1lcm1haWRPdXRwdXQtMTcxNzc2NTY4ODI3M19mbG93Y2hhcnQtcG9pbnRFbmQpIiBzdHlsZT0iZmlsbDpub25lOyIgY2xhc3M9ImVkZ2UtdGhpY2tuZXNzLW5vcm1hbCBlZGdlLXBhdHRlcm4tc29saWQgZmxvd2NoYXJ0LWxpbmsgTFMtSyBMRS1MIiBpZD0iTC1LLUwtMCIgZD0iTTM1My4yMjUsMTQzOS40NTRMMzY4LjcxNiwxNDU0LjMwNkMzODQuMjA3LDE0NjkuMTU4LDQxNS4xODksMTQ5OC44NjIsNDMwLjY4LDE1MTkuNTA2QzQ0Ni4xNzEsMTU0MC4xNSw0NDYuMTcxLDE1NTEuNzMzLDQ0Ni4xNzEsMTU2My4zMTdDNDQ2LjE3MSwxNTc0LjksNDQ2LjE3MSwxNTg2LjQ4Myw0NDYuMTcxLDE1OTUuNTU4QzQ0Ni4xNzEsMTYwNC42MzMsNDQ2LjE3MSwxNjExLjIsNDQ2LjE3MSwxNjE0LjQ4M0w0NDYuMTcxLDE2MTcuNzY3Ij48L3BhdGg+PHBhdGggbWFya2VyLWVuZD0idXJsKCNnZU1lcm1haWRPdXRwdXQtMTcxNzc2NTY4ODI3M19mbG93Y2hhcnQtcG9pbnRFbmQpIiBzdHlsZT0iZmlsbDpub25lOyIgY2xhc3M9ImVkZ2UtdGhpY2tuZXNzLW5vcm1hbCBlZGdlLXBhdHRlcm4tc29saWQgZmxvd2NoYXJ0LWxpbmsgTFMtSyBMRS1NIiBpZD0iTC1LLU0tMCIgZD0iTTIzNi44NjIsMTQ1Mi4zMTZMMjI3LjkzMSwxNDY1LjAyNUMyMTkuMDAxLDE0NzcuNzMzLDIwMS4xNCwxNTAzLjE1LDE5Mi4yMSwxNTIxLjY1QzE4My4yNzksMTU0MC4xNSwxODMuMjc5LDE1NTEuNzMzLDE4My4yNzksMTU2My4zMTdDMTgzLjI3OSwxNTc0LjksMTgzLjI3OSwxNTg2LjQ4MywxODMuMjc5LDE1OTkuMzE3QzE4My4yNzksMTYxMi4xNSwxODMuMjc5LDE2MjYuMjMzLDE4My4yNzksMTY0MC4zMTdDMTgzLjI3OSwxNjU0LjQsMTgzLjI3OSwxNjY4LjQ4MywxODMuMjc5LDE2NzkuNjkyQzE4My4yNzksMTY5MC45LDE4My4yNzksMTY5OS4yMzMsMTgzLjI3OSwxNzA3LjU2N0MxODMuMjc5LDE3MTUuOSwxODMuMjc5LDE3MjQuMjMzLDE5Mi43OTgsMTczMi4yMzZDMjAyLjMxOCwxNzQwLjI0LDIyMS4zNTYsMTc0Ny45MTMsMjMwLjg3NiwxNzUxLjc0OUwyNDAuMzk1LDE3NTUuNTg1Ij48L3BhdGg+PHBhdGggbWFya2VyLWVuZD0idXJsKCNnZU1lcm1haWRPdXRwdXQtMTcxNzc2NTY4ODI3M19mbG93Y2hhcnQtcG9pbnRFbmQpIiBzdHlsZT0iZmlsbDpub25lOyIgY2xhc3M9ImVkZ2UtdGhpY2tuZXNzLW5vcm1hbCBlZGdlLXBhdHRlcm4tc29saWQgZmxvd2NoYXJ0LWxpbmsgTFMtTCBMRS1NIiBpZD0iTC1MLU0tMCIgZD0iTTQ0Ni4xNzEsMTY1Ny41NjdMNDQ2LjE3MSwxNjYxLjczM0M0NDYuMTcxLDE2NjUuOSw0NDYuMTcxLDE2NzQuMjMzLDQ0Ni4xNzEsMTY4Mi41NjdDNDQ2LjE3MSwxNjkwLjksNDQ2LjE3MSwxNjk5LjIzMyw0NDYuMTcxLDE3MDcuNTY3QzQ0Ni4xNzEsMTcxNS45LDQ0Ni4xNzEsMTcyNC4yMzMsNDMxLjQzNywxNzMyLjMzOUM0MTYuNzAyLDE3NDAuNDQ0LDM4Ny4yMzQsMTc0OC4zMjEsMzcyLjUsMTc1Mi4yNTlMMzU3Ljc2NSwxNzU2LjE5OCI+PC9wYXRoPjxwYXRoIG1hcmtlci1lbmQ9InVybCgjZ2VNZXJtYWlkT3V0cHV0LTE3MTc3NjU2ODgyNzNfZmxvd2NoYXJ0LXBvaW50RW5kKSIgc3R5bGU9ImZpbGw6bm9uZTsiIGNsYXNzPSJlZGdlLXRoaWNrbmVzcy1ub3JtYWwgZWRnZS1wYXR0ZXJuLXNvbGlkIGZsb3djaGFydC1saW5rIExTLU0gTEUtTiIgaWQ9IkwtTS1OLTAiIGQ9Ik0yODguMTEzLDE3OTIuMDY3TDI4OC4xMTMsMTc5Ni4yMzNDMjg4LjExMywxODAwLjQsMjg4LjExMywxODA4LjczMywyODguMTEzLDE4MTcuMDY3QzI4OC4xMTMsMTgyNS40LDI4OC4xMTMsMTgzMy43MzMsMjg4LjExMywxODQyLjA2N0MyODguMTEzLDE4NTAuNCwyODguMTEzLDE4NTguNzMzLDI4OC4xNzksMTg2Ni4yNjdDMjg4LjI0NSwxODczLjgsMjg4LjM3NywxODgwLjUzNCwyODguNDQzLDE4ODMuOTAxTDI4OC41MDksMTg4Ny4yNjgiPjwvcGF0aD48cGF0aCBtYXJrZXItZW5kPSJ1cmwoI2dlTWVybWFpZE91dHB1dC0xNzE3NzY1Njg4MjczX2Zsb3djaGFydC1wb2ludEVuZCkiIHN0eWxlPSJmaWxsOm5vbmU7IiBjbGFzcz0iZWRnZS10aGlja25lc3Mtbm9ybWFsIGVkZ2UtcGF0dGVybi1zb2xpZCBmbG93Y2hhcnQtbGluayBMUy1OIExFLU8iIGlkPSJMLU4tTy0wIiBkPSJNMzExLjEzNywyMTU5LjI5MkwzMTIuNTE1LDIxNjcuMTNDMzEzLjg5MywyMTc0Ljk2NywzMTYuNjQ4LDIxOTAuNjQyLDMxOC4wMjYsMjIwNC4yNzFDMzE5LjQwNCwyMjE3LjksMzE5LjQwNCwyMjI5LjQ4MywzMTkuNDA0LDIyNDEuMDY3QzMxOS40MDQsMjI1Mi42NSwzMTkuNDA0LDIyNjQuMjMzLDMxOS40MDQsMjI3My4zMDhDMzE5LjQwNCwyMjgyLjM4MywzMTkuNDA0LDIyODguOTUsMzE5LjQwNCwyMjkyLjIzM0wzMTkuNDA0LDIyOTUuNTE3Ij48L3BhdGg+PHBhdGggbWFya2VyLWVuZD0idXJsKCNnZU1lcm1haWRPdXRwdXQtMTcxNzc2NTY4ODI3M19mbG93Y2hhcnQtcG9pbnRFbmQpIiBzdHlsZT0iZmlsbDpub25lOyIgY2xhc3M9ImVkZ2UtdGhpY2tuZXNzLW5vcm1hbCBlZGdlLXBhdHRlcm4tc29saWQgZmxvd2NoYXJ0LWxpbmsgTFMtTiBMRS1QIiBpZD0iTC1OLVAtMCIgZD0iTTIxNC4wOCwyMTA3LjI4NEwxOTYuMzU3LDIxMjMuNzg5QzE3OC42MzQsMjE0MC4yOTUsMTQzLjE4OCwyMTczLjMwNiwxMjUuNDY1LDIxOTUuNjAzQzEwNy43NDIsMjIxNy45LDEwNy43NDIsMjIyOS40ODMsMTA3Ljc0MiwyMjQxLjA2N0MxMDcuNzQyLDIyNTIuNjUsMTA3Ljc0MiwyMjY0LjIzMywxMDcuNzQyLDIyNzcuMDY3QzEwNy43NDIsMjI4OS45LDEwNy43NDIsMjMwMy45ODMsMTA3Ljc0MiwyMzE4LjA2N0MxMDcuNzQyLDIzMzIuMTUsMTA3Ljc0MiwyMzQ2LjIzMywxMDcuNzQyLDIzNTcuNDQyQzEwNy43NDIsMjM2OC42NSwxMDcuNzQyLDIzNzYuOTgzLDEwNy43NDIsMjM4NS4zMTdDMTA3Ljc0MiwyMzkzLjY1LDEwNy43NDIsMjQwMS45ODMsMTA3Ljc0MiwyNDEzLjE5MkMxMDcuNzQyLDI0MjQuNCwxMDcuNzQyLDI0MzguNDgzLDEwNy43NDIsMjQ1Mi41NjdDMTA3Ljc0MiwyNDY2LjY1LDEwNy43NDIsMjQ4MC43MzMsMTA3Ljc0MiwyNDkxLjk0MkMxMDcuNzQyLDI1MDMuMTUsMTA3Ljc0MiwyNTExLjQ4MywxMDcuNzQyLDI1MTkuODE3QzEwNy43NDIsMjUyOC4xNSwxMDcuNzQyLDI1MzYuNDgzLDEwNy43NDIsMjU0Ny42OTJDMTA3Ljc0MiwyNTU4LjksMTA3Ljc0MiwyNTcyLjk4MywxMDcuNzQyLDI1ODcuMDY3QzEwNy43NDIsMjYwMS4xNSwxMDcuNzQyLDI2MTUuMjMzLDEwNy43NDIsMjYyOC4wNjdDMTA3Ljc0MiwyNjQwLjksMTA3Ljc0MiwyNjUyLjQ4MywxMDcuNzQyLDI2NjQuMDY3QzEwNy43NDIsMjY3NS42NSwxMDcuNzQyLDI2ODcuMjMzLDEwNy43NDIsMjcwMC4wNjdDMTA3Ljc0MiwyNzEyLjksMTA3Ljc0MiwyNzI2Ljk4MywxMDcuNzQyLDI3NDEuMDY3QzEwNy43NDIsMjc1NS4xNSwxMDcuNzQyLDI3NjkuMjMzLDEwNy43NDIsMjc4MC40NDJDMTA3Ljc0MiwyNzkxLjY1LDEwNy43NDIsMjc5OS45ODMsMTA3Ljc0MiwyODA4LjMxN0MxMDcuNzQyLDI4MTYuNjUsMTA3Ljc0MiwyODI0Ljk4MywxMDcuNzQyLDI4NTIuOTM5QzEwNy43NDIsMjg4MC44OTQsMTA3Ljc0MiwyOTI4LjQ3MiwxMDcuNzQyLDI5NzYuMDVDMTA3Ljc0MiwzMDIzLjYyOCwxMDcuNzQyLDMwNzEuMjA2LDEwNy43NDIsMzEwMC43ODZDMTA3Ljc0MiwzMTMwLjM2NywxMDcuNzQyLDMxNDEuOTUsMTA3Ljc0MiwzMTUzLjUzM0MxMDcuNzQyLDMxNjUuMTE3LDEwNy43NDIsMzE3Ni43LDEwNy44MDgsMzE4NS44NThDMTA3Ljg3NCwzMTk1LjAxNywxMDguMDA2LDMyMDEuNzUxLDEwOC4wNzIsMzIwNS4xMTdMMTA4LjEzOCwzMjA4LjQ4NCI+PC9wYXRoPjxwYXRoIG1hcmtlci1lbmQ9InVybCgjZ2VNZXJtYWlkT3V0cHV0LTE3MTc3NjU2ODgyNzNfZmxvd2NoYXJ0LXBvaW50RW5kKSIgc3R5bGU9ImZpbGw6bm9uZTsiIGNsYXNzPSJlZGdlLXRoaWNrbmVzcy1ub3JtYWwgZWRnZS1wYXR0ZXJuLXNvbGlkIGZsb3djaGFydC1saW5rIExTLU8gTEUtUSIgaWQ9IkwtTy1RLTAiIGQ9Ik0zMTkuNDA0LDIzMzUuMzE3TDMxOS40MDQsMjMzOS40ODNDMzE5LjQwNCwyMzQzLjY1LDMxOS40MDQsMjM1MS45ODMsMzE5LjQwNCwyMzYwLjMxN0MzMTkuNDA0LDIzNjguNjUsMzE5LjQwNCwyMzc2Ljk4MywzMTkuNDA0LDIzODUuMzE3QzMxOS40MDQsMjM5My42NSwzMTkuNDA0LDI0MDEuOTgzLDMxOS40MDQsMjQwOS40MzNDMzE5LjQwNCwyNDE2Ljg4MywzMTkuNDA0LDI0MjMuNDUsMzE5LjQwNCwyNDI2LjczM0wzMTkuNDA0LDI0MzAuMDE3Ij48L3BhdGg+PHBhdGggbWFya2VyLWVuZD0idXJsKCNnZU1lcm1haWRPdXRwdXQtMTcxNzc2NTY4ODI3M19mbG93Y2hhcnQtcG9pbnRFbmQpIiBzdHlsZT0iZmlsbDpub25lOyIgY2xhc3M9ImVkZ2UtdGhpY2tuZXNzLW5vcm1hbCBlZGdlLXBhdHRlcm4tc29saWQgZmxvd2NoYXJ0LWxpbmsgTFMtUCBMRS1SIiBpZD0iTC1QLVItMCIgZD0iTTEwOC4yNDIsMzI0OC4yODNMMTA4LjE1OCwzMjUyLjM2N0MxMDguMDc1LDMyNTYuNDUsMTA3LjkwOCwzMjY0LjYxNywxMDcuODI1LDMyNzIuODY3QzEwNy43NDIsMzI4MS4xMTcsMTA3Ljc0MiwzMjg5LjQ1LDEwNy43NDIsMzI5Ny43ODNDMTA3Ljc0MiwzMzA2LjExNywxMDcuNzQyLDMzMTQuNDUsMTc3LjA5NCwzMzQwLjE2MUMyNDYuNDQ2LDMzNjUuODcyLDM4NS4xNSwzNDA4Ljk2LDQ1NC41MDMsMzQzMC41MDVMNTIzLjg1NSwzNDUyLjA0OSI+PC9wYXRoPjxwYXRoIG1hcmtlci1lbmQ9InVybCgjZ2VNZXJtYWlkT3V0cHV0LTE3MTc3NjU2ODgyNzNfZmxvd2NoYXJ0LXBvaW50RW5kKSIgc3R5bGU9ImZpbGw6bm9uZTsiIGNsYXNzPSJlZGdlLXRoaWNrbmVzcy1ub3JtYWwgZWRnZS1wYXR0ZXJuLXNvbGlkIGZsb3djaGFydC1saW5rIExTLVEgTEUtUyIgaWQ9IkwtUS1TLTAiIGQ9Ik0zMTkuNDA0LDI0NjkuODE3TDMxOS40MDQsMjQ3My45ODNDMzE5LjQwNCwyNDc4LjE1LDMxOS40MDQsMjQ4Ni40ODMsMzE5LjQwNCwyNDk0LjgxN0MzMTkuNDA0LDI1MDMuMTUsMzE5LjQwNCwyNTExLjQ4MywzMTkuNDA0LDI1MTkuODE3QzMxOS40MDQsMjUyOC4xNSwzMTkuNDA0LDI1MzYuNDgzLDMxOS40NywyNTQ0LjAxN0MzMTkuNTM2LDI1NTEuNTUsMzE5LjY2OCwyNTU4LjI4NCwzMTkuNzM0LDI1NjEuNjUxTDMxOS44LDI1NjUuMDE4Ij48L3BhdGg+PHBhdGggbWFya2VyLWVuZD0idXJsKCNnZU1lcm1haWRPdXRwdXQtMTcxNzc2NTY4ODI3M19mbG93Y2hhcnQtcG9pbnRFbmQpIiBzdHlsZT0iZmlsbDpub25lOyIgY2xhc3M9ImVkZ2UtdGhpY2tuZXNzLW5vcm1hbCBlZGdlLXBhdHRlcm4tc29saWQgZmxvd2NoYXJ0LWxpbmsgTFMtUyBMRS1YIiBpZD0iTC1TLVgtMCIgZD0iTTI2OC44MzEsMjYwNC44MTdMMjU2LjQxMSwyNjA4LjlDMjQzLjk5MiwyNjEyLjk4MywyMTkuMTUyLDI2MjEuMTUsMjA2LjczMiwyNjMxLjAyNUMxOTQuMzEzLDI2NDAuOSwxOTQuMzEzLDI2NTIuNDgzLDE5NC4zMTMsMjY2NC4wNjdDMTk0LjMxMywyNjc1LjY1LDE5NC4zMTMsMjY4Ny4yMzMsMTk0LjMxMywyNzAwLjA2N0MxOTQuMzEzLDI3MTIuOSwxOTQuMzEzLDI3MjYuOTgzLDE5NC4zMTMsMjc0MS4wNjdDMTk0LjMxMywyNzU1LjE1LDE5NC4zMTMsMjc2OS4yMzMsMTk0LjMxMywyNzgwLjQ0MkMxOTQuMzEzLDI3OTEuNjUsMTk0LjMxMywyNzk5Ljk4MywxOTQuMzEzLDI4MDguMzE3QzE5NC4zMTMsMjgxNi42NSwxOTQuMzEzLDI4MjQuOTgzLDE5NC4zMTMsMjg1Mi45MzlDMTk0LjMxMywyODgwLjg5NCwxOTQuMzEzLDI5MjguNDcyLDE5NC4zMTMsMjk3Ni4wNUMxOTQuMzEzLDMwMjMuNjI4LDE5NC4zMTMsMzA3MS4yMDYsMTk0LjMxMywzMTAwLjc4NkMxOTQuMzEzLDMxMzAuMzY3LDE5NC4zMTMsMzE0MS45NSwxOTQuMzEzLDMxNTMuNTMzQzE5NC4zMTMsMzE2NS4xMTcsMTk0LjMxMywzMTc2LjcsMjExLjU1OSwzMTg2LjQ2QzIyOC44MDYsMzE5Ni4yMiwyNjMuMywzMjA0LjE1OCwyODAuNTQ3LDMyMDguMTI2TDI5Ny43OTQsMzIxMi4wOTUiPjwvcGF0aD48cGF0aCBtYXJrZXItZW5kPSJ1cmwoI2dlTWVybWFpZE91dHB1dC0xNzE3NzY1Njg4MjczX2Zsb3djaGFydC1wb2ludEVuZCkiIHN0eWxlPSJmaWxsOm5vbmU7IiBjbGFzcz0iZWRnZS10aGlja25lc3Mtbm9ybWFsIGVkZ2UtcGF0dGVybi1zb2xpZCBmbG93Y2hhcnQtbGluayBMUy1SIExFLU4iIGlkPSJMLVItTi0wIiBkPSJNNjkwLjAxNywzNDA0LjA0Nkw2OTkuMDYzLDMzOTAuNTAyQzcwOC4xMSwzMzc2Ljk1OCw3MjYuMjAzLDMzNDkuODcxLDczNS4yNDksMzMzMi4xNkM3NDQuMjk2LDMzMTQuNDUsNzQ0LjI5NiwzMzA2LjExNyw3NDQuMjk2LDMyOTcuNzgzQzc0NC4yOTYsMzI4OS40NSw3NDQuMjk2LDMyODEuMTE3LDc0NC4yOTYsMzI2OS45MDhDNzQ0LjI5NiwzMjU4LjcsNzQ0LjI5NiwzMjQ0LjYxNyw3NDQuMjk2LDMyMzAuNTMzQzc0NC4yOTYsMzIxNi40NSw3NDQuMjk2LDMyMDIuMzY3LDc0NC4yOTYsMzE4OS41MzNDNzQ0LjI5NiwzMTc2LjcsNzQ0LjI5NiwzMTY1LjExNyw3NDQuMjk2LDMxNTMuNTMzQzc0NC4yOTYsMzE0MS45NSw3NDQuMjk2LDMxMzAuMzY3LDc0NC4yOTYsMzEwMC43ODZDNzQ0LjI5NiwzMDcxLjIwNiw3NDQuMjk2LDMwMjMuNjI4LDc0NC4yOTYsMjk3Ni4wNUM3NDQuMjk2LDI5MjguNDcyLDc0NC4yOTYsMjg4MC44OTQsNzQ0LjI5NiwyODUyLjkzOUM3NDQuMjk2LDI4MjQuOTgzLDc0NC4yOTYsMjgxNi42NSw3NDQuMjk2LDI4MDguMzE3Qzc0NC4yOTYsMjc5OS45ODMsNzQ0LjI5NiwyNzkxLjY1LDc0NC4yOTYsMjc4MC40NDJDNzQ0LjI5NiwyNzY5LjIzMyw3NDQuMjk2LDI3NTUuMTUsNzQ0LjI5NiwyNzQxLjA2N0M3NDQuMjk2LDI3MjYuOTgzLDc0NC4yOTYsMjcxMi45LDc0NC4yOTYsMjcwMC4wNjdDNzQ0LjI5NiwyNjg3LjIzMyw3NDQuMjk2LDI2NzUuNjUsNzQ0LjI5NiwyNjY0LjA2N0M3NDQuMjk2LDI2NTIuNDgzLDc0NC4yOTYsMjY0MC45LDc0NC4yOTYsMjYyOC4wNjdDNzQ0LjI5NiwyNjE1LjIzMyw3NDQuMjk2LDI2MDEuMTUsNzQ0LjI5NiwyNTg3LjA2N0M3NDQuMjk2LDI1NzIuOTgzLDc0NC4yOTYsMjU1OC45LDc0NC4yOTYsMjU0Ny42OTJDNzQ0LjI5NiwyNTM2LjQ4Myw3NDQuMjk2LDI1MjguMTUsNzQ0LjI5NiwyNTE5LjgxN0M3NDQuMjk2LDI1MTEuNDgzLDc0NC4yOTYsMjUwMy4xNSw3NDQuMjk2LDI0OTEuOTQyQzc0NC4yOTYsMjQ4MC43MzMsNzQ0LjI5NiwyNDY2LjY1LDc0NC4yOTYsMjQ1Mi41NjdDNzQ0LjI5NiwyNDM4LjQ4Myw3NDQuMjk2LDI0MjQuNCw3NDQuMjk2LDI0MTMuMTkyQzc0NC4yOTYsMjQwMS45ODMsNzQ0LjI5NiwyMzkzLjY1LDc0NC4yOTYsMjM4NS4zMTdDNzQ0LjI5NiwyMzc2Ljk4Myw3NDQuMjk2LDIzNjguNjUsNzQ0LjI5NiwyMzU3LjQ0MkM3NDQuMjk2LDIzNDYuMjMzLDc0NC4yOTYsMjMzMi4xNSw3NDQuMjk2LDIzMTguMDY3Qzc0NC4yOTYsMjMwMy45ODMsNzQ0LjI5NiwyMjg5LjksNzQ0LjI5NiwyMjc3LjA2N0M3NDQuMjk2LDIyNjQuMjMzLDc0NC4yOTYsMjI1Mi42NSw3NDQuMjk2LDIyNDEuMDY3Qzc0NC4yOTYsMjIyOS40ODMsNzQ0LjI5NiwyMjE3LjksNjg2Ljc0OCwyMTkwLjc2MUM2MjkuMTk5LDIxNjMuNjIzLDUxNC4xMDMsMjEyMC45MjksNDU2LjU1NCwyMDk5LjU4MkwzOTkuMDA2LDIwNzguMjM1Ij48L3BhdGg+PHBhdGggbWFya2VyLWVuZD0idXJsKCNnZU1lcm1haWRPdXRwdXQtMTcxNzc2NTY4ODI3M19mbG93Y2hhcnQtcG9pbnRFbmQpIiBzdHlsZT0iZmlsbDpub25lOyIgY2xhc3M9ImVkZ2UtdGhpY2tuZXNzLW5vcm1hbCBlZGdlLXBhdHRlcm4tc29saWQgZmxvd2NoYXJ0LWxpbmsgTFMtUiBMRS1UIiBpZD0iTC1SLVQtMCIgZD0iTTYzNC4yNTQsMzYyNC4yMzNMNjM0LjE3MSwzNjI4LjMxN0M2MzQuMDg3LDM2MzIuNCw2MzMuOTIxLDM2NDAuNTY3LDYzMy44MzcsMzY1MC40NDJDNjMzLjc1NCwzNjYwLjMxNyw2MzMuNzU0LDM2NzEuOSw2MzMuNzU0LDM2ODMuNDgzQzYzMy43NTQsMzY5NS4wNjcsNjMzLjc1NCwzNzA2LjY1LDYzMy43NTQsMzcxNS43MjVDNjMzLjc1NCwzNzI0LjgsNjMzLjc1NCwzNzMxLjM2Nyw2MzMuNzU0LDM3MzQuNjVMNjMzLjc1NCwzNzM3LjkzMyI+PC9wYXRoPjxwYXRoIG1hcmtlci1lbmQ9InVybCgjZ2VNZXJtYWlkT3V0cHV0LTE3MTc3NjU2ODgyNzNfZmxvd2NoYXJ0LXBvaW50RW5kKSIgc3R5bGU9ImZpbGw6bm9uZTsiIGNsYXNzPSJlZGdlLXRoaWNrbmVzcy1ub3JtYWwgZWRnZS1wYXR0ZXJuLXNvbGlkIGZsb3djaGFydC1saW5rIExTLVMgTEUtVSIgaWQ9IkwtUy1VLTAiIGQ9Ik0zNTEuMDgzLDI2MDQuODE3TDM1OC41MzEsMjYwOC45QzM2NS45NzksMjYxMi45ODMsMzgwLjg3NSwyNjIxLjE1LDM4OC4zMjMsMjYzMS4wMjVDMzk1Ljc3MSwyNjQwLjksMzk1Ljc3MSwyNjUyLjQ4MywzOTUuNzcxLDI2NjQuMDY3QzM5NS43NzEsMjY3NS42NSwzOTUuNzcxLDI2ODcuMjMzLDM5NS43NzEsMjY5Ni4zMDhDMzk1Ljc3MSwyNzA1LjM4MywzOTUuNzcxLDI3MTEuOTUsMzk1Ljc3MSwyNzE1LjIzM0wzOTUuNzcxLDI3MTguNTE3Ij48L3BhdGg+PHBhdGggbWFya2VyLWVuZD0idXJsKCNnZU1lcm1haWRPdXRwdXQtMTcxNzc2NTY4ODI3M19mbG93Y2hhcnQtcG9pbnRFbmQpIiBzdHlsZT0iZmlsbDpub25lOyIgY2xhc3M9ImVkZ2UtdGhpY2tuZXNzLW5vcm1hbCBlZGdlLXBhdHRlcm4tc29saWQgZmxvd2NoYXJ0LWxpbmsgTFMtVCBMRS1WIiBpZD0iTC1ULVYtMCIgZD0iTTYzMy43NTQsMzc3Ny43MzNMNjMzLjc1NCwzNzgxLjlDNjMzLjc1NCwzNzg2LjA2Nyw2MzMuNzU0LDM3OTQuNCw2MzMuNzU0LDM4MDIuNzMzQzYzMy43NTQsMzgxMS4wNjcsNjMzLjc1NCwzODE5LjQsNjMzLjc1NCwzODI3LjczM0M2MzMuNzU0LDM4MzYuMDY3LDYzMy43NTQsMzg0NC40LDYzMy43NTQsMzg1MS44NUM2MzMuNzU0LDM4NTkuMyw2MzMuNzU0LDM4NjUuODY3LDYzMy43NTQsMzg2OS4xNUw2MzMuNzU0LDM4NzIuNDMzIj48L3BhdGg+PHBhdGggbWFya2VyLWVuZD0idXJsKCNnZU1lcm1haWRPdXRwdXQtMTcxNzc2NTY4ODI3M19mbG93Y2hhcnQtcG9pbnRFbmQpIiBzdHlsZT0iZmlsbDpub25lOyIgY2xhc3M9ImVkZ2UtdGhpY2tuZXNzLW5vcm1hbCBlZGdlLXBhdHRlcm4tc29saWQgZmxvd2NoYXJ0LWxpbmsgTFMtVSBMRS1XIiBpZD0iTC1VLVctMCIgZD0iTTM5NS43NzEsMjc1OC4zMTdMMzk1Ljc3MSwyNzYyLjQ4M0MzOTUuNzcxLDI3NjYuNjUsMzk1Ljc3MSwyNzc0Ljk4MywzOTUuNzcxLDI3ODMuMzE3QzM5NS43NzEsMjc5MS42NSwzOTUuNzcxLDI3OTkuOTgzLDM5NS43NzEsMjgwOC4zMTdDMzk1Ljc3MSwyODE2LjY1LDM5NS43NzEsMjgyNC45ODMsMzk1LjgzNywyODMyLjUxN0MzOTUuOTAzLDI4NDAuMDUsMzk2LjAzNSwyODQ2Ljc4NCwzOTYuMTAxLDI4NTAuMTUxTDM5Ni4xNjcsMjg1My41MTgiPjwvcGF0aD48cGF0aCBtYXJrZXItZW5kPSJ1cmwoI2dlTWVybWFpZE91dHB1dC0xNzE3NzY1Njg4MjczX2Zsb3djaGFydC1wb2ludEVuZCkiIHN0eWxlPSJmaWxsOm5vbmU7IiBjbGFzcz0iZWRnZS10aGlja25lc3Mtbm9ybWFsIGVkZ2UtcGF0dGVybi1zb2xpZCBmbG93Y2hhcnQtbGluayBMUy1WIExFLVkiIGlkPSJMLVYtWS0wIiBkPSJNNjMzLjc1NCwzOTEyLjIzM0w2MzMuNzU0LDM5MTYuNEM2MzMuNzU0LDM5MjAuNTY3LDYzMy43NTQsMzkyOC45LDYzMy43NTQsMzkzNy4yMzNDNjMzLjc1NCwzOTQ1LjU2Nyw2MzMuNzU0LDM5NTMuOSw2MzMuNzU0LDM5NjIuMjMzQzYzMy43NTQsMzk3MC41NjcsNjMzLjc1NCwzOTc4LjksNjMzLjc1NCwzOTg2LjM1QzYzMy43NTQsMzk5My44LDYzMy43NTQsNDAwMC4zNjcsNjMzLjc1NCw0MDAzLjY1TDYzMy43NTQsNDAwNi45MzMiPjwvcGF0aD48cGF0aCBtYXJrZXItZW5kPSJ1cmwoI2dlTWVybWFpZE91dHB1dC0xNzE3NzY1Njg4MjczX2Zsb3djaGFydC1wb2ludEVuZCkiIHN0eWxlPSJmaWxsOm5vbmU7IiBjbGFzcz0iZWRnZS10aGlja25lc3Mtbm9ybWFsIGVkZ2UtcGF0dGVybi1zb2xpZCBmbG93Y2hhcnQtbGluayBMUy1XIExFLVgiIGlkPSJMLVctWC0wIiBkPSJNMzk2LjI3MSwzMDk0LjI4M0wzOTYuMTg4LDMwOTguMzY3QzM5Ni4xMDQsMzEwMi40NSwzOTUuOTM4LDMxMTAuNjE3LDM5NS44NTQsMzEyMC40OTJDMzk1Ljc3MSwzMTMwLjM2NywzOTUuNzcxLDMxNDEuOTUsMzk1Ljc3MSwzMTUzLjUzM0MzOTUuNzcxLDMxNjUuMTE3LDM5NS43NzEsMzE3Ni43LDM5NC4zNTUsMzE4NS44NDVDMzkyLjkzOCwzMTk0Ljk4OSwzOTAuMTA2LDMyMDEuNjk1LDM4OC42OSwzMjA1LjA0OEwzODcuMjczLDMyMDguNDAxIj48L3BhdGg+PHBhdGggbWFya2VyLWVuZD0idXJsKCNnZU1lcm1haWRPdXRwdXQtMTcxNzc2NTY4ODI3M19mbG93Y2hhcnQtcG9pbnRFbmQpIiBzdHlsZT0iZmlsbDpub25lOyIgY2xhc3M9ImVkZ2UtdGhpY2tuZXNzLW5vcm1hbCBlZGdlLXBhdHRlcm4tc29saWQgZmxvd2NoYXJ0LWxpbmsgTFMtVyBMRS1aIiBpZD0iTC1XLVotMCIgZD0iTTQ2OS44NjUsMzAyMC42ODlMNDk3LjE4LDMwMzcuMDM4QzUyNC40OTUsMzA1My4zODcsNTc5LjEyNCwzMDg2LjA4NSw2MDYuNDM5LDMxMDguMjI2QzYzMy43NTQsMzEzMC4zNjcsNjMzLjc1NCwzMTQxLjk1LDYzMy43NTQsMzE1My41MzNDNjMzLjc1NCwzMTY1LjExNyw2MzMuNzU0LDMxNzYuNyw2MzMuNzU0LDMxODUuNzc1QzYzMy43NTQsMzE5NC44NSw2MzMuNzU0LDMyMDEuNDE3LDYzMy43NTQsMzIwNC43TDYzMy43NTQsMzIwNy45ODMiPjwvcGF0aD48cGF0aCBtYXJrZXItZW5kPSJ1cmwoI2dlTWVybWFpZE91dHB1dC0xNzE3NzY1Njg4MjczX2Zsb3djaGFydC1wb2ludEVuZCkiIHN0eWxlPSJmaWxsOm5vbmU7IiBjbGFzcz0iZWRnZS10aGlja25lc3Mtbm9ybWFsIGVkZ2UtcGF0dGVybi1zb2xpZCBmbG93Y2hhcnQtbGluayBMUy1YIExFLUoiIGlkPSJMLVgtSi0wIiBkPSJNNDY5Ljk2NCwzMjEzLjI4M0w0OTIuMTk2LDMyMDkuMTE3QzUxNC40MjcsMzIwNC45NSw1NTguODkxLDMxOTYuNjE3LDU4MS4xMjIsMzE4Ni42NThDNjAzLjM1NCwzMTc2LjcsNjAzLjM1NCwzMTY1LjExNyw2MDMuMzU0LDMxNTMuNTMzQzYwMy4zNTQsMzE0MS45NSw2MDMuMzU0LDMxMzAuMzY3LDYwMy4zNTQsMzEwMC43ODZDNjAzLjM1NCwzMDcxLjIwNiw2MDMuMzU0LDMwMjMuNjI4LDYwMy4zNTQsMjk3Ni4wNUM2MDMuMzU0LDI5MjguNDcyLDYwMy4zNTQsMjg4MC44OTQsNjAzLjM1NCwyODUyLjkzOUM2MDMuMzU0LDI4MjQuOTgzLDYwMy4zNTQsMjgxNi42NSw2MDMuMzU0LDI4MDguMzE3QzYwMy4zNTQsMjc5OS45ODMsNjAzLjM1NCwyNzkxLjY1LDYwMy4zNTQsMjc4MC40NDJDNjAzLjM1NCwyNzY5LjIzMyw2MDMuMzU0LDI3NTUuMTUsNjAzLjM1NCwyNzQxLjA2N0M2MDMuMzU0LDI3MjYuOTgzLDYwMy4zNTQsMjcxMi45LDYwMy4zNTQsMjcwMC4wNjdDNjAzLjM1NCwyNjg3LjIzMyw2MDMuMzU0LDI2NzUuNjUsNjAzLjM1NCwyNjY0LjA2N0M2MDMuMzU0LDI2NTIuNDgzLDYwMy4zNTQsMjY0MC45LDYwMy4zNTQsMjYyOC4wNjdDNjAzLjM1NCwyNjE1LjIzMyw2MDMuMzU0LDI2MDEuMTUsNjAzLjM1NCwyNTg3LjA2N0M2MDMuMzU0LDI1NzIuOTgzLDYwMy4zNTQsMjU1OC45LDYwMy4zNTQsMjU0Ny42OTJDNjAzLjM1NCwyNTM2LjQ4Myw2MDMuMzU0LDI1MjguMTUsNjAzLjM1NCwyNTE5LjgxN0M2MDMuMzU0LDI1MTEuNDgzLDYwMy4zNTQsMjUwMy4xNSw2MDMuMzU0LDI0OTEuOTQyQzYwMy4zNTQsMjQ4MC43MzMsNjAzLjM1NCwyNDY2LjY1LDYwMy4zNTQsMjQ1Mi41NjdDNjAzLjM1NCwyNDM4LjQ4Myw2MDMuMzU0LDI0MjQuNCw2MDMuMzU0LDI0MTMuMTkyQzYwMy4zNTQsMjQwMS45ODMsNjAzLjM1NCwyMzkzLjY1LDYwMy4zNTQsMjM4NS4zMTdDNjAzLjM1NCwyMzc2Ljk4Myw2MDMuMzU0LDIzNjguNjUsNjAzLjM1NCwyMzU3LjQ0MkM2MDMuMzU0LDIzNDYuMjMzLDYwMy4zNTQsMjMzMi4xNSw2MDMuMzU0LDIzMTguMDY3QzYwMy4zNTQsMjMwMy45ODMsNjAzLjM1NCwyMjg5LjksNjAzLjM1NCwyMjc3LjA2N0M2MDMuMzU0LDIyNjQuMjMzLDYwMy4zNTQsMjI1Mi42NSw2MDMuMzU0LDIyNDEuMDY3QzYwMy4zNTQsMjIyOS40ODMsNjAzLjM1NCwyMjE3LjksNjAzLjM1NCwyMTgzLjgzN0M2MDMuMzU0LDIxNDkuNzc1LDYwMy4zNTQsMjA5My4yMzMsNjAzLjM1NCwyMDM2LjY5MkM2MDMuMzU0LDE5ODAuMTUsNjAzLjM1NCwxOTIzLjYwOCw2MDMuMzU0LDE4OTEuMTcxQzYwMy4zNTQsMTg1OC43MzMsNjAzLjM1NCwxODUwLjQsNjAzLjM1NCwxODQyLjA2N0M2MDMuMzU0LDE4MzMuNzMzLDYwMy4zNTQsMTgyNS40LDYwMy4zNTQsMTgxNC4xOTJDNjAzLjM1NCwxODAyLjk4Myw2MDMuMzU0LDE3ODguOSw2MDMuMzU0LDE3NzQuODE3QzYwMy4zNTQsMTc2MC43MzMsNjAzLjM1NCwxNzQ2LjY1LDYwMy4zNTQsMTczNS40NDJDNjAzLjM1NCwxNzI0LjIzMyw2MDMuMzU0LDE3MTUuOSw2MDMuMzU0LDE3MDcuNTY3QzYwMy4zNTQsMTY5OS4yMzMsNjAzLjM1NCwxNjkwLjksNjAzLjM1NCwxNjc5LjY5MkM2MDMuMzU0LDE2NjguNDgzLDYwMy4zNTQsMTY1NC40LDYwMy4zNTQsMTY0MC4zMTdDNjAzLjM1NCwxNjI2LjIzMyw2MDMuMzU0LDE2MTIuMTUsNjAzLjM1NCwxNTk5LjMxN0M2MDMuMzU0LDE1ODYuNDgzLDYwMy4zNTQsMTU3NC45LDYwMy4zNTQsMTU2My4zMTdDNjAzLjM1NCwxNTUxLjczMyw2MDMuMzU0LDE1NDAuMTUsNjAzLjM1NCwxNTA5LjA5NkM2MDMuMzU0LDE0NzguMDQyLDYwMy4zNTQsMTQyNy41MTcsNjAzLjM1NCwxMzc2Ljk5MkM2MDMuMzU0LDEzMjYuNDY3LDYwMy4zNTQsMTI3NS45NDIsNjAzLjM1NCwxMjQ2LjUxMkM2MDMuMzU0LDEyMTcuMDgzLDYwMy4zNTQsMTIwOC43NSw2MDMuMzU0LDEyMDAuNDE3QzYwMy4zNTQsMTE5Mi4wODMsNjAzLjM1NCwxMTgzLjc1LDU4MC4wNjMsMTE3NS4yMThDNTU2Ljc3MywxMTY2LjY4Niw1MTAuMTkxLDExNTcuOTU2LDQ4Ni45LDExNTMuNTkxTDQ2My42MDksMTE0OS4yMjYiPjwvcGF0aD48cGF0aCBtYXJrZXItZW5kPSJ1cmwoI2dlTWVybWFpZE91dHB1dC0xNzE3NzY1Njg4MjczX2Zsb3djaGFydC1wb2ludEVuZCkiIHN0eWxlPSJmaWxsOm5vbmU7IiBjbGFzcz0iZWRnZS10aGlja25lc3Mtbm9ybWFsIGVkZ2UtcGF0dGVybi1zb2xpZCBmbG93Y2hhcnQtbGluayBMUy1ZIExFLUFBIiBpZD0iTC1ZLUFBLTAiIGQ9Ik02MzMuNzU0LDQwNDYuNzMzTDYzMy43NTQsNDA1MC45QzYzMy43NTQsNDA1NS4wNjcsNjMzLjc1NCw0MDYzLjQsNjMzLjc1NCw0MDcxLjczM0M2MzMuNzU0LDQwODAuMDY3LDYzMy43NTQsNDA4OC40LDYzMy43NTQsNDA5Ni43MzNDNjMzLjc1NCw0MTA1LjA2Nyw2MzMuNzU0LDQxMTMuNCw2MzMuNzU0LDQxMjAuODVDNjMzLjc1NCw0MTI4LjMsNjMzLjc1NCw0MTM0Ljg2Nyw2MzMuNzU0LDQxMzguMTVMNjMzLjc1NCw0MTQxLjQzMyI+PC9wYXRoPjxwYXRoIG1hcmtlci1lbmQ9InVybCgjZ2VNZXJtYWlkT3V0cHV0LTE3MTc3NjU2ODgyNzNfZmxvd2NoYXJ0LXBvaW50RW5kKSIgc3R5bGU9ImZpbGw6bm9uZTsiIGNsYXNzPSJlZGdlLXRoaWNrbmVzcy1ub3JtYWwgZWRnZS1wYXR0ZXJuLXNvbGlkIGZsb3djaGFydC1saW5rIExTLVogTEUtUiIgaWQ9IkwtWi1SLTAiIGQ9Ik02MzMuNzU0LDMyNDcuNzgzTDYzMy43NTQsMzI1MS45NUM2MzMuNzU0LDMyNTYuMTE3LDYzMy43NTQsMzI2NC40NSw2MzMuNzU0LDMyNzIuNzgzQzYzMy43NTQsMzI4MS4xMTcsNjMzLjc1NCwzMjg5LjQ1LDYzMy43NTQsMzI5Ny43ODNDNjMzLjc1NCwzMzA2LjExNyw2MzMuNzU0LDMzMTQuNDUsNjMzLjgyLDMzMjEuOTgzQzYzMy44ODYsMzMyOS41MTcsNjM0LjAxOCwzMzM2LjI1MSw2MzQuMDg0LDMzMzkuNjE3TDYzNC4xNSwzMzQyLjk4NCI+PC9wYXRoPjwvZz48ZyBjbGFzcz0iZWRnZUxhYmVscyI+PGcgY2xhc3M9ImVkZ2VMYWJlbCI+PGcgdHJhbnNmb3JtPSJ0cmFuc2xhdGUoMCwgMCkiIGNsYXNzPSJsYWJlbCI+PHJlY3QgaGVpZ2h0PSIwIiB3aWR0aD0iMCIgcnk9IjAiIHJ4PSIwIj48L3JlY3Q+PHRleHQgc3R5bGU9IiI+PHRzcGFuIGNsYXNzPSJyb3ciIHg9IjAiIGR5PSIxZW0iIHhtbDpzcGFjZT0icHJlc2VydmUiPjwvdHNwYW4+PC90ZXh0PjwvZz48L2c+PGcgY2xhc3M9ImVkZ2VMYWJlbCI+PGcgdHJhbnNmb3JtPSJ0cmFuc2xhdGUoMCwgMCkiIGNsYXNzPSJsYWJlbCI+PHJlY3QgaGVpZ2h0PSIwIiB3aWR0aD0iMCIgcnk9IjAiIHJ4PSIwIj48L3JlY3Q+PHRleHQgc3R5bGU9IiI+PHRzcGFuIGNsYXNzPSJyb3ciIHg9IjAiIGR5PSIxZW0iIHhtbDpzcGFjZT0icHJlc2VydmUiPjwvdHNwYW4+PC90ZXh0PjwvZz48L2c+PGcgdHJhbnNmb3JtPSJ0cmFuc2xhdGUoNDk1Ljk3MDgyOTk2MzY4NDEsIDM3NC42MzMzMzEyOTg4MjgxKSIgY2xhc3M9ImVkZ2VMYWJlbCI+PGcgdHJhbnNmb3JtPSJ0cmFuc2xhdGUoLTEyLjMyNDk5OTgwOTI2NTEzNywgLTkuNzUpIiBjbGFzcz0ibGFiZWwiPjxyZWN0IGhlaWdodD0iMTkuNDk5OTIzNzA2MDU0Njg4IiB3aWR0aD0iMjQuNjQ5OTAyMzQzNzUiIHJ5PSIwIiByeD0iMCI+PC9yZWN0Pjx0ZXh0IHN0eWxlPSIiPjx0c3BhbiBjbGFzcz0icm93IiB4PSIwIiBkeT0iMWVtIiB4bWw6c3BhY2U9InByZXNlcnZlIj5ZZXM8L3RzcGFuPjwvdGV4dD48L2c+PC9nPjxnIHRyYW5zZm9ybT0idHJhbnNsYXRlKDE5Ny4yNzkxNzE5NDM2NjQ1NSwgNjUyLjY2NjY1NjQ5NDE0MDYpIiBjbGFzcz0iZWRnZUxhYmVsIj48ZyB0cmFuc2Zvcm09InRyYW5zbGF0ZSgtMTAuMzk5OTk5NjE4NTMwMjczLCAtOS43NSkiIGNsYXNzPSJsYWJlbCI+PHJlY3QgaGVpZ2h0PSIxOS40OTk5MjM3MDYwNTQ2ODgiIHdpZHRoPSIyMC43OTk5MTcyMjEwNjkzMzYiIHJ5PSIwIiByeD0iMCI+PC9yZWN0Pjx0ZXh0IHN0eWxlPSIiPjx0c3BhbiBjbGFzcz0icm93IiB4PSIwIiBkeT0iMWVtIiB4bWw6c3BhY2U9InByZXNlcnZlIj5ObzwvdHNwYW4+PC90ZXh0PjwvZz48L2c+PGcgdHJhbnNmb3JtPSJ0cmFuc2xhdGUoNTczLjI2MjQ5Njk0ODI0MjIsIDY1Mi42NjY2NTY0OTQxNDA2KSIgY2xhc3M9ImVkZ2VMYWJlbCI+PGcgdHJhbnNmb3JtPSJ0cmFuc2xhdGUoLTEyLjMyNDk5OTgwOTI2NTEzNywgLTkuNzUpIiBjbGFzcz0ibGFiZWwiPjxyZWN0IGhlaWdodD0iMTkuNDk5OTIzNzA2MDU0Njg4IiB3aWR0aD0iMjQuNjQ5OTAyMzQzNzUiIHJ5PSIwIiByeD0iMCI+PC9yZWN0Pjx0ZXh0IHN0eWxlPSIiPjx0c3BhbiBjbGFzcz0icm93IiB4PSIwIiBkeT0iMWVtIiB4bWw6c3BhY2U9InByZXNlcnZlIj5ZZXM8L3RzcGFuPjwvdGV4dD48L2c+PC9nPjxnIHRyYW5zZm9ybT0idHJhbnNsYXRlKDM2MS44MjUwMDA3NjI5Mzk0NSwgNzI5LjY2NjY1NjQ5NDE0MDYpIiBjbGFzcz0iZWRnZUxhYmVsIj48ZyB0cmFuc2Zvcm09InRyYW5zbGF0ZSgtMTAuMzk5OTk5NjE4NTMwMjczLCAtOS43NSkiIGNsYXNzPSJsYWJlbCI+PHJlY3QgaGVpZ2h0PSIxOS40OTk5MjM3MDYwNTQ2ODgiIHdpZHRoPSIyMC43OTk5MTcyMjEwNjkzMzYiIHJ5PSIwIiByeD0iMCI+PC9yZWN0Pjx0ZXh0IHN0eWxlPSIiPjx0c3BhbiBjbGFzcz0icm93IiB4PSIwIiBkeT0iMWVtIiB4bWw6c3BhY2U9InByZXNlcnZlIj5ObzwvdHNwYW4+PC90ZXh0PjwvZz48L2c+PGcgY2xhc3M9ImVkZ2VMYWJlbCI+PGcgdHJhbnNmb3JtPSJ0cmFuc2xhdGUoMCwgMCkiIGNsYXNzPSJsYWJlbCI+PHJlY3QgaGVpZ2h0PSIwIiB3aWR0aD0iMCIgcnk9IjAiIHJ4PSIwIj48L3JlY3Q+PHRleHQgc3R5bGU9IiI+PHRzcGFuIGNsYXNzPSJyb3ciIHg9IjAiIGR5PSIxZW0iIHhtbDpzcGFjZT0icHJlc2VydmUiPjwvdHNwYW4+PC90ZXh0PjwvZz48L2c+PGcgY2xhc3M9ImVkZ2VMYWJlbCI+PGcgdHJhbnNmb3JtPSJ0cmFuc2xhdGUoMCwgMCkiIGNsYXNzPSJsYWJlbCI+PHJlY3QgaGVpZ2h0PSIwIiB3aWR0aD0iMCIgcnk9IjAiIHJ4PSIwIj48L3JlY3Q+PHRleHQgc3R5bGU9IiI+PHRzcGFuIGNsYXNzPSJyb3ciIHg9IjAiIGR5PSIxZW0iIHhtbDpzcGFjZT0icHJlc2VydmUiPjwvdHNwYW4+PC90ZXh0PjwvZz48L2c+PGcgY2xhc3M9ImVkZ2VMYWJlbCI+PGcgdHJhbnNmb3JtPSJ0cmFuc2xhdGUoMCwgMCkiIGNsYXNzPSJsYWJlbCI+PHJlY3QgaGVpZ2h0PSIwIiB3aWR0aD0iMCIgcnk9IjAiIHJ4PSIwIj48L3JlY3Q+PHRleHQgc3R5bGU9IiI+PHRzcGFuIGNsYXNzPSJyb3ciIHg9IjAiIGR5PSIxZW0iIHhtbDpzcGFjZT0icHJlc2VydmUiPjwvdHNwYW4+PC90ZXh0PjwvZz48L2c+PGcgY2xhc3M9ImVkZ2VMYWJlbCI+PGcgdHJhbnNmb3JtPSJ0cmFuc2xhdGUoMCwgMCkiIGNsYXNzPSJsYWJlbCI+PHJlY3QgaGVpZ2h0PSIwIiB3aWR0aD0iMCIgcnk9IjAiIHJ4PSIwIj48L3JlY3Q+PHRleHQgc3R5bGU9IiI+PHRzcGFuIGNsYXNzPSJyb3ciIHg9IjAiIGR5PSIxZW0iIHhtbDpzcGFjZT0icHJlc2VydmUiPjwvdHNwYW4+PC90ZXh0PjwvZz48L2c+PGcgY2xhc3M9ImVkZ2VMYWJlbCI+PGcgdHJhbnNmb3JtPSJ0cmFuc2xhdGUoMCwgMCkiIGNsYXNzPSJsYWJlbCI+PHJlY3QgaGVpZ2h0PSIwIiB3aWR0aD0iMCIgcnk9IjAiIHJ4PSIwIj48L3JlY3Q+PHRleHQgc3R5bGU9IiI+PHRzcGFuIGNsYXNzPSJyb3ciIHg9IjAiIGR5PSIxZW0iIHhtbDpzcGFjZT0icHJlc2VydmUiPjwvdHNwYW4+PC90ZXh0PjwvZz48L2c+PGcgY2xhc3M9ImVkZ2VMYWJlbCI+PGcgdHJhbnNmb3JtPSJ0cmFuc2xhdGUoMCwgMCkiIGNsYXNzPSJsYWJlbCI+PHJlY3QgaGVpZ2h0PSIwIiB3aWR0aD0iMCIgcnk9IjAiIHJ4PSIwIj48L3JlY3Q+PHRleHQgc3R5bGU9IiI+PHRzcGFuIGNsYXNzPSJyb3ciIHg9IjAiIGR5PSIxZW0iIHhtbDpzcGFjZT0icHJlc2VydmUiPjwvdHNwYW4+PC90ZXh0PjwvZz48L2c+PGcgdHJhbnNmb3JtPSJ0cmFuc2xhdGUoNDQ2LjE3MDgzMzU4NzY0NjUsIDE1NjMuMzE2NjUwMzkwNjI1KSIgY2xhc3M9ImVkZ2VMYWJlbCI+PGcgdHJhbnNmb3JtPSJ0cmFuc2xhdGUoLTEwLjM5OTk5OTYxODUzMDI3MywgLTkuNzUpIiBjbGFzcz0ibGFiZWwiPjxyZWN0IGhlaWdodD0iMTkuNDk5OTIzNzA2MDU0Njg4IiB3aWR0aD0iMjAuNzk5OTE3MjIxMDY5MzM2IiByeT0iMCIgcng9IjAiPjwvcmVjdD48dGV4dCBzdHlsZT0iIj48dHNwYW4gY2xhc3M9InJvdyIgeD0iMCIgZHk9IjFlbSIgeG1sOnNwYWNlPSJwcmVzZXJ2ZSI+Tm88L3RzcGFuPjwvdGV4dD48L2c+PC9nPjxnIHRyYW5zZm9ybT0idHJhbnNsYXRlKDE4My4yNzkxNjk1NTk0Nzg3NiwgMTY0MC4zMTY2NTAzOTA2MjUpIiBjbGFzcz0iZWRnZUxhYmVsIj48ZyB0cmFuc2Zvcm09InRyYW5zbGF0ZSgtMTIuMzI0OTk5ODA5MjY1MTM3LCAtOS43NSkiIGNsYXNzPSJsYWJlbCI+PHJlY3QgaGVpZ2h0PSIxOS40OTk5MjM3MDYwNTQ2ODgiIHdpZHRoPSIyNC42NDk5MDIzNDM3NSIgcnk9IjAiIHJ4PSIwIj48L3JlY3Q+PHRleHQgc3R5bGU9IiI+PHRzcGFuIGNsYXNzPSJyb3ciIHg9IjAiIGR5PSIxZW0iIHhtbDpzcGFjZT0icHJlc2VydmUiPlllczwvdHNwYW4+PC90ZXh0PjwvZz48L2c+PGcgY2xhc3M9ImVkZ2VMYWJlbCI+PGcgdHJhbnNmb3JtPSJ0cmFuc2xhdGUoMCwgMCkiIGNsYXNzPSJsYWJlbCI+PHJlY3QgaGVpZ2h0PSIwIiB3aWR0aD0iMCIgcnk9IjAiIHJ4PSIwIj48L3JlY3Q+PHRleHQgc3R5bGU9IiI+PHRzcGFuIGNsYXNzPSJyb3ciIHg9IjAiIGR5PSIxZW0iIHhtbDpzcGFjZT0icHJlc2VydmUiPjwvdHNwYW4+PC90ZXh0PjwvZz48L2c+PGcgY2xhc3M9ImVkZ2VMYWJlbCI+PGcgdHJhbnNmb3JtPSJ0cmFuc2xhdGUoMCwgMCkiIGNsYXNzPSJsYWJlbCI+PHJlY3QgaGVpZ2h0PSIwIiB3aWR0aD0iMCIgcnk9IjAiIHJ4PSIwIj48L3JlY3Q+PHRleHQgc3R5bGU9IiI+PHRzcGFuIGNsYXNzPSJyb3ciIHg9IjAiIGR5PSIxZW0iIHhtbDpzcGFjZT0icHJlc2VydmUiPjwvdHNwYW4+PC90ZXh0PjwvZz48L2c+PGcgdHJhbnNmb3JtPSJ0cmFuc2xhdGUoMzE5LjQwNDE3MDAzNjMxNTksIDIyNDEuMDY2NjUwMzkwNjI1KSIgY2xhc3M9ImVkZ2VMYWJlbCI+PGcgdHJhbnNmb3JtPSJ0cmFuc2xhdGUoLTEyLjMyNDk5OTgwOTI2NTEzNywgLTkuNzUpIiBjbGFzcz0ibGFiZWwiPjxyZWN0IGhlaWdodD0iMTkuNDk5OTIzNzA2MDU0Njg4IiB3aWR0aD0iMjQuNjQ5OTAyMzQzNzUiIHJ5PSIwIiByeD0iMCI+PC9yZWN0Pjx0ZXh0IHN0eWxlPSIiPjx0c3BhbiBjbGFzcz0icm93IiB4PSIwIiBkeT0iMWVtIiB4bWw6c3BhY2U9InByZXNlcnZlIj5ZZXM8L3RzcGFuPjwvdGV4dD48L2c+PC9nPjxnIHRyYW5zZm9ybT0idHJhbnNsYXRlKDEwNy43NDE2Njg3MDExNzE4OCwgMjU4Ny4wNjY2NTAzOTA2MjUpIiBjbGFzcz0iZWRnZUxhYmVsIj48ZyB0cmFuc2Zvcm09InRyYW5zbGF0ZSgtMTAuMzk5OTk5NjE4NTMwMjczLCAtOS43NSkiIGNsYXNzPSJsYWJlbCI+PHJlY3QgaGVpZ2h0PSIxOS40OTk5MjM3MDYwNTQ2ODgiIHdpZHRoPSIyMC43OTk5MTcyMjEwNjkzMzYiIHJ5PSIwIiByeD0iMCI+PC9yZWN0Pjx0ZXh0IHN0eWxlPSIiPjx0c3BhbiBjbGFzcz0icm93IiB4PSIwIiBkeT0iMWVtIiB4bWw6c3BhY2U9InByZXNlcnZlIj5ObzwvdHNwYW4+PC90ZXh0PjwvZz48L2c+PGcgY2xhc3M9ImVkZ2VMYWJlbCI+PGcgdHJhbnNmb3JtPSJ0cmFuc2xhdGUoMCwgMCkiIGNsYXNzPSJsYWJlbCI+PHJlY3QgaGVpZ2h0PSIwIiB3aWR0aD0iMCIgcnk9IjAiIHJ4PSIwIj48L3JlY3Q+PHRleHQgc3R5bGU9IiI+PHRzcGFuIGNsYXNzPSJyb3ciIHg9IjAiIGR5PSIxZW0iIHhtbDpzcGFjZT0icHJlc2VydmUiPjwvdHNwYW4+PC90ZXh0PjwvZz48L2c+PGcgY2xhc3M9ImVkZ2VMYWJlbCI+PGcgdHJhbnNmb3JtPSJ0cmFuc2xhdGUoMCwgMCkiIGNsYXNzPSJsYWJlbCI+PHJlY3QgaGVpZ2h0PSIwIiB3aWR0aD0iMCIgcnk9IjAiIHJ4PSIwIj48L3JlY3Q+PHRleHQgc3R5bGU9IiI+PHRzcGFuIGNsYXNzPSJyb3ciIHg9IjAiIGR5PSIxZW0iIHhtbDpzcGFjZT0icHJlc2VydmUiPjwvdHNwYW4+PC90ZXh0PjwvZz48L2c+PGcgY2xhc3M9ImVkZ2VMYWJlbCI+PGcgdHJhbnNmb3JtPSJ0cmFuc2xhdGUoMCwgMCkiIGNsYXNzPSJsYWJlbCI+PHJlY3QgaGVpZ2h0PSIwIiB3aWR0aD0iMCIgcnk9IjAiIHJ4PSIwIj48L3JlY3Q+PHRleHQgc3R5bGU9IiI+PHRzcGFuIGNsYXNzPSJyb3ciIHg9IjAiIGR5PSIxZW0iIHhtbDpzcGFjZT0icHJlc2VydmUiPjwvdHNwYW4+PC90ZXh0PjwvZz48L2c+PGcgY2xhc3M9ImVkZ2VMYWJlbCI+PGcgdHJhbnNmb3JtPSJ0cmFuc2xhdGUoMCwgMCkiIGNsYXNzPSJsYWJlbCI+PHJlY3QgaGVpZ2h0PSIwIiB3aWR0aD0iMCIgcnk9IjAiIHJ4PSIwIj48L3JlY3Q+PHRleHQgc3R5bGU9IiI+PHRzcGFuIGNsYXNzPSJyb3ciIHg9IjAiIGR5PSIxZW0iIHhtbDpzcGFjZT0icHJlc2VydmUiPjwvdHNwYW4+PC90ZXh0PjwvZz48L2c+PGcgdHJhbnNmb3JtPSJ0cmFuc2xhdGUoNzQ0LjI5NTgyODgxOTI3NDksIDI2NjQuMDY2NjUwMzkwNjI1KSIgY2xhc3M9ImVkZ2VMYWJlbCI+PGcgdHJhbnNmb3JtPSJ0cmFuc2xhdGUoLTEyLjMyNDk5OTgwOTI2NTEzNywgLTkuNzUpIiBjbGFzcz0ibGFiZWwiPjxyZWN0IGhlaWdodD0iMTkuNDk5OTIzNzA2MDU0Njg4IiB3aWR0aD0iMjQuNjQ5OTAyMzQzNzUiIHJ5PSIwIiByeD0iMCI+PC9yZWN0Pjx0ZXh0IHN0eWxlPSIiPjx0c3BhbiBjbGFzcz0icm93IiB4PSIwIiBkeT0iMWVtIiB4bWw6c3BhY2U9InByZXNlcnZlIj5ZZXM8L3RzcGFuPjwvdGV4dD48L2c+PC9nPjxnIHRyYW5zZm9ybT0idHJhbnNsYXRlKDYzMy43NTQxNjQ2OTU3Mzk3LCAzNjgzLjQ4MzMyMjE0MzU1NDcpIiBjbGFzcz0iZWRnZUxhYmVsIj48ZyB0cmFuc2Zvcm09InRyYW5zbGF0ZSgtMTAuMzk5OTk5NjE4NTMwMjczLCAtOS43NSkiIGNsYXNzPSJsYWJlbCI+PHJlY3QgaGVpZ2h0PSIxOS40OTk5MjM3MDYwNTQ2ODgiIHdpZHRoPSIyMC43OTk5MTcyMjEwNjkzMzYiIHJ5PSIwIiByeD0iMCI+PC9yZWN0Pjx0ZXh0IHN0eWxlPSIiPjx0c3BhbiBjbGFzcz0icm93IiB4PSIwIiBkeT0iMWVtIiB4bWw6c3BhY2U9InByZXNlcnZlIj5ObzwvdHNwYW4+PC90ZXh0PjwvZz48L2c+PGcgY2xhc3M9ImVkZ2VMYWJlbCI+PGcgdHJhbnNmb3JtPSJ0cmFuc2xhdGUoMCwgMCkiIGNsYXNzPSJsYWJlbCI+PHJlY3QgaGVpZ2h0PSIwIiB3aWR0aD0iMCIgcnk9IjAiIHJ4PSIwIj48L3JlY3Q+PHRleHQgc3R5bGU9IiI+PHRzcGFuIGNsYXNzPSJyb3ciIHg9IjAiIGR5PSIxZW0iIHhtbDpzcGFjZT0icHJlc2VydmUiPjwvdHNwYW4+PC90ZXh0PjwvZz48L2c+PGcgY2xhc3M9ImVkZ2VMYWJlbCI+PGcgdHJhbnNmb3JtPSJ0cmFuc2xhdGUoMCwgMCkiIGNsYXNzPSJsYWJlbCI+PHJlY3QgaGVpZ2h0PSIwIiB3aWR0aD0iMCIgcnk9IjAiIHJ4PSIwIj48L3JlY3Q+PHRleHQgc3R5bGU9IiI+PHRzcGFuIGNsYXNzPSJyb3ciIHg9IjAiIGR5PSIxZW0iIHhtbDpzcGFjZT0icHJlc2VydmUiPjwvdHNwYW4+PC90ZXh0PjwvZz48L2c+PGcgY2xhc3M9ImVkZ2VMYWJlbCI+PGcgdHJhbnNmb3JtPSJ0cmFuc2xhdGUoMCwgMCkiIGNsYXNzPSJsYWJlbCI+PHJlY3QgaGVpZ2h0PSIwIiB3aWR0aD0iMCIgcnk9IjAiIHJ4PSIwIj48L3JlY3Q+PHRleHQgc3R5bGU9IiI+PHRzcGFuIGNsYXNzPSJyb3ciIHg9IjAiIGR5PSIxZW0iIHhtbDpzcGFjZT0icHJlc2VydmUiPjwvdHNwYW4+PC90ZXh0PjwvZz48L2c+PGcgY2xhc3M9ImVkZ2VMYWJlbCI+PGcgdHJhbnNmb3JtPSJ0cmFuc2xhdGUoMCwgMCkiIGNsYXNzPSJsYWJlbCI+PHJlY3QgaGVpZ2h0PSIwIiB3aWR0aD0iMCIgcnk9IjAiIHJ4PSIwIj48L3JlY3Q+PHRleHQgc3R5bGU9IiI+PHRzcGFuIGNsYXNzPSJyb3ciIHg9IjAiIGR5PSIxZW0iIHhtbDpzcGFjZT0icHJlc2VydmUiPjwvdHNwYW4+PC90ZXh0PjwvZz48L2c+PGcgdHJhbnNmb3JtPSJ0cmFuc2xhdGUoMzk1Ljc3MDgzNDkyMjc5MDUsIDMxNTMuNTMzMzA5OTM2NTIzNCkiIGNsYXNzPSJlZGdlTGFiZWwiPjxnIHRyYW5zZm9ybT0idHJhbnNsYXRlKC0xMi4zMjQ5OTk4MDkyNjUxMzcsIC05Ljc1KSIgY2xhc3M9ImxhYmVsIj48cmVjdCBoZWlnaHQ9IjE5LjQ5OTkyMzcwNjA1NDY4OCIgd2lkdGg9IjI0LjY0OTkwMjM0Mzc1IiByeT0iMCIgcng9IjAiPjwvcmVjdD48dGV4dCBzdHlsZT0iIj48dHNwYW4gY2xhc3M9InJvdyIgeD0iMCIgZHk9IjFlbSIgeG1sOnNwYWNlPSJwcmVzZXJ2ZSI+WWVzPC90c3Bhbj48L3RleHQ+PC9nPjwvZz48ZyB0cmFuc2Zvcm09InRyYW5zbGF0ZSg2MzMuNzU0MTY0Njk1NzM5NywgMzE1My41MzMzMDk5MzY1MjM0KSIgY2xhc3M9ImVkZ2VMYWJlbCI+PGcgdHJhbnNmb3JtPSJ0cmFuc2xhdGUoLTEwLjM5OTk5OTYxODUzMDI3MywgLTkuNzUpIiBjbGFzcz0ibGFiZWwiPjxyZWN0IGhlaWdodD0iMTkuNDk5OTIzNzA2MDU0Njg4IiB3aWR0aD0iMjAuNzk5OTE3MjIxMDY5MzM2IiByeT0iMCIgcng9IjAiPjwvcmVjdD48dGV4dCBzdHlsZT0iIj48dHNwYW4gY2xhc3M9InJvdyIgeD0iMCIgZHk9IjFlbSIgeG1sOnNwYWNlPSJwcmVzZXJ2ZSI+Tm88L3RzcGFuPjwvdGV4dD48L2c+PC9nPjxnIGNsYXNzPSJlZGdlTGFiZWwiPjxnIHRyYW5zZm9ybT0idHJhbnNsYXRlKDAsIDApIiBjbGFzcz0ibGFiZWwiPjxyZWN0IGhlaWdodD0iMCIgd2lkdGg9IjAiIHJ5PSIwIiByeD0iMCI+PC9yZWN0Pjx0ZXh0IHN0eWxlPSIiPjx0c3BhbiBjbGFzcz0icm93IiB4PSIwIiBkeT0iMWVtIiB4bWw6c3BhY2U9InByZXNlcnZlIj48L3RzcGFuPjwvdGV4dD48L2c+PC9nPjxnIGNsYXNzPSJlZGdlTGFiZWwiPjxnIHRyYW5zZm9ybT0idHJhbnNsYXRlKDAsIDApIiBjbGFzcz0ibGFiZWwiPjxyZWN0IGhlaWdodD0iMCIgd2lkdGg9IjAiIHJ5PSIwIiByeD0iMCI+PC9yZWN0Pjx0ZXh0IHN0eWxlPSIiPjx0c3BhbiBjbGFzcz0icm93IiB4PSIwIiBkeT0iMWVtIiB4bWw6c3BhY2U9InByZXNlcnZlIj48L3RzcGFuPjwvdGV4dD48L2c+PC9nPjxnIGNsYXNzPSJlZGdlTGFiZWwiPjxnIHRyYW5zZm9ybT0idHJhbnNsYXRlKDAsIDApIiBjbGFzcz0ibGFiZWwiPjxyZWN0IGhlaWdodD0iMCIgd2lkdGg9IjAiIHJ5PSIwIiByeD0iMCI+PC9yZWN0Pjx0ZXh0IHN0eWxlPSIiPjx0c3BhbiBjbGFzcz0icm93IiB4PSIwIiBkeT0iMWVtIiB4bWw6c3BhY2U9InByZXNlcnZlIj48L3RzcGFuPjwvdGV4dD48L2c+PC9nPjwvZz48ZyBjbGFzcz0ibm9kZXMiPjxnIHRyYW5zZm9ybT0idHJhbnNsYXRlKDIwNy40ODMzMzQ1NDEzMjA4LCAxNy4yNSkiIGRhdGEtaWQ9IkEiIGRhdGEtbm9kZT0idHJ1ZSIgaWQ9ImZsb3djaGFydC1BLTEwNTEiIGNsYXNzPSJub2RlIGRlZmF1bHQgZGVmYXVsdCBmbG93Y2hhcnQtbGFiZWwiPjxwb2x5Z29uIHN0eWxlPSIiIHRyYW5zZm9ybT0idHJhbnNsYXRlKC0xMDEuNTk5OTk4NDc0MTIxMSwxNy4yNSkiIGNsYXNzPSJsYWJlbC1jb250YWluZXIiIHBvaW50cz0iNS43NSwwIDE5Ny40NDk5OTY5NDgyNDIyLDAgMjE0LjY5OTk5Njk0ODI0MjIsLTM0LjUgLTExLjUsLTM0LjUiPjwvcG9seWdvbj48ZyB0cmFuc2Zvcm09InRyYW5zbGF0ZSgwLCAtOS43NSkiIHN0eWxlPSIiIGNsYXNzPSJsYWJlbCI+PHJlY3Q+PC9yZWN0Pjx0ZXh0IHN0eWxlPSIiPjx0c3BhbiBjbGFzcz0icm93IiB4PSIwIiBkeT0iMWVtIiB4bWw6c3BhY2U9InByZXNlcnZlIj5SZXBsZW5pc2ggVmFsdWUgQWRkIHN0b2NrPC90c3Bhbj48L3RleHQ+PC9nPjwvZz48ZyB0cmFuc2Zvcm09InRyYW5zbGF0ZSgzNzcuOTI1MDAzMDUxNzU3OCwgMjI0LjY5MTY2NTY0OTQxNDA2KSIgZGF0YS1pZD0iQyIgZGF0YS1ub2RlPSJ0cnVlIiBpZD0iZmxvd2NoYXJ0LUMtMTA1MiIgY2xhc3M9Im5vZGUgZGVmYXVsdCBkZWZhdWx0IGZsb3djaGFydC1sYWJlbCI+PHBvbHlnb24gc3R5bGU9IiIgdHJhbnNmb3JtPSJ0cmFuc2xhdGUoLTkwLjE5MTY2NTY0OTQxNDA2LDkwLjE5MTY2NTY0OTQxNDA2KSIgY2xhc3M9ImxhYmVsLWNvbnRhaW5lciIgcG9pbnRzPSI5MC4xOTE2NjU2NDk0MTQwNiwwIDE4MC4zODMzMzEyOTg4MjgxMiwtOTAuMTkxNjY1NjQ5NDE0MDYgOTAuMTkxNjY1NjQ5NDE0MDYsLTE4MC4zODMzMzEyOTg4MjgxMiAwLC05MC4xOTE2NjU2NDk0MTQwNiI+PC9wb2x5Z29uPjxnIHRyYW5zZm9ybT0idHJhbnNsYXRlKDAsIC05Ljc1KSIgc3R5bGU9IiIgY2xhc3M9ImxhYmVsIj48cmVjdD48L3JlY3Q+PHRleHQgc3R5bGU9IiI+PHRzcGFuIGNsYXNzPSJyb3ciIHg9IjAiIGR5PSIxZW0iIHhtbDpzcGFjZT0icHJlc2VydmUiPkZyZXF1ZW50IHByb2Nlc3M/PC90c3Bhbj48L3RleHQ+PC9nPjwvZz48ZyB0cmFuc2Zvcm09InRyYW5zbGF0ZSg0ODUuNzY2NjY3MzY2MDI3ODMsIDE3LjI1KSIgZGF0YS1pZD0iQiIgZGF0YS1ub2RlPSJ0cnVlIiBpZD0iZmxvd2NoYXJ0LUItMTA1MyIgY2xhc3M9Im5vZGUgZGVmYXVsdCBkZWZhdWx0IGZsb3djaGFydC1sYWJlbCI+PHJlY3QgaGVpZ2h0PSIzNC41IiB3aWR0aD0iMjMwLjM2NjY2ODcwMTE3MTg4IiB5PSItMTcuMjUiIHg9Ii0xMTUuMTgzMzM0MzUwNTg1OTQiIHJ5PSI1IiByeD0iNSIgc3R5bGU9IiIgY2xhc3M9ImJhc2ljIGxhYmVsLWNvbnRhaW5lciI+PC9yZWN0PjxnIHRyYW5zZm9ybT0idHJhbnNsYXRlKDAsIC05Ljc1KSIgc3R5bGU9IiIgY2xhc3M9ImxhYmVsIj48cmVjdD48L3JlY3Q+PHRleHQgc3R5bGU9IiI+PHRzcGFuIGNsYXNzPSJyb3ciIHg9IjAiIGR5PSIxZW0iIHhtbDpzcGFjZT0icHJlc2VydmUiPk9yZGVyIHByb2R1Y3Qgd2l0aCBWYWx1ZSBBZGQ8L3RzcGFuPjwvdGV4dD48L2c+PC9nPjxnIHRyYW5zZm9ybT0idHJhbnNsYXRlKDQ5NS45NzA4Mjk5NjM2ODQxLCA1MTMuNjQ5OTkzODk2NDg0NCkiIGRhdGEtaWQ9IkQiIGRhdGEtbm9kZT0idHJ1ZSIgaWQ9ImZsb3djaGFydC1ELTEwNTYiIGNsYXNzPSJub2RlIGRlZmF1bHQgZGVmYXVsdCBmbG93Y2hhcnQtbGFiZWwiPjxwb2x5Z29uIHN0eWxlPSIiIHRyYW5zZm9ybT0idHJhbnNsYXRlKC03OS4yNjY2NjY0MTIzNTM1Miw3OS4yNjY2NjY0MTIzNTM1MikiIGNsYXNzPSJsYWJlbC1jb250YWluZXIiIHBvaW50cz0iNzkuMjY2NjY2NDEyMzUzNTIsMCAxNTguNTMzMzMyODI0NzA3MDMsLTc5LjI2NjY2NjQxMjM1MzUyIDc5LjI2NjY2NjQxMjM1MzUyLC0xNTguNTMzMzMyODI0NzA3MDMgMCwtNzkuMjY2NjY2NDEyMzUzNTIiPjwvcG9seWdvbj48ZyB0cmFuc2Zvcm09InRyYW5zbGF0ZSgwLCAtOS43NSkiIHN0eWxlPSIiIGNsYXNzPSJsYWJlbCI+PHJlY3Q+PC9yZWN0Pjx0ZXh0IHN0eWxlPSIiPjx0c3BhbiBjbGFzcz0icm93IiB4PSIwIiBkeT0iMWVtIiB4bWw6c3BhY2U9InByZXNlcnZlIj5OZXcgdGVtcGxhdGU/PC90c3Bhbj48L3RleHQ+PC9nPjwvZz48ZyB0cmFuc2Zvcm09InRyYW5zbGF0ZSgxOTcuMjc5MTcxOTQzNjY0NTUsIDg2NC4xNjY2NTY0OTQxNDA2KSIgZGF0YS1pZD0iRiIgZGF0YS1ub2RlPSJ0cnVlIiBpZD0iZmxvd2NoYXJ0LUYtMTA1OCIgY2xhc3M9Im5vZGUgZGVmYXVsdCBkZWZhdWx0IGZsb3djaGFydC1sYWJlbCI+PHJlY3QgaGVpZ2h0PSIzNC41IiB3aWR0aD0iMTQ4LjEwMDAwNjEwMzUxNTYyIiB5PSItMTcuMjUiIHg9Ii03NC4wNTAwMDMwNTE3NTc4MSIgcnk9IjUiIHJ4PSI1IiBzdHlsZT0iIiBjbGFzcz0iYmFzaWMgbGFiZWwtY29udGFpbmVyIj48L3JlY3Q+PGcgdHJhbnNmb3JtPSJ0cmFuc2xhdGUoMCwgLTkuNzUpIiBzdHlsZT0iIiBjbGFzcz0ibGFiZWwiPjxyZWN0PjwvcmVjdD48dGV4dCBzdHlsZT0iIj48dHNwYW4gY2xhc3M9InJvdyIgeD0iMCIgZHk9IjFlbSIgeG1sOnNwYWNlPSJwcmVzZXJ2ZSI+Q3JlYXRlIHdvcmsgb3JkZXI8L3RzcGFuPjwvdGV4dD48L2c+PC9nPjxnIHRyYW5zZm9ybT0idHJhbnNsYXRlKDU3My4yNjI0OTY5NDgyNDIyLCA3MjkuNjY2NjU2NDk0MTQwNikiIGRhdGEtaWQ9IkUiIGRhdGEtbm9kZT0idHJ1ZSIgaWQ9ImZsb3djaGFydC1FLTEwNjAiIGNsYXNzPSJub2RlIGRlZmF1bHQgZGVmYXVsdCBmbG93Y2hhcnQtbGFiZWwiPjxyZWN0IGhlaWdodD0iMzQuNSIgd2lkdGg9IjIxOC4zNjY2Njg3MDExNzE4OCIgeT0iLTE3LjI1IiB4PSItMTA5LjE4MzMzNDM1MDU4NTk0IiByeT0iNSIgcng9IjUiIHN0eWxlPSIiIGNsYXNzPSJiYXNpYyBsYWJlbC1jb250YWluZXIiPjwvcmVjdD48ZyB0cmFuc2Zvcm09InRyYW5zbGF0ZSgwLCAtOS43NSkiIHN0eWxlPSIiIGNsYXNzPSJsYWJlbCI+PHJlY3Q+PC9yZWN0Pjx0ZXh0IHN0eWxlPSIiPjx0c3BhbiBjbGFzcz0icm93IiB4PSIwIiBkeT0iMWVtIiB4bWw6c3BhY2U9InByZXNlcnZlIj5DcmVhdGUgd29yayBvcmRlciB0ZW1wbGF0ZTwvdHNwYW4+PC90ZXh0PjwvZz48L2c+PGcgdHJhbnNmb3JtPSJ0cmFuc2xhdGUoNDk1Ljk3MDgyOTk2MzY4NDEsIDg2NC4xNjY2NTY0OTQxNDA2KSIgZGF0YS1pZD0iRyIgZGF0YS1ub2RlPSJ0cnVlIiBpZD0iZmxvd2NoYXJ0LUctMTA2MiIgY2xhc3M9Im5vZGUgZGVmYXVsdCBkZWZhdWx0IGZsb3djaGFydC1sYWJlbCI+PHJlY3QgaGVpZ2h0PSIzNC41IiB3aWR0aD0iMjI1LjEwMDAwNjEwMzUxNTYyIiB5PSItMTcuMjUiIHg9Ii0xMTIuNTUwMDAzMDUxNzU3ODEiIHJ5PSI1IiByeD0iNSIgc3R5bGU9IiIgY2xhc3M9ImJhc2ljIGxhYmVsLWNvbnRhaW5lciI+PC9yZWN0PjxnIHRyYW5zZm9ybT0idHJhbnNsYXRlKDAsIC05Ljc1KSIgc3R5bGU9IiIgY2xhc3M9ImxhYmVsIj48cmVjdD48L3JlY3Q+PHRleHQgc3R5bGU9IiI+PHRzcGFuIGNsYXNzPSJyb3ciIHg9IjAiIGR5PSIxZW0iIHhtbDpzcGFjZT0icHJlc2VydmUiPkNvcHkgdGVtcGxhdGUgdG8gd29yayBvcmRlcjwvdHNwYW4+PC90ZXh0PjwvZz48L2c+PGcgdHJhbnNmb3JtPSJ0cmFuc2xhdGUoMTk3LjI3OTE3MTk0MzY2NDU1LCA5OTguNjY2NjU2NDk0MTQwNikiIGRhdGEtaWQ9IkgiIGRhdGEtbm9kZT0idHJ1ZSIgaWQ9ImZsb3djaGFydC1ILTEwNjYiIGNsYXNzPSJub2RlIGRlZmF1bHQgZGVmYXVsdCBmbG93Y2hhcnQtbGFiZWwiPjxyZWN0IGhlaWdodD0iMzQuNSIgd2lkdGg9IjI5Mi40MTY2NTY0OTQxNDA2IiB5PSItMTcuMjUiIHg9Ii0xNDYuMjA4MzI4MjQ3MDcwMyIgcnk9IjUiIHJ4PSI1IiBzdHlsZT0iIiBjbGFzcz0iYmFzaWMgbGFiZWwtY29udGFpbmVyIj48L3JlY3Q+PGcgdHJhbnNmb3JtPSJ0cmFuc2xhdGUoMCwgLTkuNzUpIiBzdHlsZT0iIiBjbGFzcz0ibGFiZWwiPjxyZWN0PjwvcmVjdD48dGV4dCBzdHlsZT0iIj48dHNwYW4gY2xhc3M9InJvdyIgeD0iMCIgZHk9IjFlbSIgeG1sOnNwYWNlPSJwcmVzZXJ2ZSI+QWRkIG1hdGVyaWFscyB0byB3b3JrIG9yZGVyIHByb2Nlc3NlczwvdHNwYW4+PC90ZXh0PjwvZz48L2c+PGcgdHJhbnNmb3JtPSJ0cmFuc2xhdGUoNDk1Ljk3MDgyOTk2MzY4NDEsIDk5OC42NjY2NTY0OTQxNDA2KSIgZGF0YS1pZD0iSSIgZGF0YS1ub2RlPSJ0cnVlIiBpZD0iZmxvd2NoYXJ0LUktMTA2OCIgY2xhc3M9Im5vZGUgZGVmYXVsdCBkZWZhdWx0IGZsb3djaGFydC1sYWJlbCI+PHJlY3QgaGVpZ2h0PSIzNC41IiB3aWR0aD0iMjA0Ljk2NjY1OTU0NTg5ODQ0IiB5PSItMTcuMjUiIHg9Ii0xMDIuNDgzMzI5NzcyOTQ5MjIiIHJ5PSI1IiByeD0iNSIgc3R5bGU9IiIgY2xhc3M9ImJhc2ljIGxhYmVsLWNvbnRhaW5lciI+PC9yZWN0PjxnIHRyYW5zZm9ybT0idHJhbnNsYXRlKDAsIC05Ljc1KSIgc3R5bGU9IiIgY2xhc3M9ImxhYmVsIj48cmVjdD48L3JlY3Q+PHRleHQgc3R5bGU9IiI+PHRzcGFuIGNsYXNzPSJyb3ciIHg9IjAiIGR5PSIxZW0iIHhtbDpzcGFjZT0icHJlc2VydmUiPkFkanVzdCBtYXRlcmlhbCBxdWFudGl0aWVzPC90c3Bhbj48L3RleHQ+PC9nPjwvZz48ZyB0cmFuc2Zvcm09InRyYW5zbGF0ZSgzNzcuOTI1MDAzMDUxNzU3OCwgMTEzMy4xNjY2NTY0OTQxNDA2KSIgZGF0YS1pZD0iSiIgZGF0YS1ub2RlPSJ0cnVlIiBpZD0iZmxvd2NoYXJ0LUotMTA3MCIgY2xhc3M9Im5vZGUgZGVmYXVsdCBkZWZhdWx0IGZsb3djaGFydC1sYWJlbCI+PHJlY3QgaGVpZ2h0PSIzNC41IiB3aWR0aD0iMTYwLjk0OTk5Njk0ODI0MjIiIHk9Ii0xNy4yNSIgeD0iLTgwLjQ3NDk5ODQ3NDEyMTEiIHJ5PSI1IiByeD0iNSIgc3R5bGU9IiIgY2xhc3M9ImJhc2ljIGxhYmVsLWNvbnRhaW5lciI+PC9yZWN0PjxnIHRyYW5zZm9ybT0idHJhbnNsYXRlKDAsIC05Ljc1KSIgc3R5bGU9IiIgY2xhc3M9ImxhYmVsIj48cmVjdD48L3JlY3Q+PHRleHQgc3R5bGU9IiI+PHRzcGFuIGNsYXNzPSJyb3ciIHg9IjAiIGR5PSIxZW0iIHhtbDpzcGFjZT0icHJlc2VydmUiPk1vbml0b3Igd29yayBvcmRlcnM8L3RzcGFuPjwvdGV4dD48L2c+PC9nPjxnIHRyYW5zZm9ybT0idHJhbnNsYXRlKDI4OC4xMTI1MDMwNTE3NTc4LCAxMzc2Ljk5MTY1MzQ0MjM4MjgpIiBkYXRhLWlkPSJLIiBkYXRhLW5vZGU9InRydWUiIGlkPSJmbG93Y2hhcnQtSy0xMDc0IiBjbGFzcz0ibm9kZSBkZWZhdWx0IGRlZmF1bHQgZmxvd2NoYXJ0LWxhYmVsIj48cG9seWdvbiBzdHlsZT0iIiB0cmFuc2Zvcm09InRyYW5zbGF0ZSgtMTI2LjU3NDk5Njk0ODI0MjE5LDEyNi41NzQ5OTY5NDgyNDIxOSkiIGNsYXNzPSJsYWJlbC1jb250YWluZXIiIHBvaW50cz0iMTI2LjU3NDk5Njk0ODI0MjE5LDAgMjUzLjE0OTk5Mzg5NjQ4NDM4LC0xMjYuNTc0OTk2OTQ4MjQyMTkgMTI2LjU3NDk5Njk0ODI0MjE5LC0yNTMuMTQ5OTkzODk2NDg0MzggMCwtMTI2LjU3NDk5Njk0ODI0MjE5Ij48L3BvbHlnb24+PGcgdHJhbnNmb3JtPSJ0cmFuc2xhdGUoMCwgLTkuNzUpIiBzdHlsZT0iIiBjbGFzcz0ibGFiZWwiPjxyZWN0PjwvcmVjdD48dGV4dCBzdHlsZT0iIj48dHNwYW4gY2xhc3M9InJvdyIgeD0iMCIgZHk9IjFlbSIgeG1sOnNwYWNlPSJwcmVzZXJ2ZSI+TWF0ZXJpYWwgcXVhbnRpdGllcyBpbiBzdG9jaz88L3RzcGFuPjwvdGV4dD48L2c+PC9nPjxnIHRyYW5zZm9ybT0idHJhbnNsYXRlKDQ0Ni4xNzA4MzM1ODc2NDY1LCAxNjQwLjMxNjY1MDM5MDYyNSkiIGRhdGEtaWQ9IkwiIGRhdGEtbm9kZT0idHJ1ZSIgaWQ9ImZsb3djaGFydC1MLTEwNzYiIGNsYXNzPSJub2RlIGRlZmF1bHQgZGVmYXVsdCBmbG93Y2hhcnQtbGFiZWwiPjxyZWN0IGhlaWdodD0iMzQuNSIgd2lkdGg9IjE0My41NjY2NjU2NDk0MTQwNiIgeT0iLTE3LjI1IiB4PSItNzEuNzgzMzMyODI0NzA3MDMiIHJ5PSI1IiByeD0iNSIgc3R5bGU9IiIgY2xhc3M9ImJhc2ljIGxhYmVsLWNvbnRhaW5lciI+PC9yZWN0PjxnIHRyYW5zZm9ybT0idHJhbnNsYXRlKDAsIC05Ljc1KSIgc3R5bGU9IiIgY2xhc3M9ImxhYmVsIj48cmVjdD48L3JlY3Q+PHRleHQgc3R5bGU9IiI+PHRzcGFuIGNsYXNzPSJyb3ciIHg9IjAiIGR5PSIxZW0iIHhtbDpzcGFjZT0icHJlc2VydmUiPlByb2N1cmUgbWF0ZXJpYWxzPC90c3Bhbj48L3RleHQ+PC9nPjwvZz48ZyB0cmFuc2Zvcm09InRyYW5zbGF0ZSgyODguMTEyNTAzMDUxNzU3OCwgMTc3NC44MTY2NTAzOTA2MjUpIiBkYXRhLWlkPSJNIiBkYXRhLW5vZGU9InRydWUiIGlkPSJmbG93Y2hhcnQtTS0xMDc4IiBjbGFzcz0ibm9kZSBkZWZhdWx0IGRlZmF1bHQgZmxvd2NoYXJ0LWxhYmVsIj48cmVjdCBoZWlnaHQ9IjM0LjUiIHdpZHRoPSIyMTguMzgzMzMxMjk4ODI4MTIiIHk9Ii0xNy4yNSIgeD0iLTEwOS4xOTE2NjU2NDk0MTQwNiIgcnk9IjUiIHJ4PSI1IiBzdHlsZT0iIiBjbGFzcz0iYmFzaWMgbGFiZWwtY29udGFpbmVyIj48L3JlY3Q+PGcgdHJhbnNmb3JtPSJ0cmFuc2xhdGUoMCwgLTkuNzUpIiBzdHlsZT0iIiBjbGFzcz0ibGFiZWwiPjxyZWN0PjwvcmVjdD48dGV4dCBzdHlsZT0iIj48dHNwYW4gY2xhc3M9InJvdyIgeD0iMCIgZHk9IjFlbSIgeG1sOnNwYWNlPSJwcmVzZXJ2ZSI+Q2hhbmdlIHN0YXR1cyB0byBJbiBQcm9ncmVzczwvdHNwYW4+PC90ZXh0PjwvZz48L2c+PGcgdHJhbnNmb3JtPSJ0cmFuc2xhdGUoMjg4LjExMjUwMzA1MTc1NzgsIDIwMzYuNjkxNjUwMzkwNjI1KSIgZGF0YS1pZD0iTiIgZGF0YS1ub2RlPSJ0cnVlIiBpZD0iZmxvd2NoYXJ0LU4tMTA4MiIgY2xhc3M9Im5vZGUgZGVmYXVsdCBkZWZhdWx0IGZsb3djaGFydC1sYWJlbCI+PHBvbHlnb24gc3R5bGU9IiIgdHJhbnNmb3JtPSJ0cmFuc2xhdGUoLTE0NC42MjUsMTQ0LjYyNSkiIGNsYXNzPSJsYWJlbC1jb250YWluZXIiIHBvaW50cz0iMTQ0LjYyNSwwIDI4OS4yNSwtMTQ0LjYyNSAxNDQuNjI1LC0yODkuMjUgMCwtMTQ0LjYyNSI+PC9wb2x5Z29uPjxnIHRyYW5zZm9ybT0idHJhbnNsYXRlKDAsIC05Ljc1KSIgc3R5bGU9IiIgY2xhc3M9ImxhYmVsIj48cmVjdD48L3JlY3Q+PHRleHQgc3R5bGU9IiI+PHRzcGFuIGNsYXNzPSJyb3ciIHg9IjAiIGR5PSIxZW0iIHhtbDpzcGFjZT0icHJlc2VydmUiPkV4dGVybmFsIFZlbmRvciB0byBwZXJmb3JtIHN0ZXA/PC90c3Bhbj48L3RleHQ+PC9nPjwvZz48ZyB0cmFuc2Zvcm09InRyYW5zbGF0ZSgzMTkuNDA0MTcwMDM2MzE1OSwgMjMxOC4wNjY2NTAzOTA2MjUpIiBkYXRhLWlkPSJPIiBkYXRhLW5vZGU9InRydWUiIGlkPSJmbG93Y2hhcnQtTy0xMDg0IiBjbGFzcz0ibm9kZSBkZWZhdWx0IGRlZmF1bHQgZmxvd2NoYXJ0LWxhYmVsIj48cmVjdCBoZWlnaHQ9IjM0LjUiIHdpZHRoPSIxMzguNzUiIHk9Ii0xNy4yNSIgeD0iLTY5LjM3NSIgcnk9IjUiIHJ4PSI1IiBzdHlsZT0iIiBjbGFzcz0iYmFzaWMgbGFiZWwtY29udGFpbmVyIj48L3JlY3Q+PGcgdHJhbnNmb3JtPSJ0cmFuc2xhdGUoMCwgLTkuNzUpIiBzdHlsZT0iIiBjbGFzcz0ibGFiZWwiPjxyZWN0PjwvcmVjdD48dGV4dCBzdHlsZT0iIj48dHNwYW4gY2xhc3M9InJvdyIgeD0iMCIgZHk9IjFlbSIgeG1sOnNwYWNlPSJwcmVzZXJ2ZSI+QWRkIHZlbmRvciBjb3N0czwvdHNwYW4+PC90ZXh0PjwvZz48L2c+PGcgdHJhbnNmb3JtPSJ0cmFuc2xhdGUoMTA3Ljc0MTY2ODcwMTE3MTg4LCAzMjMwLjUzMzMwOTkzNjUyMzQpIiBkYXRhLWlkPSJQIiBkYXRhLW5vZGU9InRydWUiIGlkPSJmbG93Y2hhcnQtUC0xMDg2IiBjbGFzcz0ibm9kZSBkZWZhdWx0IGRlZmF1bHQgZmxvd2NoYXJ0LWxhYmVsIj48cG9seWdvbiBzdHlsZT0iIiB0cmFuc2Zvcm09InRyYW5zbGF0ZSgtOTYuMjQxNjY4NzAxMTcxODgsMTcuMjUpIiBjbGFzcz0ibGFiZWwtY29udGFpbmVyIiBwb2ludHM9IjUuNzUsMCAxODYuNzMzMzM3NDAyMzQzNzUsMCAyMDMuOTgzMzM3NDAyMzQzNzUsLTM0LjUgLTExLjUsLTM0LjUiPjwvcG9seWdvbj48ZyB0cmFuc2Zvcm09InRyYW5zbGF0ZSgwLCAtOS43NSkiIHN0eWxlPSIiIGNsYXNzPSJsYWJlbCI+PHJlY3Q+PC9yZWN0Pjx0ZXh0IHN0eWxlPSIiPjx0c3BhbiBjbGFzcz0icm93IiB4PSIwIiBkeT0iMWVtIiB4bWw6c3BhY2U9InByZXNlcnZlIj5QZXJmb3JtIHdvcmsgb3JkZXIgc3RlcDwvdHNwYW4+PC90ZXh0PjwvZz48L2c+PGcgdHJhbnNmb3JtPSJ0cmFuc2xhdGUoMzE5LjQwNDE3MDAzNjMxNTksIDI0NTIuNTY2NjUwMzkwNjI1KSIgZGF0YS1pZD0iUSIgZGF0YS1ub2RlPSJ0cnVlIiBpZD0iZmxvd2NoYXJ0LVEtMTA4OCIgY2xhc3M9Im5vZGUgZGVmYXVsdCBkZWZhdWx0IGZsb3djaGFydC1sYWJlbCI+PHJlY3QgaGVpZ2h0PSIzNC41IiB3aWR0aD0iMjAxLjY5MTY2NTY0OTQxNDA2IiB5PSItMTcuMjUiIHg9Ii0xMDAuODQ1ODMyODI0NzA3MDMiIHJ5PSIxNy4yNSIgcng9IjE3LjI1IiBzdHlsZT0iIj48L3JlY3Q+PGcgdHJhbnNmb3JtPSJ0cmFuc2xhdGUoMCwgLTkuNzUpIiBzdHlsZT0iIiBjbGFzcz0ibGFiZWwiPjxyZWN0PjwvcmVjdD48dGV4dCBzdHlsZT0iIj48dHNwYW4gY2xhc3M9InJvdyIgeD0iMCIgZHk9IjFlbSIgeG1sOnNwYWNlPSJwcmVzZXJ2ZSI+U2hpcCBtYXRlcmlhbHMgdG8gVmVuZG9yPC90c3Bhbj48L3RleHQ+PC9nPjwvZz48ZyB0cmFuc2Zvcm09InRyYW5zbGF0ZSg2MzMuNzU0MTY0Njk1NzM5NywgMzQ4NS43NTgzMTYwNDAwMzkpIiBkYXRhLWlkPSJSIiBkYXRhLW5vZGU9InRydWUiIGlkPSJmbG93Y2hhcnQtUi0xMDkwIiBjbGFzcz0ibm9kZSBkZWZhdWx0IGRlZmF1bHQgZmxvd2NoYXJ0LWxhYmVsIj48cG9seWdvbiBzdHlsZT0iIiB0cmFuc2Zvcm09InRyYW5zbGF0ZSgtMTM3Ljk3NDk5ODQ3NDEyMTEsMTM3Ljk3NDk5ODQ3NDEyMTEpIiBjbGFzcz0ibGFiZWwtY29udGFpbmVyIiBwb2ludHM9IjEzNy45NzQ5OTg0NzQxMjExLDAgMjc1Ljk0OTk5Njk0ODI0MjIsLTEzNy45NzQ5OTg0NzQxMjExIDEzNy45NzQ5OTg0NzQxMjExLC0yNzUuOTQ5OTk2OTQ4MjQyMiAwLC0xMzcuOTc0OTk4NDc0MTIxMSI+PC9wb2x5Z29uPjxnIHRyYW5zZm9ybT0idHJhbnNsYXRlKDAsIC05Ljc1KSIgc3R5bGU9IiIgY2xhc3M9ImxhYmVsIj48cmVjdD48L3JlY3Q+PHRleHQgc3R5bGU9IiI+PHRzcGFuIGNsYXNzPSJyb3ciIHg9IjAiIGR5PSIxZW0iIHhtbDpzcGFjZT0icHJlc2VydmUiPkFkZGl0aW9uYWwgcHJvY2Vzc2luZyByZXF1aXJlZD88L3RzcGFuPjwvdGV4dD48L2c+PC9nPjxnIHRyYW5zZm9ybT0idHJhbnNsYXRlKDMxOS40MDQxNzAwMzYzMTU5LCAyNTg3LjA2NjY1MDM5MDYyNSkiIGRhdGEtaWQ9IlMiIGRhdGEtbm9kZT0idHJ1ZSIgaWQ9ImZsb3djaGFydC1TLTEwOTIiIGNsYXNzPSJub2RlIGRlZmF1bHQgZGVmYXVsdCBmbG93Y2hhcnQtbGFiZWwiPjxwb2x5Z29uIHN0eWxlPSIiIHRyYW5zZm9ybT0idHJhbnNsYXRlKC05Ni4yNDE2Njg3MDExNzE4OCwxNy4yNSkiIGNsYXNzPSJsYWJlbC1jb250YWluZXIiIHBvaW50cz0iNS43NSwwIDE4Ni43MzMzMzc0MDIzNDM3NSwwIDIwMy45ODMzMzc0MDIzNDM3NSwtMzQuNSAtMTEuNSwtMzQuNSI+PC9wb2x5Z29uPjxnIHRyYW5zZm9ybT0idHJhbnNsYXRlKDAsIC05Ljc1KSIgc3R5bGU9IiIgY2xhc3M9ImxhYmVsIj48cmVjdD48L3JlY3Q+PHRleHQgc3R5bGU9IiI+PHRzcGFuIGNsYXNzPSJyb3ciIHg9IjAiIGR5PSIxZW0iIHhtbDpzcGFjZT0icHJlc2VydmUiPlBlcmZvcm0gd29yayBvcmRlciBzdGVwPC90c3Bhbj48L3RleHQ+PC9nPjwvZz48ZyB0cmFuc2Zvcm09InRyYW5zbGF0ZSgzNzcuOTI1MDAzMDUxNzU3OCwgMzIzMC41MzMzMDk5MzY1MjM0KSIgZGF0YS1pZD0iWCIgZGF0YS1ub2RlPSJ0cnVlIiBpZD0iZmxvd2NoYXJ0LVgtMTA5MyIgY2xhc3M9Im5vZGUgZGVmYXVsdCBkZWZhdWx0IGZsb3djaGFydC1sYWJlbCI+PHJlY3QgaGVpZ2h0PSIzNC41IiB3aWR0aD0iMjI0Ljg4MzMzMTI5ODgyODEyIiB5PSItMTcuMjUiIHg9Ii0xMTIuNDQxNjY1NjQ5NDE0MDYiIHJ5PSIwIiByeD0iMCIgc3R5bGU9IiIgY2xhc3M9ImJhc2ljIGxhYmVsLWNvbnRhaW5lciI+PC9yZWN0PjxnIHRyYW5zZm9ybT0idHJhbnNsYXRlKDAsIC05Ljc1KSIgc3R5bGU9IiIgY2xhc3M9ImxhYmVsIj48cmVjdD48L3JlY3Q+PHRleHQgc3R5bGU9IiI+PHRzcGFuIGNsYXNzPSJyb3ciIHg9IjAiIGR5PSIxZW0iIHhtbDpzcGFjZT0icHJlc2VydmUiPkNyZWF0ZSB3b3JrIG9yZGVyIGJhY2tvcmRlcjwvdHNwYW4+PC90ZXh0PjwvZz48L2c+PGcgdHJhbnNmb3JtPSJ0cmFuc2xhdGUoNjMzLjc1NDE2NDY5NTczOTcsIDM3NjAuNDgzMzIyMTQzNTU0NykiIGRhdGEtaWQ9IlQiIGRhdGEtbm9kZT0idHJ1ZSIgaWQ9ImZsb3djaGFydC1ULTEwOTciIGNsYXNzPSJub2RlIGRlZmF1bHQgZGVmYXVsdCBmbG93Y2hhcnQtbGFiZWwiPjxyZWN0IGhlaWdodD0iMzQuNSIgd2lkdGg9IjE1MS41ODMzMjgyNDcwNzAzIiB5PSItMTcuMjUiIHg9Ii03NS43OTE2NjQxMjM1MzUxNiIgcnk9IjUiIHJ4PSI1IiBzdHlsZT0iIiBjbGFzcz0iYmFzaWMgbGFiZWwtY29udGFpbmVyIj48L3JlY3Q+PGcgdHJhbnNmb3JtPSJ0cmFuc2xhdGUoMCwgLTkuNzUpIiBzdHlsZT0iIiBjbGFzcz0ibGFiZWwiPjxyZWN0PjwvcmVjdD48dGV4dCBzdHlsZT0iIj48dHNwYW4gY2xhc3M9InJvdyIgeD0iMCIgZHk9IjFlbSIgeG1sOnNwYWNlPSJwcmVzZXJ2ZSI+UmVjZWl2ZSBmaW5hbCBzdG9jazwvdHNwYW4+PC90ZXh0PjwvZz48L2c+PGcgdHJhbnNmb3JtPSJ0cmFuc2xhdGUoMzk1Ljc3MDgzNDkyMjc5MDUsIDI3NDEuMDY2NjUwMzkwNjI1KSIgZGF0YS1pZD0iVSIgZGF0YS1ub2RlPSJ0cnVlIiBpZD0iZmxvd2NoYXJ0LVUtMTA5OSIgY2xhc3M9Im5vZGUgZGVmYXVsdCBkZWZhdWx0IGZsb3djaGFydC1sYWJlbCI+PHJlY3QgaGVpZ2h0PSIzNC41IiB3aWR0aD0iMjI1LjMzMzMyODI0NzA3MDMiIHk9Ii0xNy4yNSIgeD0iLTExMi42NjY2NjQxMjM1MzUxNiIgcnk9IjUiIHJ4PSI1IiBzdHlsZT0iIiBjbGFzcz0iYmFzaWMgbGFiZWwtY29udGFpbmVyIj48L3JlY3Q+PGcgdHJhbnNmb3JtPSJ0cmFuc2xhdGUoMCwgLTkuNzUpIiBzdHlsZT0iIiBjbGFzcz0ibGFiZWwiPjxyZWN0PjwvcmVjdD48dGV4dCBzdHlsZT0iIj48dHNwYW4gY2xhc3M9InJvdyIgeD0iMCIgZHk9IjFlbSIgeG1sOnNwYWNlPSJwcmVzZXJ2ZSI+UmVjZWl2ZSBwcm9kdWN0IGZyb20gdmVuZG9yPC90c3Bhbj48L3RleHQ+PC9nPjwvZz48ZyB0cmFuc2Zvcm09InRyYW5zbGF0ZSg2MzMuNzU0MTY0Njk1NzM5NywgMzg5NC45ODMzMjIxNDM1NTQ3KSIgZGF0YS1pZD0iViIgZGF0YS1ub2RlPSJ0cnVlIiBpZD0iZmxvd2NoYXJ0LVYtMTEwMSIgY2xhc3M9Im5vZGUgZGVmYXVsdCBkZWZhdWx0IGZsb3djaGFydC1sYWJlbCI+PHJlY3QgaGVpZ2h0PSIzNC41IiB3aWR0aD0iMTczLjA2NjY2NTY0OTQxNDA2IiB5PSItMTcuMjUiIHg9Ii04Ni41MzMzMzI4MjQ3MDcwMyIgcnk9IjUiIHJ4PSI1IiBzdHlsZT0iIiBjbGFzcz0iYmFzaWMgbGFiZWwtY29udGFpbmVyIj48L3JlY3Q+PGcgdHJhbnNmb3JtPSJ0cmFuc2xhdGUoMCwgLTkuNzUpIiBzdHlsZT0iIiBjbGFzcz0ibGFiZWwiPjxyZWN0PjwvcmVjdD48dGV4dCBzdHlsZT0iIj48dHNwYW4gY2xhc3M9InJvdyIgeD0iMCIgZHk9IjFlbSIgeG1sOnNwYWNlPSJwcmVzZXJ2ZSI+U2hpcCBwcm9kdWN0IG9uIG9yZGVyPC90c3Bhbj48L3RleHQ+PC9nPjwvZz48ZyB0cmFuc2Zvcm09InRyYW5zbGF0ZSgzOTUuNzcwODM0OTIyNzkwNSwgMjk3Ni4wNDk5ODAxNjM1NzQpIiBkYXRhLWlkPSJXIiBkYXRhLW5vZGU9InRydWUiIGlkPSJmbG93Y2hhcnQtVy0xMTAzIiBjbGFzcz0ibm9kZSBkZWZhdWx0IGRlZmF1bHQgZmxvd2NoYXJ0LWxhYmVsIj48cG9seWdvbiBzdHlsZT0iIiB0cmFuc2Zvcm09InRyYW5zbGF0ZSgtMTE3LjczMzMyOTc3Mjk0OTIyLDExNy43MzMzMjk3NzI5NDkyMikiIGNsYXNzPSJsYWJlbC1jb250YWluZXIiIHBvaW50cz0iMTE3LjczMzMyOTc3Mjk0OTIyLDAgMjM1LjQ2NjY1OTU0NTg5ODQ0LC0xMTcuNzMzMzI5NzcyOTQ5MjIgMTE3LjczMzMyOTc3Mjk0OTIyLC0yMzUuNDY2NjU5NTQ1ODk4NDQgMCwtMTE3LjczMzMyOTc3Mjk0OTIyIj48L3BvbHlnb24+PGcgdHJhbnNmb3JtPSJ0cmFuc2xhdGUoMCwgLTkuNzUpIiBzdHlsZT0iIiBjbGFzcz0ibGFiZWwiPjxyZWN0PjwvcmVjdD48dGV4dCBzdHlsZT0iIj48dHNwYW4gY2xhc3M9InJvdyIgeD0iMCIgZHk9IjFlbSIgeG1sOnNwYWNlPSJwcmVzZXJ2ZSI+UGFydGlhbCBxdWFudGl0eSByZWNlaXZlZD88L3RzcGFuPjwvdGV4dD48L2c+PC9nPjxnIHRyYW5zZm9ybT0idHJhbnNsYXRlKDYzMy43NTQxNjQ2OTU3Mzk3LCA0MDI5LjQ4MzMyMjE0MzU1NDcpIiBkYXRhLWlkPSJZIiBkYXRhLW5vZGU9InRydWUiIGlkPSJmbG93Y2hhcnQtWS0xMTA1IiBjbGFzcz0ibm9kZSBkZWZhdWx0IGRlZmF1bHQgZmxvd2NoYXJ0LWxhYmVsIj48cmVjdCBoZWlnaHQ9IjM0LjUiIHdpZHRoPSIyMDguNjY2NjcxNzUyOTI5NyIgeT0iLTE3LjI1IiB4PSItMTA0LjMzMzMzNTg3NjQ2NDg0IiByeT0iNSIgcng9IjUiIHN0eWxlPSIiIGNsYXNzPSJiYXNpYyBsYWJlbC1jb250YWluZXIiPjwvcmVjdD48ZyB0cmFuc2Zvcm09InRyYW5zbGF0ZSgwLCAtOS43NSkiIHN0eWxlPSIiIGNsYXNzPSJsYWJlbCI+PHJlY3Q+PC9yZWN0Pjx0ZXh0IHN0eWxlPSIiPjx0c3BhbiBjbGFzcz0icm93IiB4PSIwIiBkeT0iMWVtIiB4bWw6c3BhY2U9InByZXNlcnZlIj5DaGFuZ2Ugc3RhdHVzIHRvIGNvbXBsZXRlPC90c3Bhbj48L3RleHQ+PC9nPjwvZz48ZyB0cmFuc2Zvcm09InRyYW5zbGF0ZSg2MzMuNzU0MTY0Njk1NzM5NywgMzIzMC41MzMzMDk5MzY1MjM0KSIgZGF0YS1pZD0iWiIgZGF0YS1ub2RlPSJ0cnVlIiBpZD0iZmxvd2NoYXJ0LVotMTEwOSIgY2xhc3M9Im5vZGUgZGVmYXVsdCBkZWZhdWx0IGZsb3djaGFydC1sYWJlbCI+PHJlY3QgaGVpZ2h0PSIzNC41IiB3aWR0aD0iMTUxLjA4MzMyODI0NzA3MDMiIHk9Ii0xNy4yNSIgeD0iLTc1LjU0MTY2NDEyMzUzNTE2IiByeT0iNSIgcng9IjUiIHN0eWxlPSIiIGNsYXNzPSJiYXNpYyBsYWJlbC1jb250YWluZXIiPjwvcmVjdD48ZyB0cmFuc2Zvcm09InRyYW5zbGF0ZSgwLCAtOS43NSkiIHN0eWxlPSIiIGNsYXNzPSJsYWJlbCI+PHJlY3Q+PC9yZWN0Pjx0ZXh0IHN0eWxlPSIiPjx0c3BhbiBjbGFzcz0icm93IiB4PSIwIiBkeT0iMWVtIiB4bWw6c3BhY2U9InByZXNlcnZlIj5QYXkgdmVuZG9yIGludm9pY2U8L3RzcGFuPjwvdGV4dD48L2c+PC9nPjxnIHRyYW5zZm9ybT0idHJhbnNsYXRlKDYzMy43NTQxNjQ2OTU3Mzk3LCA0MTYzLjk4MzMyMjE0MzU1NSkiIGRhdGEtaWQ9IkFBIiBkYXRhLW5vZGU9InRydWUiIGlkPSJmbG93Y2hhcnQtQUEtMTExMyIgY2xhc3M9Im5vZGUgZGVmYXVsdCBkZWZhdWx0IGZsb3djaGFydC1sYWJlbCI+PHJlY3QgaGVpZ2h0PSIzNC41IiB3aWR0aD0iNjcuMTQxNjY2NDEyMzUzNTIiIHk9Ii0xNy4yNSIgeD0iLTMzLjU3MDgzMzIwNjE3Njc2IiByeT0iMTcuMjUiIHJ4PSIxNy4yNSIgc3R5bGU9IiI+PC9yZWN0PjxnIHRyYW5zZm9ybT0idHJhbnNsYXRlKDAsIC05Ljc1KSIgc3R5bGU9IiIgY2xhc3M9ImxhYmVsIj48cmVjdD48L3JlY3Q+PHRleHQgc3R5bGU9IiI+PHRzcGFuIGNsYXNzPSJyb3ciIHg9IjAiIGR5PSIxZW0iIHhtbDpzcGFjZT0icHJlc2VydmUiPkZpbmlzaDwvdHNwYW4+PC90ZXh0PjwvZz48L2c+PC9nPjwvZz48L2c+PC9zdmc+;" vertex="1" parent="1">
            <mxGeometry x="-930" y="-2590" width="787.7291259765625" height="4197.2333984375" as="geometry" />
          </mxCell>
        </UserObject>
        <mxCell id="bb5BC2EJjtmaYSuX2uXX-1" value="&lt;div&gt;&lt;b&gt;Mermaid syntax for this diagram&lt;/b&gt;&lt;/div&gt;&lt;div&gt;&lt;br&gt;&lt;/div&gt;graph TD&lt;br&gt;&amp;nbsp; A[\Replenish Value Add stock/] ---&amp;gt;C&lt;br&gt;&amp;nbsp; B(Order product with Value Add) ---&amp;gt;C&lt;br&gt;&amp;nbsp; C{Frequent process?} ---&amp;gt;|Yes|D &lt;br&gt;&amp;nbsp; C ---&amp;gt;|No|F&lt;br&gt;&amp;nbsp; D{New template?} ---&amp;gt;|Yes|E &lt;br&gt;&amp;nbsp; D ---&amp;gt;|No|G&lt;br&gt;&amp;nbsp; E(Create work order template) ---&amp;gt;G&lt;br&gt;&amp;nbsp; F(Create work order) ---&amp;gt;H&lt;br&gt;&amp;nbsp; G(Copy template to work order) ---&amp;gt;I&lt;br&gt;&amp;nbsp; H(Add materials to work order processes) ---&amp;gt;J&lt;br&gt;&amp;nbsp; I(Adjust material quantities) ---&amp;gt;J&lt;br&gt;&amp;nbsp; J(Monitor work orders) ---&amp;gt;K&lt;br&gt;&amp;nbsp; K{Material quantities in stock?} ---&amp;gt;|No|L &lt;br&gt;&amp;nbsp; K ---&amp;gt;|Yes|M&lt;br&gt;&amp;nbsp; L(Procure materials) ---&amp;gt;M&lt;br&gt;&amp;nbsp; M(Change status to In Progress) ---&amp;gt;N&lt;br&gt;&amp;nbsp; N{External Vendor to perform step?} ---&amp;gt;|Yes|O &lt;br&gt;&amp;nbsp; N ---&amp;gt;|No|P&lt;br&gt;&amp;nbsp; O(Add vendor costs) ---&amp;gt;Q&lt;br&gt;&amp;nbsp; P[\Perform work order step/] ---&amp;gt;R&lt;br&gt;&amp;nbsp; Q([Ship materials to Vendor]) ---&amp;gt;S ---&amp;gt;X&lt;br&gt;&amp;nbsp; R{Additional processing required?} ---&amp;gt;|Yes|N &lt;br&gt;&amp;nbsp; R---&amp;gt;|No|T&lt;br&gt;&amp;nbsp; S[\Perform work order step/] ---&amp;gt;U&lt;br&gt;&amp;nbsp; T(Receive final stock) ---&amp;gt;V&lt;br&gt;&amp;nbsp; U(Receive product from vendor) ---&amp;gt;W&lt;br&gt;&amp;nbsp; V(Ship product on order) ---&amp;gt;Y&lt;br&gt;&amp;nbsp; W{Partial quantity received?} ---&amp;gt;|Yes|X &lt;br&gt;&amp;nbsp; W ---&amp;gt;|No|Z&lt;br&gt;&amp;nbsp; X[Create work order backorder] ---&amp;gt; J&lt;br&gt;&amp;nbsp; Y(Change status to complete) ---&amp;gt;AA&lt;br&gt;&amp;nbsp; Z(Pay vendor invoice) ---&amp;gt;R&lt;br&gt;&amp;nbsp; AA([Finish])" style="text;html=1;align=left;verticalAlign=middle;whiteSpace=wrap;rounded=0;fontSize=16;" vertex="1" parent="1">
          <mxGeometry x="-230" y="-1490" width="610" height="800" as="geometry" />
        </mxCell>
      </root>
    </mxGraphModel>
  </diagram>
</mxfile>
